solid OpenSCAD_Model
  facet normal -0.956965 0 0.290204
    outer loop
      vertex 19.663 2 4.81117
      vertex 19.7654 11 5.14884
      vertex 19.663 11 4.81117
    endloop
  endfacet
  facet normal -0.956965 0 0.290204
    outer loop
      vertex 19.7654 11 5.14884
      vertex 19.663 2 4.81117
      vertex 19.7654 2 5.14884
    endloop
  endfacet
  facet normal -0.995181 0 0.0980558
    outer loop
      vertex 19.7654 2 5.14884
      vertex 19.8 11 5.5
      vertex 19.7654 11 5.14884
    endloop
  endfacet
  facet normal -0.995181 0 0.0980558
    outer loop
      vertex 19.8 11 5.5
      vertex 19.7654 2 5.14884
      vertex 19.8 2 5.5
    endloop
  endfacet
  facet normal -0.88185 0 0.471529
    outer loop
      vertex 19.4966 2 4.49997
      vertex 19.663 11 4.81117
      vertex 19.4966 11 4.49997
    endloop
  endfacet
  facet normal -0.88185 0 0.471529
    outer loop
      vertex 19.663 11 4.81117
      vertex 19.4966 2 4.49997
      vertex 19.663 2 4.81117
    endloop
  endfacet
  facet normal -0.995181 0 -0.0980558
    outer loop
      vertex 19.8 2 5.5
      vertex 19.7654 11 5.85116
      vertex 19.8 11 5.5
    endloop
  endfacet
  facet normal -0.995181 -0 -0.0980558
    outer loop
      vertex 19.7654 11 5.85116
      vertex 19.8 2 5.5
      vertex 19.7654 2 5.85116
    endloop
  endfacet
  facet normal 0.471397 0 -0.881921
    outer loop
      vertex 17 2 6.99664
      vertex 17.3112 11 7.16298
      vertex 17.3112 2 7.16298
    endloop
  endfacet
  facet normal 0.471397 0 -0.881921
    outer loop
      vertex 17.3112 11 7.16298
      vertex 17 2 6.99664
      vertex 17 11 6.99664
    endloop
  endfacet
  facet normal -0.63434 0 -0.773054
    outer loop
      vertex 19 2 6.99664
      vertex 19.2728 11 6.77279
      vertex 19.2728 2 6.77279
    endloop
  endfacet
  facet normal -0.63434 0 -0.773054
    outer loop
      vertex 19.2728 11 6.77279
      vertex 19 2 6.99664
      vertex 19 11 6.99664
    endloop
  endfacet
  facet normal -0.773078 0 0.634311
    outer loop
      vertex 19.2728 2 4.22721
      vertex 19.4966 11 4.49997
      vertex 19.2728 11 4.22721
    endloop
  endfacet
  facet normal -0.773078 0 0.634311
    outer loop
      vertex 19.4966 11 4.49997
      vertex 19.2728 2 4.22721
      vertex 19.4966 2 4.49997
    endloop
  endfacet
  facet normal -0.956965 0 -0.290204
    outer loop
      vertex 19.7654 2 5.85116
      vertex 19.663 11 6.18883
      vertex 19.7654 11 5.85116
    endloop
  endfacet
  facet normal -0.956965 -0 -0.290204
    outer loop
      vertex 19.663 11 6.18883
      vertex 19.7654 2 5.85116
      vertex 19.663 2 6.18883
    endloop
  endfacet
  facet normal 0.773078 0 -0.634311
    outer loop
      vertex 16.7272 2 6.77279
      vertex 16.5034 11 6.50003
      vertex 16.7272 11 6.77279
    endloop
  endfacet
  facet normal 0.773078 0 -0.634311
    outer loop
      vertex 16.5034 11 6.50003
      vertex 16.7272 2 6.77279
      vertex 16.5034 2 6.50003
    endloop
  endfacet
  facet normal 0.63434 0 0.773054
    outer loop
      vertex 16.7272 11 4.22721
      vertex 17 2 4.00336
      vertex 17 11 4.00336
    endloop
  endfacet
  facet normal 0.63434 0 0.773054
    outer loop
      vertex 17 2 4.00336
      vertex 16.7272 11 4.22721
      vertex 16.7272 2 4.22721
    endloop
  endfacet
  facet normal -0.471397 0 -0.881921
    outer loop
      vertex 18.6888 2 7.16298
      vertex 19 11 6.99664
      vertex 19 2 6.99664
    endloop
  endfacet
  facet normal -0.471397 0 -0.881921
    outer loop
      vertex 19 11 6.99664
      vertex 18.6888 2 7.16298
      vertex 18.6888 11 7.16298
    endloop
  endfacet
  facet normal 0.471397 0 0.881921
    outer loop
      vertex 17 11 4.00336
      vertex 17.3112 2 3.83702
      vertex 17.3112 11 3.83702
    endloop
  endfacet
  facet normal 0.471397 0 0.881921
    outer loop
      vertex 17.3112 2 3.83702
      vertex 17 11 4.00336
      vertex 17 2 4.00336
    endloop
  endfacet
  facet normal -0.290337 0 -0.956924
    outer loop
      vertex 18.3512 2 7.26541
      vertex 18.6888 11 7.16298
      vertex 18.6888 2 7.16298
    endloop
  endfacet
  facet normal -0.290337 0 -0.956924
    outer loop
      vertex 18.6888 11 7.16298
      vertex 18.3512 2 7.26541
      vertex 18.3512 11 7.26541
    endloop
  endfacet
  facet normal -0.471397 0 0.881921
    outer loop
      vertex 18.6888 11 3.83702
      vertex 19 2 4.00336
      vertex 19 11 4.00336
    endloop
  endfacet
  facet normal -0.471397 0 0.881921
    outer loop
      vertex 19 2 4.00336
      vertex 18.6888 11 3.83702
      vertex 18.6888 2 3.83702
    endloop
  endfacet
  facet normal 0.290337 0 0.956924
    outer loop
      vertex 17.3112 11 3.83702
      vertex 17.6488 2 3.73459
      vertex 17.6488 11 3.73459
    endloop
  endfacet
  facet normal 0.290337 0 0.956924
    outer loop
      vertex 17.6488 2 3.73459
      vertex 17.3112 11 3.83702
      vertex 17.3112 2 3.83702
    endloop
  endfacet
  facet normal 0.88185 0 -0.471529
    outer loop
      vertex 16.5034 2 6.50003
      vertex 16.337 11 6.18883
      vertex 16.5034 11 6.50003
    endloop
  endfacet
  facet normal 0.88185 0 -0.471529
    outer loop
      vertex 16.337 11 6.18883
      vertex 16.5034 2 6.50003
      vertex 16.337 2 6.18883
    endloop
  endfacet
  facet normal -0.0980166 0 0.995185
    outer loop
      vertex 18 11 3.7
      vertex 18.3512 2 3.73459
      vertex 18.3512 11 3.73459
    endloop
  endfacet
  facet normal -0.0980166 0 0.995185
    outer loop
      vertex 18.3512 2 3.73459
      vertex 18 11 3.7
      vertex 18 2 3.7
    endloop
  endfacet
  facet normal 0.63434 0 -0.773054
    outer loop
      vertex 16.7272 2 6.77279
      vertex 17 11 6.99664
      vertex 17 2 6.99664
    endloop
  endfacet
  facet normal 0.63434 0 -0.773054
    outer loop
      vertex 17 11 6.99664
      vertex 16.7272 2 6.77279
      vertex 16.7272 11 6.77279
    endloop
  endfacet
  facet normal -0.290337 0 0.956924
    outer loop
      vertex 18.3512 11 3.73459
      vertex 18.6888 2 3.83702
      vertex 18.6888 11 3.83702
    endloop
  endfacet
  facet normal -0.290337 0 0.956924
    outer loop
      vertex 18.6888 2 3.83702
      vertex 18.3512 11 3.73459
      vertex 18.3512 2 3.73459
    endloop
  endfacet
  facet normal 0.88185 -0 0.471529
    outer loop
      vertex 16.337 2 4.81117
      vertex 16.5034 11 4.49997
      vertex 16.337 11 4.81117
    endloop
  endfacet
  facet normal 0.88185 0 0.471529
    outer loop
      vertex 16.5034 11 4.49997
      vertex 16.337 2 4.81117
      vertex 16.5034 2 4.49997
    endloop
  endfacet
  facet normal -0.88185 0 -0.471529
    outer loop
      vertex 19.663 2 6.18883
      vertex 19.4966 11 6.50003
      vertex 19.663 11 6.18883
    endloop
  endfacet
  facet normal -0.88185 -0 -0.471529
    outer loop
      vertex 19.4966 11 6.50003
      vertex 19.663 2 6.18883
      vertex 19.4966 2 6.50003
    endloop
  endfacet
  facet normal -0.773078 0 -0.634311
    outer loop
      vertex 19.4966 2 6.50003
      vertex 19.2728 11 6.77279
      vertex 19.4966 11 6.50003
    endloop
  endfacet
  facet normal -0.773078 -0 -0.634311
    outer loop
      vertex 19.2728 11 6.77279
      vertex 19.4966 2 6.50003
      vertex 19.2728 2 6.77279
    endloop
  endfacet
  facet normal -0.63434 0 0.773054
    outer loop
      vertex 19 11 4.00336
      vertex 19.2728 2 4.22721
      vertex 19.2728 11 4.22721
    endloop
  endfacet
  facet normal -0.63434 0 0.773054
    outer loop
      vertex 19.2728 2 4.22721
      vertex 19 11 4.00336
      vertex 19 2 4.00336
    endloop
  endfacet
  facet normal -0.0980166 0 -0.995185
    outer loop
      vertex 18 2 7.3
      vertex 18.3512 11 7.26541
      vertex 18.3512 2 7.26541
    endloop
  endfacet
  facet normal -0.0980166 0 -0.995185
    outer loop
      vertex 18.3512 11 7.26541
      vertex 18 2 7.3
      vertex 18 11 7.3
    endloop
  endfacet
  facet normal 0.956965 0 -0.290204
    outer loop
      vertex 16.337 2 6.18883
      vertex 16.2346 11 5.85116
      vertex 16.337 11 6.18883
    endloop
  endfacet
  facet normal 0.956965 0 -0.290204
    outer loop
      vertex 16.2346 11 5.85116
      vertex 16.337 2 6.18883
      vertex 16.2346 2 5.85116
    endloop
  endfacet
  facet normal 0.995181 -0 0.0980558
    outer loop
      vertex 16.2 2 5.5
      vertex 16.2346 11 5.14884
      vertex 16.2 11 5.5
    endloop
  endfacet
  facet normal 0.995181 0 0.0980558
    outer loop
      vertex 16.2346 11 5.14884
      vertex 16.2 2 5.5
      vertex 16.2346 2 5.14884
    endloop
  endfacet
  facet normal 0.956965 -0 0.290204
    outer loop
      vertex 16.2346 2 5.14884
      vertex 16.337 11 4.81117
      vertex 16.2346 11 5.14884
    endloop
  endfacet
  facet normal 0.956965 0 0.290204
    outer loop
      vertex 16.337 11 4.81117
      vertex 16.2346 2 5.14884
      vertex 16.337 2 4.81117
    endloop
  endfacet
  facet normal 0.0980166 0 0.995185
    outer loop
      vertex 17.6488 11 3.73459
      vertex 18 2 3.7
      vertex 18 11 3.7
    endloop
  endfacet
  facet normal 0.0980166 0 0.995185
    outer loop
      vertex 18 2 3.7
      vertex 17.6488 11 3.73459
      vertex 17.6488 2 3.73459
    endloop
  endfacet
  facet normal 0.995181 0 -0.0980558
    outer loop
      vertex 16.2346 2 5.85116
      vertex 16.2 11 5.5
      vertex 16.2346 11 5.85116
    endloop
  endfacet
  facet normal 0.995181 0 -0.0980558
    outer loop
      vertex 16.2 11 5.5
      vertex 16.2346 2 5.85116
      vertex 16.2 2 5.5
    endloop
  endfacet
  facet normal 0.0980166 0 -0.995185
    outer loop
      vertex 17.6488 2 7.26541
      vertex 18 11 7.3
      vertex 18 2 7.3
    endloop
  endfacet
  facet normal 0.0980166 0 -0.995185
    outer loop
      vertex 18 11 7.3
      vertex 17.6488 2 7.26541
      vertex 17.6488 11 7.26541
    endloop
  endfacet
  facet normal 0.290337 0 -0.956924
    outer loop
      vertex 17.3112 2 7.16298
      vertex 17.6488 11 7.26541
      vertex 17.6488 2 7.26541
    endloop
  endfacet
  facet normal 0.290337 0 -0.956924
    outer loop
      vertex 17.6488 11 7.26541
      vertex 17.3112 2 7.16298
      vertex 17.3112 11 7.16298
    endloop
  endfacet
  facet normal 0.773078 -0 0.634311
    outer loop
      vertex 16.5034 2 4.49997
      vertex 16.7272 11 4.22721
      vertex 16.5034 11 4.49997
    endloop
  endfacet
  facet normal 0.773078 0 0.634311
    outer loop
      vertex 16.7272 11 4.22721
      vertex 16.5034 2 4.49997
      vertex 16.7272 2 4.22721
    endloop
  endfacet
  facet normal -0.956965 0 0.290204
    outer loop
      vertex 21.326 0 4.12234
      vertex 21.5308 2 4.79768
      vertex 21.326 2 4.12234
    endloop
  endfacet
  facet normal -0.956965 0 0.290204
    outer loop
      vertex 21.5308 2 4.79768
      vertex 21.326 0 4.12234
      vertex 21.5308 0 4.79768
    endloop
  endfacet
  facet normal -0.995181 0 0.0980558
    outer loop
      vertex 21.5308 0 4.79768
      vertex 21.6 2 5.5
      vertex 21.5308 2 4.79768
    endloop
  endfacet
  facet normal -0.995181 0 0.0980558
    outer loop
      vertex 21.6 2 5.5
      vertex 21.5308 0 4.79768
      vertex 21.6 0 5.5
    endloop
  endfacet
  facet normal -0.881906 0 0.471425
    outer loop
      vertex 20.9933 0 3.49995
      vertex 21.326 2 4.12234
      vertex 20.9933 2 3.49995
    endloop
  endfacet
  facet normal -0.881906 0 0.471425
    outer loop
      vertex 21.326 2 4.12234
      vertex 20.9933 0 3.49995
      vertex 21.326 0 4.12234
    endloop
  endfacet
  facet normal 0.956965 -0 0.290204
    outer loop
      vertex 14.4692 0 4.79768
      vertex 14.674 2 4.12234
      vertex 14.4692 2 4.79768
    endloop
  endfacet
  facet normal 0.956965 0 0.290204
    outer loop
      vertex 14.674 2 4.12234
      vertex 14.4692 0 4.79768
      vertex 14.674 0 4.12234
    endloop
  endfacet
  facet normal -0.0980164 0 -0.995185
    outer loop
      vertex 18 0 9.1
      vertex 18.7023 2 9.03083
      vertex 18.7023 0 9.03083
    endloop
  endfacet
  facet normal -0.0980164 0 -0.995185
    outer loop
      vertex 18.7023 2 9.03083
      vertex 18 0 9.1
      vertex 18 2 9.1
    endloop
  endfacet
  facet normal 0.995181 -0 0.0980558
    outer loop
      vertex 14.4 0 5.5
      vertex 14.4692 2 4.79768
      vertex 14.4 2 5.5
    endloop
  endfacet
  facet normal 0.995181 0 0.0980558
    outer loop
      vertex 14.4692 2 4.79768
      vertex 14.4 0 5.5
      vertex 14.4692 0 4.79768
    endloop
  endfacet
  facet normal -0.995181 0 -0.0980558
    outer loop
      vertex 21.6 0 5.5
      vertex 21.5308 2 6.20232
      vertex 21.6 2 5.5
    endloop
  endfacet
  facet normal -0.995181 -0 -0.0980558
    outer loop
      vertex 21.5308 2 6.20232
      vertex 21.6 0 5.5
      vertex 21.5308 0 6.20232
    endloop
  endfacet
  facet normal 0.634418 0 0.77299
    outer loop
      vertex 15.4544 2 2.95442
      vertex 15.9999 0 2.50671
      vertex 15.9999 2 2.50671
    endloop
  endfacet
  facet normal 0.634418 0 0.77299
    outer loop
      vertex 15.9999 0 2.50671
      vertex 15.4544 2 2.95442
      vertex 15.4544 0 2.95442
    endloop
  endfacet
  facet normal -0.773014 0 0.634389
    outer loop
      vertex 20.5456 0 2.95442
      vertex 20.9933 2 3.49995
      vertex 20.5456 2 2.95442
    endloop
  endfacet
  facet normal -0.773014 0 0.634389
    outer loop
      vertex 20.9933 2 3.49995
      vertex 20.5456 0 2.95442
      vertex 20.9933 0 3.49995
    endloop
  endfacet
  facet normal -0.773014 0 -0.634389
    outer loop
      vertex 20.9933 0 7.50005
      vertex 20.5456 2 8.04558
      vertex 20.9933 2 7.50005
    endloop
  endfacet
  facet normal -0.773014 -0 -0.634389
    outer loop
      vertex 20.5456 2 8.04558
      vertex 20.9933 0 7.50005
      vertex 20.5456 0 8.04558
    endloop
  endfacet
  facet normal 0.956965 0 -0.290204
    outer loop
      vertex 14.674 0 6.87766
      vertex 14.4692 2 6.20232
      vertex 14.674 2 6.87766
    endloop
  endfacet
  facet normal 0.956965 0 -0.290204
    outer loop
      vertex 14.4692 2 6.20232
      vertex 14.674 0 6.87766
      vertex 14.4692 0 6.20232
    endloop
  endfacet
  facet normal -0.881906 0 -0.471425
    outer loop
      vertex 21.326 0 6.87766
      vertex 20.9933 2 7.50005
      vertex 21.326 2 6.87766
    endloop
  endfacet
  facet normal -0.881906 -0 -0.471425
    outer loop
      vertex 20.9933 2 7.50005
      vertex 21.326 0 6.87766
      vertex 20.9933 0 7.50005
    endloop
  endfacet
  facet normal -0.956965 0 -0.290204
    outer loop
      vertex 21.5308 0 6.20232
      vertex 21.326 2 6.87766
      vertex 21.5308 2 6.20232
    endloop
  endfacet
  facet normal -0.956965 -0 -0.290204
    outer loop
      vertex 21.326 2 6.87766
      vertex 21.5308 0 6.20232
      vertex 21.326 0 6.87766
    endloop
  endfacet
  facet normal 0.995181 0 -0.0980558
    outer loop
      vertex 14.4692 0 6.20232
      vertex 14.4 2 5.5
      vertex 14.4692 2 6.20232
    endloop
  endfacet
  facet normal 0.995181 0 -0.0980558
    outer loop
      vertex 14.4 2 5.5
      vertex 14.4692 0 6.20232
      vertex 14.4 0 5.5
    endloop
  endfacet
  facet normal -0.634418 0 -0.77299
    outer loop
      vertex 20.0001 0 8.49329
      vertex 20.5456 2 8.04558
      vertex 20.5456 0 8.04558
    endloop
  endfacet
  facet normal -0.634418 0 -0.77299
    outer loop
      vertex 20.5456 2 8.04558
      vertex 20.0001 0 8.49329
      vertex 20.0001 2 8.49329
    endloop
  endfacet
  facet normal 0.634418 0 -0.77299
    outer loop
      vertex 15.4544 0 8.04558
      vertex 15.9999 2 8.49329
      vertex 15.9999 0 8.49329
    endloop
  endfacet
  facet normal 0.634418 0 -0.77299
    outer loop
      vertex 15.9999 2 8.49329
      vertex 15.4544 0 8.04558
      vertex 15.4544 2 8.04558
    endloop
  endfacet
  facet normal 0.881906 -0 0.471425
    outer loop
      vertex 14.674 0 4.12234
      vertex 15.0067 2 3.49995
      vertex 14.674 2 4.12234
    endloop
  endfacet
  facet normal 0.881906 0 0.471425
    outer loop
      vertex 15.0067 2 3.49995
      vertex 14.674 0 4.12234
      vertex 15.0067 0 3.49995
    endloop
  endfacet
  facet normal -0.290258 0 0.956948
    outer loop
      vertex 18.7023 2 1.96917
      vertex 19.3777 0 2.17403
      vertex 19.3777 2 2.17403
    endloop
  endfacet
  facet normal -0.290258 0 0.956948
    outer loop
      vertex 19.3777 0 2.17403
      vertex 18.7023 2 1.96917
      vertex 18.7023 0 1.96917
    endloop
  endfacet
  facet normal 0.471397 0 0.881921
    outer loop
      vertex 15.9999 2 2.50671
      vertex 16.6223 0 2.17403
      vertex 16.6223 2 2.17403
    endloop
  endfacet
  facet normal 0.471397 0 0.881921
    outer loop
      vertex 16.6223 0 2.17403
      vertex 15.9999 2 2.50671
      vertex 15.9999 0 2.50671
    endloop
  endfacet
  facet normal 0.773014 0 -0.634389
    outer loop
      vertex 15.4544 0 8.04558
      vertex 15.0067 2 7.50005
      vertex 15.4544 2 8.04558
    endloop
  endfacet
  facet normal 0.773014 0 -0.634389
    outer loop
      vertex 15.0067 2 7.50005
      vertex 15.4544 0 8.04558
      vertex 15.0067 0 7.50005
    endloop
  endfacet
  facet normal 0.290258 0 -0.956948
    outer loop
      vertex 16.6223 0 8.82597
      vertex 17.2977 2 9.03083
      vertex 17.2977 0 9.03083
    endloop
  endfacet
  facet normal 0.290258 0 -0.956948
    outer loop
      vertex 17.2977 2 9.03083
      vertex 16.6223 0 8.82597
      vertex 16.6223 2 8.82597
    endloop
  endfacet
  facet normal 0.290258 0 0.956948
    outer loop
      vertex 16.6223 2 2.17403
      vertex 17.2977 0 1.96917
      vertex 17.2977 2 1.96917
    endloop
  endfacet
  facet normal 0.290258 0 0.956948
    outer loop
      vertex 17.2977 0 1.96917
      vertex 16.6223 2 2.17403
      vertex 16.6223 0 2.17403
    endloop
  endfacet
  facet normal -0.290258 0 -0.956948
    outer loop
      vertex 18.7023 0 9.03083
      vertex 19.3777 2 8.82597
      vertex 19.3777 0 8.82597
    endloop
  endfacet
  facet normal -0.290258 0 -0.956948
    outer loop
      vertex 19.3777 2 8.82597
      vertex 18.7023 0 9.03083
      vertex 18.7023 2 9.03083
    endloop
  endfacet
  facet normal -0.471397 0 -0.881921
    outer loop
      vertex 19.3777 0 8.82597
      vertex 20.0001 2 8.49329
      vertex 20.0001 0 8.49329
    endloop
  endfacet
  facet normal -0.471397 0 -0.881921
    outer loop
      vertex 20.0001 2 8.49329
      vertex 19.3777 0 8.82597
      vertex 19.3777 2 8.82597
    endloop
  endfacet
  facet normal -0.634418 0 0.77299
    outer loop
      vertex 20.0001 2 2.50671
      vertex 20.5456 0 2.95442
      vertex 20.5456 2 2.95442
    endloop
  endfacet
  facet normal -0.634418 0 0.77299
    outer loop
      vertex 20.5456 0 2.95442
      vertex 20.0001 2 2.50671
      vertex 20.0001 0 2.50671
    endloop
  endfacet
  facet normal -0.471397 0 0.881921
    outer loop
      vertex 19.3777 2 2.17403
      vertex 20.0001 0 2.50671
      vertex 20.0001 2 2.50671
    endloop
  endfacet
  facet normal -0.471397 0 0.881921
    outer loop
      vertex 20.0001 0 2.50671
      vertex 19.3777 2 2.17403
      vertex 19.3777 0 2.17403
    endloop
  endfacet
  facet normal 0.773014 -0 0.634389
    outer loop
      vertex 15.0067 0 3.49995
      vertex 15.4544 2 2.95442
      vertex 15.0067 2 3.49995
    endloop
  endfacet
  facet normal 0.773014 0 0.634389
    outer loop
      vertex 15.4544 2 2.95442
      vertex 15.0067 0 3.49995
      vertex 15.4544 0 2.95442
    endloop
  endfacet
  facet normal 0.881906 0 -0.471425
    outer loop
      vertex 15.0067 0 7.50005
      vertex 14.674 2 6.87766
      vertex 15.0067 2 7.50005
    endloop
  endfacet
  facet normal 0.881906 0 -0.471425
    outer loop
      vertex 14.674 2 6.87766
      vertex 15.0067 0 7.50005
      vertex 14.674 0 6.87766
    endloop
  endfacet
  facet normal 0.0980164 0 -0.995185
    outer loop
      vertex 17.2977 0 9.03083
      vertex 18 2 9.1
      vertex 18 0 9.1
    endloop
  endfacet
  facet normal 0.0980164 0 -0.995185
    outer loop
      vertex 18 2 9.1
      vertex 17.2977 0 9.03083
      vertex 17.2977 2 9.03083
    endloop
  endfacet
  facet normal 0 -1 0
    outer loop
      vertex 18 2 7.3
      vertex 18 2 9.1
      vertex 17.2977 2 9.03083
    endloop
  endfacet
  facet normal 0 -1 0
    outer loop
      vertex 17.6488 2 7.26541
      vertex 17.2977 2 9.03083
      vertex 16.6223 2 8.82597
    endloop
  endfacet
  facet normal 0 -1 0
    outer loop
      vertex 18 2 9.1
      vertex 18 2 7.3
      vertex 18.7023 2 9.03083
    endloop
  endfacet
  facet normal 0 -1 0
    outer loop
      vertex 17.3112 2 7.16298
      vertex 16.6223 2 8.82597
      vertex 15.9999 2 8.49329
    endloop
  endfacet
  facet normal 0 -1 0
    outer loop
      vertex 18.3512 2 7.26541
      vertex 18.7023 2 9.03083
      vertex 18 2 7.3
    endloop
  endfacet
  facet normal 0 -1 0
    outer loop
      vertex 17 2 6.99664
      vertex 15.9999 2 8.49329
      vertex 15.4544 2 8.04558
    endloop
  endfacet
  facet normal 0 -1 -0
    outer loop
      vertex 18.7023 2 9.03083
      vertex 18.3512 2 7.26541
      vertex 19.3777 2 8.82597
    endloop
  endfacet
  facet normal 0 -1 0
    outer loop
      vertex 16.7272 2 6.77279
      vertex 15.4544 2 8.04558
      vertex 15.0067 2 7.50005
    endloop
  endfacet
  facet normal 0 -1 0
    outer loop
      vertex 18.6888 2 7.16298
      vertex 19.3777 2 8.82597
      vertex 18.3512 2 7.26541
    endloop
  endfacet
  facet normal 0 -1 -0
    outer loop
      vertex 19.3777 2 8.82597
      vertex 18.6888 2 7.16298
      vertex 20.0001 2 8.49329
    endloop
  endfacet
  facet normal 0 -1 0
    outer loop
      vertex 17.2977 2 9.03083
      vertex 17.6488 2 7.26541
      vertex 18 2 7.3
    endloop
  endfacet
  facet normal 0 -1 0
    outer loop
      vertex 16.6223 2 8.82597
      vertex 17.3112 2 7.16298
      vertex 17.6488 2 7.26541
    endloop
  endfacet
  facet normal 0 -1 0
    outer loop
      vertex 15.9999 2 8.49329
      vertex 17 2 6.99664
      vertex 17.3112 2 7.16298
    endloop
  endfacet
  facet normal 0 -1 0
    outer loop
      vertex 16.5034 2 6.50003
      vertex 15.0067 2 7.50005
      vertex 14.674 2 6.87766
    endloop
  endfacet
  facet normal 0 -1 0
    outer loop
      vertex 15.4544 2 8.04558
      vertex 16.7272 2 6.77279
      vertex 17 2 6.99664
    endloop
  endfacet
  facet normal 0 -1 0
    outer loop
      vertex 15.0067 2 7.50005
      vertex 16.5034 2 6.50003
      vertex 16.7272 2 6.77279
    endloop
  endfacet
  facet normal 0 -1 0
    outer loop
      vertex 16.337 2 6.18883
      vertex 14.674 2 6.87766
      vertex 14.4692 2 6.20232
    endloop
  endfacet
  facet normal 0 -1 0
    outer loop
      vertex 14.674 2 6.87766
      vertex 16.337 2 6.18883
      vertex 16.5034 2 6.50003
    endloop
  endfacet
  facet normal 0 -1 0
    outer loop
      vertex 14.4692 2 6.20232
      vertex 16.2346 2 5.85116
      vertex 16.337 2 6.18883
    endloop
  endfacet
  facet normal 0 -1 0
    outer loop
      vertex 14.4 2 5.5
      vertex 16.2346 2 5.85116
      vertex 14.4692 2 6.20232
    endloop
  endfacet
  facet normal 0 -1 0
    outer loop
      vertex 14.4 2 5.5
      vertex 16.2 2 5.5
      vertex 16.2346 2 5.85116
    endloop
  endfacet
  facet normal 0 -1 0
    outer loop
      vertex 14.4 2 5.5
      vertex 16.2346 2 5.14884
      vertex 16.2 2 5.5
    endloop
  endfacet
  facet normal 0 -1 0
    outer loop
      vertex 14.4692 2 4.79768
      vertex 16.2346 2 5.14884
      vertex 14.4 2 5.5
    endloop
  endfacet
  facet normal 0 -1 -0
    outer loop
      vertex 16.2346 2 5.14884
      vertex 14.4692 2 4.79768
      vertex 16.337 2 4.81117
    endloop
  endfacet
  facet normal 0 -1 0
    outer loop
      vertex 14.674 2 4.12234
      vertex 16.337 2 4.81117
      vertex 14.4692 2 4.79768
    endloop
  endfacet
  facet normal 0 -1 -0
    outer loop
      vertex 16.337 2 4.81117
      vertex 14.674 2 4.12234
      vertex 16.5034 2 4.49997
    endloop
  endfacet
  facet normal 0 -1 0
    outer loop
      vertex 15.0067 2 3.49995
      vertex 16.5034 2 4.49997
      vertex 14.674 2 4.12234
    endloop
  endfacet
  facet normal 0 -1 -0
    outer loop
      vertex 16.5034 2 4.49997
      vertex 15.0067 2 3.49995
      vertex 16.7272 2 4.22721
    endloop
  endfacet
  facet normal 0 -1 0
    outer loop
      vertex 15.4544 2 2.95442
      vertex 16.7272 2 4.22721
      vertex 15.0067 2 3.49995
    endloop
  endfacet
  facet normal 0 -1 -0
    outer loop
      vertex 16.7272 2 4.22721
      vertex 15.4544 2 2.95442
      vertex 17 2 4.00336
    endloop
  endfacet
  facet normal 0 -1 -0
    outer loop
      vertex 17 2 4.00336
      vertex 15.9999 2 2.50671
      vertex 17.3112 2 3.83702
    endloop
  endfacet
  facet normal 0 -1 0
    outer loop
      vertex 15.9999 2 2.50671
      vertex 17 2 4.00336
      vertex 15.4544 2 2.95442
    endloop
  endfacet
  facet normal 0 -1 0
    outer loop
      vertex 19 2 6.99664
      vertex 20.0001 2 8.49329
      vertex 18.6888 2 7.16298
    endloop
  endfacet
  facet normal 0 -1 -0
    outer loop
      vertex 20.0001 2 8.49329
      vertex 19 2 6.99664
      vertex 20.5456 2 8.04558
    endloop
  endfacet
  facet normal 0 -1 0
    outer loop
      vertex 19.2728 2 6.77279
      vertex 20.5456 2 8.04558
      vertex 19 2 6.99664
    endloop
  endfacet
  facet normal 0 -1 -0
    outer loop
      vertex 20.5456 2 8.04558
      vertex 19.2728 2 6.77279
      vertex 20.9933 2 7.50005
    endloop
  endfacet
  facet normal 0 -1 0
    outer loop
      vertex 19.4966 2 6.50003
      vertex 20.9933 2 7.50005
      vertex 19.2728 2 6.77279
    endloop
  endfacet
  facet normal 0 -1 -0
    outer loop
      vertex 20.9933 2 7.50005
      vertex 19.4966 2 6.50003
      vertex 21.326 2 6.87766
    endloop
  endfacet
  facet normal 0 -1 0
    outer loop
      vertex 19.663 2 6.18883
      vertex 21.326 2 6.87766
      vertex 19.4966 2 6.50003
    endloop
  endfacet
  facet normal 0 -1 -0
    outer loop
      vertex 21.326 2 6.87766
      vertex 19.663 2 6.18883
      vertex 21.5308 2 6.20232
    endloop
  endfacet
  facet normal 0 -1 0
    outer loop
      vertex 19.7654 2 5.85116
      vertex 21.5308 2 6.20232
      vertex 19.663 2 6.18883
    endloop
  endfacet
  facet normal 0 -1 0
    outer loop
      vertex 19.8 2 5.5
      vertex 21.5308 2 6.20232
      vertex 19.7654 2 5.85116
    endloop
  endfacet
  facet normal 0 -1 0
    outer loop
      vertex 19.8 2 5.5
      vertex 21.6 2 5.5
      vertex 21.5308 2 6.20232
    endloop
  endfacet
  facet normal 0 -1 0
    outer loop
      vertex 19.7654 2 5.14884
      vertex 21.6 2 5.5
      vertex 19.8 2 5.5
    endloop
  endfacet
  facet normal 0 -1 0
    outer loop
      vertex 21.5308 2 4.79768
      vertex 19.7654 2 5.14884
      vertex 19.663 2 4.81117
    endloop
  endfacet
  facet normal 0 -1 0
    outer loop
      vertex 19.7654 2 5.14884
      vertex 21.5308 2 4.79768
      vertex 21.6 2 5.5
    endloop
  endfacet
  facet normal 0 -1 0
    outer loop
      vertex 21.326 2 4.12234
      vertex 19.663 2 4.81117
      vertex 19.4966 2 4.49997
    endloop
  endfacet
  facet normal 0 -1 0
    outer loop
      vertex 20.9933 2 3.49995
      vertex 19.4966 2 4.49997
      vertex 19.2728 2 4.22721
    endloop
  endfacet
  facet normal 0 -1 0
    outer loop
      vertex 19.663 2 4.81117
      vertex 21.326 2 4.12234
      vertex 21.5308 2 4.79768
    endloop
  endfacet
  facet normal 0 -1 0
    outer loop
      vertex 20.5456 2 2.95442
      vertex 19.2728 2 4.22721
      vertex 19 2 4.00336
    endloop
  endfacet
  facet normal 0 -1 0
    outer loop
      vertex 20.0001 2 2.50671
      vertex 19 2 4.00336
      vertex 18.6888 2 3.83702
    endloop
  endfacet
  facet normal 0 -1 0
    outer loop
      vertex 19.3777 2 2.17403
      vertex 18.6888 2 3.83702
      vertex 18.3512 2 3.73459
    endloop
  endfacet
  facet normal 0 -1 0
    outer loop
      vertex 19.4966 2 4.49997
      vertex 20.9933 2 3.49995
      vertex 21.326 2 4.12234
    endloop
  endfacet
  facet normal 0 -1 0
    outer loop
      vertex 18.7023 2 1.96917
      vertex 18.3512 2 3.73459
      vertex 18 2 3.7
    endloop
  endfacet
  facet normal 0 -1 0
    outer loop
      vertex 16.6223 2 2.17403
      vertex 17.3112 2 3.83702
      vertex 15.9999 2 2.50671
    endloop
  endfacet
  facet normal 0 -1 -0
    outer loop
      vertex 17.3112 2 3.83702
      vertex 16.6223 2 2.17403
      vertex 17.6488 2 3.73459
    endloop
  endfacet
  facet normal 0 -1 0
    outer loop
      vertex 19.2728 2 4.22721
      vertex 20.5456 2 2.95442
      vertex 20.9933 2 3.49995
    endloop
  endfacet
  facet normal 0 -1 0
    outer loop
      vertex 17.2977 2 1.96917
      vertex 17.6488 2 3.73459
      vertex 16.6223 2 2.17403
    endloop
  endfacet
  facet normal 0 -1 0
    outer loop
      vertex 19 2 4.00336
      vertex 20.0001 2 2.50671
      vertex 20.5456 2 2.95442
    endloop
  endfacet
  facet normal 0 -1 -0
    outer loop
      vertex 17.6488 2 3.73459
      vertex 17.2977 2 1.96917
      vertex 18 2 3.7
    endloop
  endfacet
  facet normal 0 -1 0
    outer loop
      vertex 18.6888 2 3.83702
      vertex 19.3777 2 2.17403
      vertex 20.0001 2 2.50671
    endloop
  endfacet
  facet normal 0 -1 0
    outer loop
      vertex 18 2 1.9
      vertex 18 2 3.7
      vertex 17.2977 2 1.96917
    endloop
  endfacet
  facet normal 0 -1 0
    outer loop
      vertex 18.3512 2 3.73459
      vertex 18.7023 2 1.96917
      vertex 19.3777 2 2.17403
    endloop
  endfacet
  facet normal 0 -1 0
    outer loop
      vertex 18 2 3.7
      vertex 18 2 1.9
      vertex 18.7023 2 1.96917
    endloop
  endfacet
  facet normal 0.471397 0 -0.881921
    outer loop
      vertex 15.9999 0 8.49329
      vertex 16.6223 2 8.82597
      vertex 16.6223 0 8.82597
    endloop
  endfacet
  facet normal 0.471397 0 -0.881921
    outer loop
      vertex 16.6223 2 8.82597
      vertex 15.9999 0 8.49329
      vertex 15.9999 2 8.49329
    endloop
  endfacet
  facet normal -0.0980164 0 0.995185
    outer loop
      vertex 18 2 1.9
      vertex 18.7023 0 1.96917
      vertex 18.7023 2 1.96917
    endloop
  endfacet
  facet normal -0.0980164 0 0.995185
    outer loop
      vertex 18.7023 0 1.96917
      vertex 18 2 1.9
      vertex 18 0 1.9
    endloop
  endfacet
  facet normal 0.0980164 0 0.995185
    outer loop
      vertex 17.2977 2 1.96917
      vertex 18 0 1.9
      vertex 18 2 1.9
    endloop
  endfacet
  facet normal 0.0980164 0 0.995185
    outer loop
      vertex 18 0 1.9
      vertex 17.2977 2 1.96917
      vertex 17.2977 0 1.96917
    endloop
  endfacet
  facet normal -0.956965 0 0.290204
    outer loop
      vertex 83.663 2 4.81117
      vertex 83.7654 11 5.14884
      vertex 83.663 11 4.81117
    endloop
  endfacet
  facet normal -0.956965 0 0.290204
    outer loop
      vertex 83.7654 11 5.14884
      vertex 83.663 2 4.81117
      vertex 83.7654 2 5.14884
    endloop
  endfacet
  facet normal -0.995181 0 0.0980558
    outer loop
      vertex 83.7654 2 5.14884
      vertex 83.8 11 5.5
      vertex 83.7654 11 5.14884
    endloop
  endfacet
  facet normal -0.995181 0 0.0980558
    outer loop
      vertex 83.8 11 5.5
      vertex 83.7654 2 5.14884
      vertex 83.8 2 5.5
    endloop
  endfacet
  facet normal -0.88185 0 0.471529
    outer loop
      vertex 83.4966 2 4.49997
      vertex 83.663 11 4.81117
      vertex 83.4966 11 4.49997
    endloop
  endfacet
  facet normal -0.88185 0 0.471529
    outer loop
      vertex 83.663 11 4.81117
      vertex 83.4966 2 4.49997
      vertex 83.663 2 4.81117
    endloop
  endfacet
  facet normal -0.995181 0 -0.0980558
    outer loop
      vertex 83.8 2 5.5
      vertex 83.7654 11 5.85116
      vertex 83.8 11 5.5
    endloop
  endfacet
  facet normal -0.995181 -0 -0.0980558
    outer loop
      vertex 83.7654 11 5.85116
      vertex 83.8 2 5.5
      vertex 83.7654 2 5.85116
    endloop
  endfacet
  facet normal 0.471397 0 -0.881921
    outer loop
      vertex 81 2 6.99664
      vertex 81.3112 11 7.16298
      vertex 81.3112 2 7.16298
    endloop
  endfacet
  facet normal 0.471397 0 -0.881921
    outer loop
      vertex 81.3112 11 7.16298
      vertex 81 2 6.99664
      vertex 81 11 6.99664
    endloop
  endfacet
  facet normal -0.63434 0 -0.773054
    outer loop
      vertex 83 2 6.99664
      vertex 83.2728 11 6.77279
      vertex 83.2728 2 6.77279
    endloop
  endfacet
  facet normal -0.63434 0 -0.773054
    outer loop
      vertex 83.2728 11 6.77279
      vertex 83 2 6.99664
      vertex 83 11 6.99664
    endloop
  endfacet
  facet normal -0.773078 0 0.634311
    outer loop
      vertex 83.2728 2 4.22721
      vertex 83.4966 11 4.49997
      vertex 83.2728 11 4.22721
    endloop
  endfacet
  facet normal -0.773078 0 0.634311
    outer loop
      vertex 83.4966 11 4.49997
      vertex 83.2728 2 4.22721
      vertex 83.4966 2 4.49997
    endloop
  endfacet
  facet normal -0.956965 0 -0.290204
    outer loop
      vertex 83.7654 2 5.85116
      vertex 83.663 11 6.18883
      vertex 83.7654 11 5.85116
    endloop
  endfacet
  facet normal -0.956965 -0 -0.290204
    outer loop
      vertex 83.663 11 6.18883
      vertex 83.7654 2 5.85116
      vertex 83.663 2 6.18883
    endloop
  endfacet
  facet normal 0.773078 0 -0.634311
    outer loop
      vertex 80.7272 2 6.77279
      vertex 80.5034 11 6.50003
      vertex 80.7272 11 6.77279
    endloop
  endfacet
  facet normal 0.773078 0 -0.634311
    outer loop
      vertex 80.5034 11 6.50003
      vertex 80.7272 2 6.77279
      vertex 80.5034 2 6.50003
    endloop
  endfacet
  facet normal 0.63434 0 0.773054
    outer loop
      vertex 80.7272 11 4.22721
      vertex 81 2 4.00336
      vertex 81 11 4.00336
    endloop
  endfacet
  facet normal 0.63434 0 0.773054
    outer loop
      vertex 81 2 4.00336
      vertex 80.7272 11 4.22721
      vertex 80.7272 2 4.22721
    endloop
  endfacet
  facet normal -0.471397 0 -0.881921
    outer loop
      vertex 82.6888 2 7.16298
      vertex 83 11 6.99664
      vertex 83 2 6.99664
    endloop
  endfacet
  facet normal -0.471397 0 -0.881921
    outer loop
      vertex 83 11 6.99664
      vertex 82.6888 2 7.16298
      vertex 82.6888 11 7.16298
    endloop
  endfacet
  facet normal 0.471397 0 0.881921
    outer loop
      vertex 81 11 4.00336
      vertex 81.3112 2 3.83702
      vertex 81.3112 11 3.83702
    endloop
  endfacet
  facet normal 0.471397 0 0.881921
    outer loop
      vertex 81.3112 2 3.83702
      vertex 81 11 4.00336
      vertex 81 2 4.00336
    endloop
  endfacet
  facet normal -0.290337 0 -0.956924
    outer loop
      vertex 82.3512 2 7.26541
      vertex 82.6888 11 7.16298
      vertex 82.6888 2 7.16298
    endloop
  endfacet
  facet normal -0.290337 0 -0.956924
    outer loop
      vertex 82.6888 11 7.16298
      vertex 82.3512 2 7.26541
      vertex 82.3512 11 7.26541
    endloop
  endfacet
  facet normal -0.471397 0 0.881921
    outer loop
      vertex 82.6888 11 3.83702
      vertex 83 2 4.00336
      vertex 83 11 4.00336
    endloop
  endfacet
  facet normal -0.471397 0 0.881921
    outer loop
      vertex 83 2 4.00336
      vertex 82.6888 11 3.83702
      vertex 82.6888 2 3.83702
    endloop
  endfacet
  facet normal 0.290337 0 0.956924
    outer loop
      vertex 81.3112 11 3.83702
      vertex 81.6488 2 3.73459
      vertex 81.6488 11 3.73459
    endloop
  endfacet
  facet normal 0.290337 0 0.956924
    outer loop
      vertex 81.6488 2 3.73459
      vertex 81.3112 11 3.83702
      vertex 81.3112 2 3.83702
    endloop
  endfacet
  facet normal 0.88185 0 -0.471529
    outer loop
      vertex 80.5034 2 6.50003
      vertex 80.337 11 6.18883
      vertex 80.5034 11 6.50003
    endloop
  endfacet
  facet normal 0.88185 0 -0.471529
    outer loop
      vertex 80.337 11 6.18883
      vertex 80.5034 2 6.50003
      vertex 80.337 2 6.18883
    endloop
  endfacet
  facet normal -0.0980166 0 0.995185
    outer loop
      vertex 82 11 3.7
      vertex 82.3512 2 3.73459
      vertex 82.3512 11 3.73459
    endloop
  endfacet
  facet normal -0.0980166 0 0.995185
    outer loop
      vertex 82.3512 2 3.73459
      vertex 82 11 3.7
      vertex 82 2 3.7
    endloop
  endfacet
  facet normal 0.63434 0 -0.773054
    outer loop
      vertex 80.7272 2 6.77279
      vertex 81 11 6.99664
      vertex 81 2 6.99664
    endloop
  endfacet
  facet normal 0.63434 0 -0.773054
    outer loop
      vertex 81 11 6.99664
      vertex 80.7272 2 6.77279
      vertex 80.7272 11 6.77279
    endloop
  endfacet
  facet normal -0.290337 0 0.956924
    outer loop
      vertex 82.3512 11 3.73459
      vertex 82.6888 2 3.83702
      vertex 82.6888 11 3.83702
    endloop
  endfacet
  facet normal -0.290337 0 0.956924
    outer loop
      vertex 82.6888 2 3.83702
      vertex 82.3512 11 3.73459
      vertex 82.3512 2 3.73459
    endloop
  endfacet
  facet normal 0.88185 -0 0.471529
    outer loop
      vertex 80.337 2 4.81117
      vertex 80.5034 11 4.49997
      vertex 80.337 11 4.81117
    endloop
  endfacet
  facet normal 0.88185 0 0.471529
    outer loop
      vertex 80.5034 11 4.49997
      vertex 80.337 2 4.81117
      vertex 80.5034 2 4.49997
    endloop
  endfacet
  facet normal -0.88185 0 -0.471529
    outer loop
      vertex 83.663 2 6.18883
      vertex 83.4966 11 6.50003
      vertex 83.663 11 6.18883
    endloop
  endfacet
  facet normal -0.88185 -0 -0.471529
    outer loop
      vertex 83.4966 11 6.50003
      vertex 83.663 2 6.18883
      vertex 83.4966 2 6.50003
    endloop
  endfacet
  facet normal -0.773078 0 -0.634311
    outer loop
      vertex 83.4966 2 6.50003
      vertex 83.2728 11 6.77279
      vertex 83.4966 11 6.50003
    endloop
  endfacet
  facet normal -0.773078 -0 -0.634311
    outer loop
      vertex 83.2728 11 6.77279
      vertex 83.4966 2 6.50003
      vertex 83.2728 2 6.77279
    endloop
  endfacet
  facet normal -0.63434 0 0.773054
    outer loop
      vertex 83 11 4.00336
      vertex 83.2728 2 4.22721
      vertex 83.2728 11 4.22721
    endloop
  endfacet
  facet normal -0.63434 0 0.773054
    outer loop
      vertex 83.2728 2 4.22721
      vertex 83 11 4.00336
      vertex 83 2 4.00336
    endloop
  endfacet
  facet normal -0.0980166 0 -0.995185
    outer loop
      vertex 82 2 7.3
      vertex 82.3512 11 7.26541
      vertex 82.3512 2 7.26541
    endloop
  endfacet
  facet normal -0.0980166 0 -0.995185
    outer loop
      vertex 82.3512 11 7.26541
      vertex 82 2 7.3
      vertex 82 11 7.3
    endloop
  endfacet
  facet normal 0.956965 0 -0.290204
    outer loop
      vertex 80.337 2 6.18883
      vertex 80.2346 11 5.85116
      vertex 80.337 11 6.18883
    endloop
  endfacet
  facet normal 0.956965 0 -0.290204
    outer loop
      vertex 80.2346 11 5.85116
      vertex 80.337 2 6.18883
      vertex 80.2346 2 5.85116
    endloop
  endfacet
  facet normal 0.995181 -0 0.0980558
    outer loop
      vertex 80.2 2 5.5
      vertex 80.2346 11 5.14884
      vertex 80.2 11 5.5
    endloop
  endfacet
  facet normal 0.995181 0 0.0980558
    outer loop
      vertex 80.2346 11 5.14884
      vertex 80.2 2 5.5
      vertex 80.2346 2 5.14884
    endloop
  endfacet
  facet normal 0.956965 -0 0.290204
    outer loop
      vertex 80.2346 2 5.14884
      vertex 80.337 11 4.81117
      vertex 80.2346 11 5.14884
    endloop
  endfacet
  facet normal 0.956965 0 0.290204
    outer loop
      vertex 80.337 11 4.81117
      vertex 80.2346 2 5.14884
      vertex 80.337 2 4.81117
    endloop
  endfacet
  facet normal 0.0980166 0 0.995185
    outer loop
      vertex 81.6488 11 3.73459
      vertex 82 2 3.7
      vertex 82 11 3.7
    endloop
  endfacet
  facet normal 0.0980166 0 0.995185
    outer loop
      vertex 82 2 3.7
      vertex 81.6488 11 3.73459
      vertex 81.6488 2 3.73459
    endloop
  endfacet
  facet normal 0.995181 0 -0.0980558
    outer loop
      vertex 80.2346 2 5.85116
      vertex 80.2 11 5.5
      vertex 80.2346 11 5.85116
    endloop
  endfacet
  facet normal 0.995181 0 -0.0980558
    outer loop
      vertex 80.2 11 5.5
      vertex 80.2346 2 5.85116
      vertex 80.2 2 5.5
    endloop
  endfacet
  facet normal 0.0980166 0 -0.995185
    outer loop
      vertex 81.6488 2 7.26541
      vertex 82 11 7.3
      vertex 82 2 7.3
    endloop
  endfacet
  facet normal 0.0980166 0 -0.995185
    outer loop
      vertex 82 11 7.3
      vertex 81.6488 2 7.26541
      vertex 81.6488 11 7.26541
    endloop
  endfacet
  facet normal 0.290337 0 -0.956924
    outer loop
      vertex 81.3112 2 7.16298
      vertex 81.6488 11 7.26541
      vertex 81.6488 2 7.26541
    endloop
  endfacet
  facet normal 0.290337 0 -0.956924
    outer loop
      vertex 81.6488 11 7.26541
      vertex 81.3112 2 7.16298
      vertex 81.3112 11 7.16298
    endloop
  endfacet
  facet normal 0.773078 -0 0.634311
    outer loop
      vertex 80.5034 2 4.49997
      vertex 80.7272 11 4.22721
      vertex 80.5034 11 4.49997
    endloop
  endfacet
  facet normal 0.773078 0 0.634311
    outer loop
      vertex 80.7272 11 4.22721
      vertex 80.5034 2 4.49997
      vertex 80.7272 2 4.22721
    endloop
  endfacet
  facet normal -0.956965 0 0.290204
    outer loop
      vertex 85.326 0 4.12234
      vertex 85.5308 2 4.79768
      vertex 85.326 2 4.12234
    endloop
  endfacet
  facet normal -0.956965 0 0.290204
    outer loop
      vertex 85.5308 2 4.79768
      vertex 85.326 0 4.12234
      vertex 85.5308 0 4.79768
    endloop
  endfacet
  facet normal -0.995181 0 0.0980558
    outer loop
      vertex 85.5308 0 4.79768
      vertex 85.6 2 5.5
      vertex 85.5308 2 4.79768
    endloop
  endfacet
  facet normal -0.995181 0 0.0980558
    outer loop
      vertex 85.6 2 5.5
      vertex 85.5308 0 4.79768
      vertex 85.6 0 5.5
    endloop
  endfacet
  facet normal -0.881906 0 0.471425
    outer loop
      vertex 84.9933 0 3.49995
      vertex 85.326 2 4.12234
      vertex 84.9933 2 3.49995
    endloop
  endfacet
  facet normal -0.881906 0 0.471425
    outer loop
      vertex 85.326 2 4.12234
      vertex 84.9933 0 3.49995
      vertex 85.326 0 4.12234
    endloop
  endfacet
  facet normal 0.956965 -0 0.290204
    outer loop
      vertex 78.4692 0 4.79768
      vertex 78.674 2 4.12234
      vertex 78.4692 2 4.79768
    endloop
  endfacet
  facet normal 0.956965 0 0.290204
    outer loop
      vertex 78.674 2 4.12234
      vertex 78.4692 0 4.79768
      vertex 78.674 0 4.12234
    endloop
  endfacet
  facet normal -0.0980164 0 -0.995185
    outer loop
      vertex 82 0 9.1
      vertex 82.7023 2 9.03083
      vertex 82.7023 0 9.03083
    endloop
  endfacet
  facet normal -0.0980164 0 -0.995185
    outer loop
      vertex 82.7023 2 9.03083
      vertex 82 0 9.1
      vertex 82 2 9.1
    endloop
  endfacet
  facet normal 0.995181 -0 0.0980558
    outer loop
      vertex 78.4 0 5.5
      vertex 78.4692 2 4.79768
      vertex 78.4 2 5.5
    endloop
  endfacet
  facet normal 0.995181 0 0.0980558
    outer loop
      vertex 78.4692 2 4.79768
      vertex 78.4 0 5.5
      vertex 78.4692 0 4.79768
    endloop
  endfacet
  facet normal -0.995181 0 -0.0980558
    outer loop
      vertex 85.6 0 5.5
      vertex 85.5308 2 6.20232
      vertex 85.6 2 5.5
    endloop
  endfacet
  facet normal -0.995181 -0 -0.0980558
    outer loop
      vertex 85.5308 2 6.20232
      vertex 85.6 0 5.5
      vertex 85.5308 0 6.20232
    endloop
  endfacet
  facet normal 0.634418 0 0.77299
    outer loop
      vertex 79.4544 2 2.95442
      vertex 79.9999 0 2.50671
      vertex 79.9999 2 2.50671
    endloop
  endfacet
  facet normal 0.634418 0 0.77299
    outer loop
      vertex 79.9999 0 2.50671
      vertex 79.4544 2 2.95442
      vertex 79.4544 0 2.95442
    endloop
  endfacet
  facet normal -0.773014 0 0.634389
    outer loop
      vertex 84.5456 0 2.95442
      vertex 84.9933 2 3.49995
      vertex 84.5456 2 2.95442
    endloop
  endfacet
  facet normal -0.773014 0 0.634389
    outer loop
      vertex 84.9933 2 3.49995
      vertex 84.5456 0 2.95442
      vertex 84.9933 0 3.49995
    endloop
  endfacet
  facet normal -0.773014 0 -0.634389
    outer loop
      vertex 84.9933 0 7.50005
      vertex 84.5456 2 8.04558
      vertex 84.9933 2 7.50005
    endloop
  endfacet
  facet normal -0.773014 -0 -0.634389
    outer loop
      vertex 84.5456 2 8.04558
      vertex 84.9933 0 7.50005
      vertex 84.5456 0 8.04558
    endloop
  endfacet
  facet normal 0.956965 0 -0.290204
    outer loop
      vertex 78.674 0 6.87766
      vertex 78.4692 2 6.20232
      vertex 78.674 2 6.87766
    endloop
  endfacet
  facet normal 0.956965 0 -0.290204
    outer loop
      vertex 78.4692 2 6.20232
      vertex 78.674 0 6.87766
      vertex 78.4692 0 6.20232
    endloop
  endfacet
  facet normal -0.881906 0 -0.471425
    outer loop
      vertex 85.326 0 6.87766
      vertex 84.9933 2 7.50005
      vertex 85.326 2 6.87766
    endloop
  endfacet
  facet normal -0.881906 -0 -0.471425
    outer loop
      vertex 84.9933 2 7.50005
      vertex 85.326 0 6.87766
      vertex 84.9933 0 7.50005
    endloop
  endfacet
  facet normal -0.956965 0 -0.290204
    outer loop
      vertex 85.5308 0 6.20232
      vertex 85.326 2 6.87766
      vertex 85.5308 2 6.20232
    endloop
  endfacet
  facet normal -0.956965 -0 -0.290204
    outer loop
      vertex 85.326 2 6.87766
      vertex 85.5308 0 6.20232
      vertex 85.326 0 6.87766
    endloop
  endfacet
  facet normal 0.995181 0 -0.0980558
    outer loop
      vertex 78.4692 0 6.20232
      vertex 78.4 2 5.5
      vertex 78.4692 2 6.20232
    endloop
  endfacet
  facet normal 0.995181 0 -0.0980558
    outer loop
      vertex 78.4 2 5.5
      vertex 78.4692 0 6.20232
      vertex 78.4 0 5.5
    endloop
  endfacet
  facet normal -0.634418 0 -0.77299
    outer loop
      vertex 84.0001 0 8.49329
      vertex 84.5456 2 8.04558
      vertex 84.5456 0 8.04558
    endloop
  endfacet
  facet normal -0.634418 0 -0.77299
    outer loop
      vertex 84.5456 2 8.04558
      vertex 84.0001 0 8.49329
      vertex 84.0001 2 8.49329
    endloop
  endfacet
  facet normal 0.634418 0 -0.77299
    outer loop
      vertex 79.4544 0 8.04558
      vertex 79.9999 2 8.49329
      vertex 79.9999 0 8.49329
    endloop
  endfacet
  facet normal 0.634418 0 -0.77299
    outer loop
      vertex 79.9999 2 8.49329
      vertex 79.4544 0 8.04558
      vertex 79.4544 2 8.04558
    endloop
  endfacet
  facet normal 0.881906 -0 0.471425
    outer loop
      vertex 78.674 0 4.12234
      vertex 79.0067 2 3.49995
      vertex 78.674 2 4.12234
    endloop
  endfacet
  facet normal 0.881906 0 0.471425
    outer loop
      vertex 79.0067 2 3.49995
      vertex 78.674 0 4.12234
      vertex 79.0067 0 3.49995
    endloop
  endfacet
  facet normal -0.290258 0 0.956948
    outer loop
      vertex 82.7023 2 1.96917
      vertex 83.3777 0 2.17403
      vertex 83.3777 2 2.17403
    endloop
  endfacet
  facet normal -0.290258 0 0.956948
    outer loop
      vertex 83.3777 0 2.17403
      vertex 82.7023 2 1.96917
      vertex 82.7023 0 1.96917
    endloop
  endfacet
  facet normal 0.471397 0 0.881921
    outer loop
      vertex 79.9999 2 2.50671
      vertex 80.6223 0 2.17403
      vertex 80.6223 2 2.17403
    endloop
  endfacet
  facet normal 0.471397 0 0.881921
    outer loop
      vertex 80.6223 0 2.17403
      vertex 79.9999 2 2.50671
      vertex 79.9999 0 2.50671
    endloop
  endfacet
  facet normal 0.773014 0 -0.634389
    outer loop
      vertex 79.4544 0 8.04558
      vertex 79.0067 2 7.50005
      vertex 79.4544 2 8.04558
    endloop
  endfacet
  facet normal 0.773014 0 -0.634389
    outer loop
      vertex 79.0067 2 7.50005
      vertex 79.4544 0 8.04558
      vertex 79.0067 0 7.50005
    endloop
  endfacet
  facet normal 0.290258 0 -0.956948
    outer loop
      vertex 80.6223 0 8.82597
      vertex 81.2977 2 9.03083
      vertex 81.2977 0 9.03083
    endloop
  endfacet
  facet normal 0.290258 0 -0.956948
    outer loop
      vertex 81.2977 2 9.03083
      vertex 80.6223 0 8.82597
      vertex 80.6223 2 8.82597
    endloop
  endfacet
  facet normal 0.290258 0 0.956948
    outer loop
      vertex 80.6223 2 2.17403
      vertex 81.2977 0 1.96917
      vertex 81.2977 2 1.96917
    endloop
  endfacet
  facet normal 0.290258 0 0.956948
    outer loop
      vertex 81.2977 0 1.96917
      vertex 80.6223 2 2.17403
      vertex 80.6223 0 2.17403
    endloop
  endfacet
  facet normal -0.290258 0 -0.956948
    outer loop
      vertex 82.7023 0 9.03083
      vertex 83.3777 2 8.82597
      vertex 83.3777 0 8.82597
    endloop
  endfacet
  facet normal -0.290258 0 -0.956948
    outer loop
      vertex 83.3777 2 8.82597
      vertex 82.7023 0 9.03083
      vertex 82.7023 2 9.03083
    endloop
  endfacet
  facet normal -0.471397 0 -0.881921
    outer loop
      vertex 83.3777 0 8.82597
      vertex 84.0001 2 8.49329
      vertex 84.0001 0 8.49329
    endloop
  endfacet
  facet normal -0.471397 0 -0.881921
    outer loop
      vertex 84.0001 2 8.49329
      vertex 83.3777 0 8.82597
      vertex 83.3777 2 8.82597
    endloop
  endfacet
  facet normal -0.634418 0 0.77299
    outer loop
      vertex 84.0001 2 2.50671
      vertex 84.5456 0 2.95442
      vertex 84.5456 2 2.95442
    endloop
  endfacet
  facet normal -0.634418 0 0.77299
    outer loop
      vertex 84.5456 0 2.95442
      vertex 84.0001 2 2.50671
      vertex 84.0001 0 2.50671
    endloop
  endfacet
  facet normal -0.471397 0 0.881921
    outer loop
      vertex 83.3777 2 2.17403
      vertex 84.0001 0 2.50671
      vertex 84.0001 2 2.50671
    endloop
  endfacet
  facet normal -0.471397 0 0.881921
    outer loop
      vertex 84.0001 0 2.50671
      vertex 83.3777 2 2.17403
      vertex 83.3777 0 2.17403
    endloop
  endfacet
  facet normal 0.773014 -0 0.634389
    outer loop
      vertex 79.0067 0 3.49995
      vertex 79.4544 2 2.95442
      vertex 79.0067 2 3.49995
    endloop
  endfacet
  facet normal 0.773014 0 0.634389
    outer loop
      vertex 79.4544 2 2.95442
      vertex 79.0067 0 3.49995
      vertex 79.4544 0 2.95442
    endloop
  endfacet
  facet normal 0.881906 0 -0.471425
    outer loop
      vertex 79.0067 0 7.50005
      vertex 78.674 2 6.87766
      vertex 79.0067 2 7.50005
    endloop
  endfacet
  facet normal 0.881906 0 -0.471425
    outer loop
      vertex 78.674 2 6.87766
      vertex 79.0067 0 7.50005
      vertex 78.674 0 6.87766
    endloop
  endfacet
  facet normal 0.0980164 0 -0.995185
    outer loop
      vertex 81.2977 0 9.03083
      vertex 82 2 9.1
      vertex 82 0 9.1
    endloop
  endfacet
  facet normal 0.0980164 0 -0.995185
    outer loop
      vertex 82 2 9.1
      vertex 81.2977 0 9.03083
      vertex 81.2977 2 9.03083
    endloop
  endfacet
  facet normal 0 -1 0
    outer loop
      vertex 82 2 7.3
      vertex 82 2 9.1
      vertex 81.2977 2 9.03083
    endloop
  endfacet
  facet normal 0 -1 0
    outer loop
      vertex 81.6488 2 7.26541
      vertex 81.2977 2 9.03083
      vertex 80.6223 2 8.82597
    endloop
  endfacet
  facet normal 0 -1 0
    outer loop
      vertex 82 2 9.1
      vertex 82 2 7.3
      vertex 82.7023 2 9.03083
    endloop
  endfacet
  facet normal 0 -1 0
    outer loop
      vertex 81.3112 2 7.16298
      vertex 80.6223 2 8.82597
      vertex 79.9999 2 8.49329
    endloop
  endfacet
  facet normal 0 -1 0
    outer loop
      vertex 82.3512 2 7.26541
      vertex 82.7023 2 9.03083
      vertex 82 2 7.3
    endloop
  endfacet
  facet normal 0 -1 0
    outer loop
      vertex 81 2 6.99664
      vertex 79.9999 2 8.49329
      vertex 79.4544 2 8.04558
    endloop
  endfacet
  facet normal 0 -1 -0
    outer loop
      vertex 82.7023 2 9.03083
      vertex 82.3512 2 7.26541
      vertex 83.3777 2 8.82597
    endloop
  endfacet
  facet normal 0 -1 0
    outer loop
      vertex 80.7272 2 6.77279
      vertex 79.4544 2 8.04558
      vertex 79.0067 2 7.50005
    endloop
  endfacet
  facet normal 0 -1 0
    outer loop
      vertex 82.6888 2 7.16298
      vertex 83.3777 2 8.82597
      vertex 82.3512 2 7.26541
    endloop
  endfacet
  facet normal 0 -1 -0
    outer loop
      vertex 83.3777 2 8.82597
      vertex 82.6888 2 7.16298
      vertex 84.0001 2 8.49329
    endloop
  endfacet
  facet normal 0 -1 0
    outer loop
      vertex 81.2977 2 9.03083
      vertex 81.6488 2 7.26541
      vertex 82 2 7.3
    endloop
  endfacet
  facet normal 0 -1 0
    outer loop
      vertex 80.6223 2 8.82597
      vertex 81.3112 2 7.16298
      vertex 81.6488 2 7.26541
    endloop
  endfacet
  facet normal 0 -1 0
    outer loop
      vertex 79.9999 2 8.49329
      vertex 81 2 6.99664
      vertex 81.3112 2 7.16298
    endloop
  endfacet
  facet normal 0 -1 0
    outer loop
      vertex 80.5034 2 6.50003
      vertex 79.0067 2 7.50005
      vertex 78.674 2 6.87766
    endloop
  endfacet
  facet normal 0 -1 0
    outer loop
      vertex 79.4544 2 8.04558
      vertex 80.7272 2 6.77279
      vertex 81 2 6.99664
    endloop
  endfacet
  facet normal 0 -1 0
    outer loop
      vertex 79.0067 2 7.50005
      vertex 80.5034 2 6.50003
      vertex 80.7272 2 6.77279
    endloop
  endfacet
  facet normal 0 -1 0
    outer loop
      vertex 80.337 2 6.18883
      vertex 78.674 2 6.87766
      vertex 78.4692 2 6.20232
    endloop
  endfacet
  facet normal 0 -1 0
    outer loop
      vertex 78.674 2 6.87766
      vertex 80.337 2 6.18883
      vertex 80.5034 2 6.50003
    endloop
  endfacet
  facet normal 0 -1 0
    outer loop
      vertex 78.4692 2 6.20232
      vertex 80.2346 2 5.85116
      vertex 80.337 2 6.18883
    endloop
  endfacet
  facet normal 0 -1 0
    outer loop
      vertex 78.4 2 5.5
      vertex 80.2346 2 5.85116
      vertex 78.4692 2 6.20232
    endloop
  endfacet
  facet normal 0 -1 0
    outer loop
      vertex 78.4 2 5.5
      vertex 80.2 2 5.5
      vertex 80.2346 2 5.85116
    endloop
  endfacet
  facet normal 0 -1 0
    outer loop
      vertex 78.4 2 5.5
      vertex 80.2346 2 5.14884
      vertex 80.2 2 5.5
    endloop
  endfacet
  facet normal 0 -1 0
    outer loop
      vertex 78.4692 2 4.79768
      vertex 80.2346 2 5.14884
      vertex 78.4 2 5.5
    endloop
  endfacet
  facet normal 0 -1 -0
    outer loop
      vertex 80.2346 2 5.14884
      vertex 78.4692 2 4.79768
      vertex 80.337 2 4.81117
    endloop
  endfacet
  facet normal 0 -1 0
    outer loop
      vertex 78.674 2 4.12234
      vertex 80.337 2 4.81117
      vertex 78.4692 2 4.79768
    endloop
  endfacet
  facet normal 0 -1 -0
    outer loop
      vertex 80.337 2 4.81117
      vertex 78.674 2 4.12234
      vertex 80.5034 2 4.49997
    endloop
  endfacet
  facet normal 0 -1 0
    outer loop
      vertex 79.0067 2 3.49995
      vertex 80.5034 2 4.49997
      vertex 78.674 2 4.12234
    endloop
  endfacet
  facet normal 0 -1 -0
    outer loop
      vertex 80.5034 2 4.49997
      vertex 79.0067 2 3.49995
      vertex 80.7272 2 4.22721
    endloop
  endfacet
  facet normal 0 -1 0
    outer loop
      vertex 79.4544 2 2.95442
      vertex 80.7272 2 4.22721
      vertex 79.0067 2 3.49995
    endloop
  endfacet
  facet normal 0 -1 -0
    outer loop
      vertex 80.7272 2 4.22721
      vertex 79.4544 2 2.95442
      vertex 81 2 4.00336
    endloop
  endfacet
  facet normal 0 -1 -0
    outer loop
      vertex 81 2 4.00336
      vertex 79.9999 2 2.50671
      vertex 81.3112 2 3.83702
    endloop
  endfacet
  facet normal 0 -1 0
    outer loop
      vertex 79.9999 2 2.50671
      vertex 81 2 4.00336
      vertex 79.4544 2 2.95442
    endloop
  endfacet
  facet normal 0 -1 0
    outer loop
      vertex 83 2 6.99664
      vertex 84.0001 2 8.49329
      vertex 82.6888 2 7.16298
    endloop
  endfacet
  facet normal 0 -1 -0
    outer loop
      vertex 84.0001 2 8.49329
      vertex 83 2 6.99664
      vertex 84.5456 2 8.04558
    endloop
  endfacet
  facet normal 0 -1 0
    outer loop
      vertex 83.2728 2 6.77279
      vertex 84.5456 2 8.04558
      vertex 83 2 6.99664
    endloop
  endfacet
  facet normal 0 -1 -0
    outer loop
      vertex 84.5456 2 8.04558
      vertex 83.2728 2 6.77279
      vertex 84.9933 2 7.50005
    endloop
  endfacet
  facet normal 0 -1 0
    outer loop
      vertex 83.4966 2 6.50003
      vertex 84.9933 2 7.50005
      vertex 83.2728 2 6.77279
    endloop
  endfacet
  facet normal 0 -1 -0
    outer loop
      vertex 84.9933 2 7.50005
      vertex 83.4966 2 6.50003
      vertex 85.326 2 6.87766
    endloop
  endfacet
  facet normal 0 -1 0
    outer loop
      vertex 83.663 2 6.18883
      vertex 85.326 2 6.87766
      vertex 83.4966 2 6.50003
    endloop
  endfacet
  facet normal 0 -1 -0
    outer loop
      vertex 85.326 2 6.87766
      vertex 83.663 2 6.18883
      vertex 85.5308 2 6.20232
    endloop
  endfacet
  facet normal 0 -1 0
    outer loop
      vertex 83.7654 2 5.85116
      vertex 85.5308 2 6.20232
      vertex 83.663 2 6.18883
    endloop
  endfacet
  facet normal 0 -1 0
    outer loop
      vertex 83.8 2 5.5
      vertex 85.5308 2 6.20232
      vertex 83.7654 2 5.85116
    endloop
  endfacet
  facet normal 0 -1 0
    outer loop
      vertex 83.8 2 5.5
      vertex 85.6 2 5.5
      vertex 85.5308 2 6.20232
    endloop
  endfacet
  facet normal 0 -1 0
    outer loop
      vertex 83.7654 2 5.14884
      vertex 85.6 2 5.5
      vertex 83.8 2 5.5
    endloop
  endfacet
  facet normal 0 -1 0
    outer loop
      vertex 85.5308 2 4.79768
      vertex 83.7654 2 5.14884
      vertex 83.663 2 4.81117
    endloop
  endfacet
  facet normal 0 -1 0
    outer loop
      vertex 83.7654 2 5.14884
      vertex 85.5308 2 4.79768
      vertex 85.6 2 5.5
    endloop
  endfacet
  facet normal 0 -1 0
    outer loop
      vertex 85.326 2 4.12234
      vertex 83.663 2 4.81117
      vertex 83.4966 2 4.49997
    endloop
  endfacet
  facet normal 0 -1 0
    outer loop
      vertex 84.9933 2 3.49995
      vertex 83.4966 2 4.49997
      vertex 83.2728 2 4.22721
    endloop
  endfacet
  facet normal 0 -1 0
    outer loop
      vertex 83.663 2 4.81117
      vertex 85.326 2 4.12234
      vertex 85.5308 2 4.79768
    endloop
  endfacet
  facet normal 0 -1 0
    outer loop
      vertex 84.5456 2 2.95442
      vertex 83.2728 2 4.22721
      vertex 83 2 4.00336
    endloop
  endfacet
  facet normal 0 -1 0
    outer loop
      vertex 84.0001 2 2.50671
      vertex 83 2 4.00336
      vertex 82.6888 2 3.83702
    endloop
  endfacet
  facet normal 0 -1 0
    outer loop
      vertex 83.3777 2 2.17403
      vertex 82.6888 2 3.83702
      vertex 82.3512 2 3.73459
    endloop
  endfacet
  facet normal 0 -1 0
    outer loop
      vertex 83.4966 2 4.49997
      vertex 84.9933 2 3.49995
      vertex 85.326 2 4.12234
    endloop
  endfacet
  facet normal 0 -1 0
    outer loop
      vertex 82.7023 2 1.96917
      vertex 82.3512 2 3.73459
      vertex 82 2 3.7
    endloop
  endfacet
  facet normal 0 -1 0
    outer loop
      vertex 80.6223 2 2.17403
      vertex 81.3112 2 3.83702
      vertex 79.9999 2 2.50671
    endloop
  endfacet
  facet normal 0 -1 -0
    outer loop
      vertex 81.3112 2 3.83702
      vertex 80.6223 2 2.17403
      vertex 81.6488 2 3.73459
    endloop
  endfacet
  facet normal 0 -1 0
    outer loop
      vertex 83.2728 2 4.22721
      vertex 84.5456 2 2.95442
      vertex 84.9933 2 3.49995
    endloop
  endfacet
  facet normal 0 -1 0
    outer loop
      vertex 81.2977 2 1.96917
      vertex 81.6488 2 3.73459
      vertex 80.6223 2 2.17403
    endloop
  endfacet
  facet normal 0 -1 0
    outer loop
      vertex 83 2 4.00336
      vertex 84.0001 2 2.50671
      vertex 84.5456 2 2.95442
    endloop
  endfacet
  facet normal 0 -1 -0
    outer loop
      vertex 81.6488 2 3.73459
      vertex 81.2977 2 1.96917
      vertex 82 2 3.7
    endloop
  endfacet
  facet normal 0 -1 0
    outer loop
      vertex 82.6888 2 3.83702
      vertex 83.3777 2 2.17403
      vertex 84.0001 2 2.50671
    endloop
  endfacet
  facet normal 0 -1 0
    outer loop
      vertex 82 2 1.9
      vertex 82 2 3.7
      vertex 81.2977 2 1.96917
    endloop
  endfacet
  facet normal 0 -1 0
    outer loop
      vertex 82.3512 2 3.73459
      vertex 82.7023 2 1.96917
      vertex 83.3777 2 2.17403
    endloop
  endfacet
  facet normal 0 -1 0
    outer loop
      vertex 82 2 3.7
      vertex 82 2 1.9
      vertex 82.7023 2 1.96917
    endloop
  endfacet
  facet normal 0.471397 0 -0.881921
    outer loop
      vertex 79.9999 0 8.49329
      vertex 80.6223 2 8.82597
      vertex 80.6223 0 8.82597
    endloop
  endfacet
  facet normal 0.471397 0 -0.881921
    outer loop
      vertex 80.6223 2 8.82597
      vertex 79.9999 0 8.49329
      vertex 79.9999 2 8.49329
    endloop
  endfacet
  facet normal -0.0980164 0 0.995185
    outer loop
      vertex 82 2 1.9
      vertex 82.7023 0 1.96917
      vertex 82.7023 2 1.96917
    endloop
  endfacet
  facet normal -0.0980164 0 0.995185
    outer loop
      vertex 82.7023 0 1.96917
      vertex 82 2 1.9
      vertex 82 0 1.9
    endloop
  endfacet
  facet normal 0.0980164 0 0.995185
    outer loop
      vertex 81.2977 2 1.96917
      vertex 82 0 1.9
      vertex 82 2 1.9
    endloop
  endfacet
  facet normal 0.0980164 0 0.995185
    outer loop
      vertex 82 0 1.9
      vertex 81.2977 2 1.96917
      vertex 81.2977 0 1.96917
    endloop
  endfacet
  facet normal 1 -0 0
    outer loop
      vertex 100 0 11
      vertex 100 11 8
      vertex 100 11 11
    endloop
  endfacet
  facet normal 1 0 0
    outer loop
      vertex 100 0 0
      vertex 100 11 8
      vertex 100 0 11
    endloop
  endfacet
  facet normal 1 0 0
    outer loop
      vertex 100 11 8
      vertex 100 0 0
      vertex 100 11 0
    endloop
  endfacet
  facet normal -0 0 1
    outer loop
      vertex 0 11 11
      vertex 100 0 11
      vertex 100 11 11
    endloop
  endfacet
  facet normal 0 0 1
    outer loop
      vertex 100 0 11
      vertex 0 11 11
      vertex 0 0 11
    endloop
  endfacet
  facet normal 0 0 -1
    outer loop
      vertex 0 0 0
      vertex 100 11 0
      vertex 100 0 0
    endloop
  endfacet
  facet normal -0 0 -1
    outer loop
      vertex 100 11 0
      vertex 0 0 0
      vertex 0 11 0
    endloop
  endfacet
  facet normal -1 0 0
    outer loop
      vertex 0 0 0
      vertex 0 11 8
      vertex 0 11 0
    endloop
  endfacet
  facet normal -1 0 0
    outer loop
      vertex 0 0 11
      vertex 0 11 8
      vertex 0 0 0
    endloop
  endfacet
  facet normal -1 0 0
    outer loop
      vertex 0 11 8
      vertex 0 0 11
      vertex 0 11 11
    endloop
  endfacet
  facet normal 0 1 -0
    outer loop
      vertex 100 11 8
      vertex 0 11 11
      vertex 100 11 11
    endloop
  endfacet
  facet normal 0 1 0
    outer loop
      vertex 0 11 11
      vertex 100 11 8
      vertex 0 11 8
    endloop
  endfacet
  facet normal 0 1 -0
    outer loop
      vertex 81.6488 11 7.26541
      vertex 18 11 7.3
      vertex 82 11 7.3
    endloop
  endfacet
  facet normal 0 1 0
    outer loop
      vertex 81.6488 11 7.26541
      vertex 18.3512 11 7.26541
      vertex 18 11 7.3
    endloop
  endfacet
  facet normal 0 1 -0
    outer loop
      vertex 81.3112 11 7.16298
      vertex 18.3512 11 7.26541
      vertex 81.6488 11 7.26541
    endloop
  endfacet
  facet normal 0 1 0
    outer loop
      vertex 81.3112 11 7.16298
      vertex 18.6888 11 7.16298
      vertex 18.3512 11 7.26541
    endloop
  endfacet
  facet normal 0 1 -0
    outer loop
      vertex 81 11 6.99664
      vertex 18.6888 11 7.16298
      vertex 81.3112 11 7.16298
    endloop
  endfacet
  facet normal 0 1 0
    outer loop
      vertex 81 11 6.99664
      vertex 19 11 6.99664
      vertex 18.6888 11 7.16298
    endloop
  endfacet
  facet normal 0 1 -0
    outer loop
      vertex 80.7272 11 6.77279
      vertex 19 11 6.99664
      vertex 81 11 6.99664
    endloop
  endfacet
  facet normal 0 1 0
    outer loop
      vertex 80.7272 11 6.77279
      vertex 19.2728 11 6.77279
      vertex 19 11 6.99664
    endloop
  endfacet
  facet normal 0 1 -0
    outer loop
      vertex 80.5034 11 6.50003
      vertex 19.2728 11 6.77279
      vertex 80.7272 11 6.77279
    endloop
  endfacet
  facet normal 0 1 0
    outer loop
      vertex 80.5034 11 6.50003
      vertex 19.4966 11 6.50003
      vertex 19.2728 11 6.77279
    endloop
  endfacet
  facet normal 0 1 -0
    outer loop
      vertex 80.337 11 6.18883
      vertex 19.4966 11 6.50003
      vertex 80.5034 11 6.50003
    endloop
  endfacet
  facet normal 0 1 0
    outer loop
      vertex 80.337 11 6.18883
      vertex 19.663 11 6.18883
      vertex 19.4966 11 6.50003
    endloop
  endfacet
  facet normal 0 1 -0
    outer loop
      vertex 80.2346 11 5.85116
      vertex 19.663 11 6.18883
      vertex 80.337 11 6.18883
    endloop
  endfacet
  facet normal 0 1 0
    outer loop
      vertex 80.2346 11 5.85116
      vertex 19.7654 11 5.85116
      vertex 19.663 11 6.18883
    endloop
  endfacet
  facet normal 0 1 -0
    outer loop
      vertex 80.2 11 5.5
      vertex 19.7654 11 5.85116
      vertex 80.2346 11 5.85116
    endloop
  endfacet
  facet normal 0 1 0
    outer loop
      vertex 80.2 11 5.5
      vertex 19.8 11 5.5
      vertex 19.7654 11 5.85116
    endloop
  endfacet
  facet normal 0 1 0
    outer loop
      vertex 80.2346 11 5.14884
      vertex 19.8 11 5.5
      vertex 80.2 11 5.5
    endloop
  endfacet
  facet normal 0 1 0
    outer loop
      vertex 80.2346 11 5.14884
      vertex 19.7654 11 5.14884
      vertex 19.8 11 5.5
    endloop
  endfacet
  facet normal 0 1 0
    outer loop
      vertex 80.337 11 4.81117
      vertex 19.7654 11 5.14884
      vertex 80.2346 11 5.14884
    endloop
  endfacet
  facet normal 0 1 0
    outer loop
      vertex 80.337 11 4.81117
      vertex 19.663 11 4.81117
      vertex 19.7654 11 5.14884
    endloop
  endfacet
  facet normal 0 1 0
    outer loop
      vertex 80.5034 11 4.49997
      vertex 19.663 11 4.81117
      vertex 80.337 11 4.81117
    endloop
  endfacet
  facet normal 0 1 0
    outer loop
      vertex 80.5034 11 4.49997
      vertex 19.4966 11 4.49997
      vertex 19.663 11 4.81117
    endloop
  endfacet
  facet normal 0 1 0
    outer loop
      vertex 80.7272 11 4.22721
      vertex 19.4966 11 4.49997
      vertex 80.5034 11 4.49997
    endloop
  endfacet
  facet normal 0 1 0
    outer loop
      vertex 80.7272 11 4.22721
      vertex 19.2728 11 4.22721
      vertex 19.4966 11 4.49997
    endloop
  endfacet
  facet normal 0 1 0
    outer loop
      vertex 81 11 4.00336
      vertex 19.2728 11 4.22721
      vertex 80.7272 11 4.22721
    endloop
  endfacet
  facet normal 0 1 0
    outer loop
      vertex 81 11 4.00336
      vertex 19 11 4.00336
      vertex 19.2728 11 4.22721
    endloop
  endfacet
  facet normal 0 1 0
    outer loop
      vertex 81.3112 11 3.83702
      vertex 19 11 4.00336
      vertex 81 11 4.00336
    endloop
  endfacet
  facet normal 0 1 0
    outer loop
      vertex 81.3112 11 3.83702
      vertex 18.6888 11 3.83702
      vertex 19 11 4.00336
    endloop
  endfacet
  facet normal 0 1 0
    outer loop
      vertex 81.6488 11 3.73459
      vertex 18.6888 11 3.83702
      vertex 81.3112 11 3.83702
    endloop
  endfacet
  facet normal 0 1 0
    outer loop
      vertex 81.6488 11 3.73459
      vertex 18.3512 11 3.73459
      vertex 18.6888 11 3.83702
    endloop
  endfacet
  facet normal 0 1 0
    outer loop
      vertex 100 11 0
      vertex 81.6488 11 3.73459
      vertex 82 11 3.7
    endloop
  endfacet
  facet normal 0 1 0
    outer loop
      vertex 81.6488 11 3.73459
      vertex 100 11 0
      vertex 18.3512 11 3.73459
    endloop
  endfacet
  facet normal 0 1 0
    outer loop
      vertex 100 11 8
      vertex 82 11 7.3
      vertex 0 11 8
    endloop
  endfacet
  facet normal 0 1 0
    outer loop
      vertex 100 11 8
      vertex 82.3512 11 7.26541
      vertex 82 11 7.3
    endloop
  endfacet
  facet normal 0 1 0
    outer loop
      vertex 100 11 8
      vertex 82.6888 11 7.16298
      vertex 82.3512 11 7.26541
    endloop
  endfacet
  facet normal 0 1 0
    outer loop
      vertex 100 11 8
      vertex 83 11 6.99664
      vertex 82.6888 11 7.16298
    endloop
  endfacet
  facet normal 0 1 0
    outer loop
      vertex 100 11 8
      vertex 83.2728 11 6.77279
      vertex 83 11 6.99664
    endloop
  endfacet
  facet normal 0 1 0
    outer loop
      vertex 100 11 8
      vertex 83.4966 11 6.50003
      vertex 83.2728 11 6.77279
    endloop
  endfacet
  facet normal 0 1 0
    outer loop
      vertex 100 11 8
      vertex 83.663 11 6.18883
      vertex 83.4966 11 6.50003
    endloop
  endfacet
  facet normal 0 1 0
    outer loop
      vertex 100 11 8
      vertex 83.7654 11 5.85116
      vertex 83.663 11 6.18883
    endloop
  endfacet
  facet normal 0 1 0
    outer loop
      vertex 100 11 8
      vertex 83.8 11 5.5
      vertex 83.7654 11 5.85116
    endloop
  endfacet
  facet normal 0 1 0
    outer loop
      vertex 100 11 8
      vertex 83.7654 11 5.14884
      vertex 83.8 11 5.5
    endloop
  endfacet
  facet normal 0 1 -0
    outer loop
      vertex 100 11 0
      vertex 83.7654 11 5.14884
      vertex 100 11 8
    endloop
  endfacet
  facet normal 0 1 0
    outer loop
      vertex 83.7654 11 5.14884
      vertex 100 11 0
      vertex 83.663 11 4.81117
    endloop
  endfacet
  facet normal 0 1 0
    outer loop
      vertex 83.663 11 4.81117
      vertex 100 11 0
      vertex 83.4966 11 4.49997
    endloop
  endfacet
  facet normal 0 1 0
    outer loop
      vertex 83.4966 11 4.49997
      vertex 100 11 0
      vertex 83.2728 11 4.22721
    endloop
  endfacet
  facet normal 0 1 0
    outer loop
      vertex 83.2728 11 4.22721
      vertex 100 11 0
      vertex 83 11 4.00336
    endloop
  endfacet
  facet normal 0 1 0
    outer loop
      vertex 83 11 4.00336
      vertex 100 11 0
      vertex 82.6888 11 3.83702
    endloop
  endfacet
  facet normal 0 1 0
    outer loop
      vertex 0 11 0
      vertex 18.3512 11 3.73459
      vertex 100 11 0
    endloop
  endfacet
  facet normal 0 1 0
    outer loop
      vertex 82.3512 11 3.73459
      vertex 100 11 0
      vertex 82 11 3.7
    endloop
  endfacet
  facet normal 0 1 0
    outer loop
      vertex 82.6888 11 3.83702
      vertex 100 11 0
      vertex 82.3512 11 3.73459
    endloop
  endfacet
  facet normal 0 1 -0
    outer loop
      vertex 18 11 7.3
      vertex 0 11 8
      vertex 82 11 7.3
    endloop
  endfacet
  facet normal 0 1 -0
    outer loop
      vertex 17.6488 11 7.26541
      vertex 0 11 8
      vertex 18 11 7.3
    endloop
  endfacet
  facet normal 0 1 -0
    outer loop
      vertex 17.3112 11 7.16298
      vertex 0 11 8
      vertex 17.6488 11 7.26541
    endloop
  endfacet
  facet normal 0 1 -0
    outer loop
      vertex 17 11 6.99664
      vertex 0 11 8
      vertex 17.3112 11 7.16298
    endloop
  endfacet
  facet normal 0 1 -0
    outer loop
      vertex 16.7272 11 6.77279
      vertex 0 11 8
      vertex 17 11 6.99664
    endloop
  endfacet
  facet normal 0 1 -0
    outer loop
      vertex 16.5034 11 6.50003
      vertex 0 11 8
      vertex 16.7272 11 6.77279
    endloop
  endfacet
  facet normal 0 1 -0
    outer loop
      vertex 16.337 11 6.18883
      vertex 0 11 8
      vertex 16.5034 11 6.50003
    endloop
  endfacet
  facet normal 0 1 -0
    outer loop
      vertex 16.2346 11 5.85116
      vertex 0 11 8
      vertex 16.337 11 6.18883
    endloop
  endfacet
  facet normal 0 1 -0
    outer loop
      vertex 16.2 11 5.5
      vertex 0 11 8
      vertex 16.2346 11 5.85116
    endloop
  endfacet
  facet normal 0 1 0
    outer loop
      vertex 16.2346 11 5.14884
      vertex 0 11 8
      vertex 16.2 11 5.5
    endloop
  endfacet
  facet normal 0 1 0
    outer loop
      vertex 0 11 0
      vertex 16.2346 11 5.14884
      vertex 16.337 11 4.81117
    endloop
  endfacet
  facet normal 0 1 0
    outer loop
      vertex 0 11 0
      vertex 16.337 11 4.81117
      vertex 16.5034 11 4.49997
    endloop
  endfacet
  facet normal 0 1 0
    outer loop
      vertex 0 11 0
      vertex 16.5034 11 4.49997
      vertex 16.7272 11 4.22721
    endloop
  endfacet
  facet normal 0 1 0
    outer loop
      vertex 0 11 0
      vertex 16.7272 11 4.22721
      vertex 17 11 4.00336
    endloop
  endfacet
  facet normal 0 1 0
    outer loop
      vertex 0 11 0
      vertex 17 11 4.00336
      vertex 17.3112 11 3.83702
    endloop
  endfacet
  facet normal 0 1 0
    outer loop
      vertex 0 11 0
      vertex 17.3112 11 3.83702
      vertex 17.6488 11 3.73459
    endloop
  endfacet
  facet normal 0 1 0
    outer loop
      vertex 16.2346 11 5.14884
      vertex 0 11 0
      vertex 0 11 8
    endloop
  endfacet
  facet normal 0 1 0
    outer loop
      vertex 18 11 3.7
      vertex 0 11 0
      vertex 17.6488 11 3.73459
    endloop
  endfacet
  facet normal 0 1 0
    outer loop
      vertex 18.3512 11 3.73459
      vertex 0 11 0
      vertex 18 11 3.7
    endloop
  endfacet
  facet normal 0 -1 0
    outer loop
      vertex 18.7023 0 9.03083
      vertex 82 0 9.1
      vertex 18 0 9.1
    endloop
  endfacet
  facet normal 0 -1 0
    outer loop
      vertex 18.7023 0 9.03083
      vertex 81.2977 0 9.03083
      vertex 82 0 9.1
    endloop
  endfacet
  facet normal 0 -1 0
    outer loop
      vertex 19.3777 0 8.82597
      vertex 81.2977 0 9.03083
      vertex 18.7023 0 9.03083
    endloop
  endfacet
  facet normal 0 -1 0
    outer loop
      vertex 19.3777 0 8.82597
      vertex 80.6223 0 8.82597
      vertex 81.2977 0 9.03083
    endloop
  endfacet
  facet normal 0 -1 0
    outer loop
      vertex 20.0001 0 8.49329
      vertex 80.6223 0 8.82597
      vertex 19.3777 0 8.82597
    endloop
  endfacet
  facet normal 0 -1 0
    outer loop
      vertex 20.0001 0 8.49329
      vertex 79.9999 0 8.49329
      vertex 80.6223 0 8.82597
    endloop
  endfacet
  facet normal 0 -1 0
    outer loop
      vertex 20.5456 0 8.04558
      vertex 79.9999 0 8.49329
      vertex 20.0001 0 8.49329
    endloop
  endfacet
  facet normal 0 -1 0
    outer loop
      vertex 20.5456 0 8.04558
      vertex 79.4544 0 8.04558
      vertex 79.9999 0 8.49329
    endloop
  endfacet
  facet normal 0 -1 0
    outer loop
      vertex 20.9933 0 7.50005
      vertex 79.4544 0 8.04558
      vertex 20.5456 0 8.04558
    endloop
  endfacet
  facet normal 0 -1 0
    outer loop
      vertex 20.9933 0 7.50005
      vertex 79.0067 0 7.50005
      vertex 79.4544 0 8.04558
    endloop
  endfacet
  facet normal 0 -1 0
    outer loop
      vertex 21.326 0 6.87766
      vertex 79.0067 0 7.50005
      vertex 20.9933 0 7.50005
    endloop
  endfacet
  facet normal 0 -1 0
    outer loop
      vertex 21.326 0 6.87766
      vertex 78.674 0 6.87766
      vertex 79.0067 0 7.50005
    endloop
  endfacet
  facet normal 0 -1 0
    outer loop
      vertex 21.5308 0 6.20232
      vertex 78.674 0 6.87766
      vertex 21.326 0 6.87766
    endloop
  endfacet
  facet normal 0 -1 0
    outer loop
      vertex 21.5308 0 6.20232
      vertex 78.4692 0 6.20232
      vertex 78.674 0 6.87766
    endloop
  endfacet
  facet normal 0 -1 0
    outer loop
      vertex 21.6 0 5.5
      vertex 78.4692 0 6.20232
      vertex 21.5308 0 6.20232
    endloop
  endfacet
  facet normal 0 -1 0
    outer loop
      vertex 21.6 0 5.5
      vertex 78.4 0 5.5
      vertex 78.4692 0 6.20232
    endloop
  endfacet
  facet normal 0 -1 0
    outer loop
      vertex 21.5308 0 4.79768
      vertex 78.4 0 5.5
      vertex 21.6 0 5.5
    endloop
  endfacet
  facet normal 0 -1 0
    outer loop
      vertex 21.5308 0 4.79768
      vertex 78.4692 0 4.79768
      vertex 78.4 0 5.5
    endloop
  endfacet
  facet normal 0 -1 0
    outer loop
      vertex 21.326 0 4.12234
      vertex 78.4692 0 4.79768
      vertex 21.5308 0 4.79768
    endloop
  endfacet
  facet normal 0 -1 0
    outer loop
      vertex 21.326 0 4.12234
      vertex 78.674 0 4.12234
      vertex 78.4692 0 4.79768
    endloop
  endfacet
  facet normal 0 -1 0
    outer loop
      vertex 20.9933 0 3.49995
      vertex 78.674 0 4.12234
      vertex 21.326 0 4.12234
    endloop
  endfacet
  facet normal 0 -1 0
    outer loop
      vertex 20.9933 0 3.49995
      vertex 79.0067 0 3.49995
      vertex 78.674 0 4.12234
    endloop
  endfacet
  facet normal 0 -1 0
    outer loop
      vertex 20.5456 0 2.95442
      vertex 79.0067 0 3.49995
      vertex 20.9933 0 3.49995
    endloop
  endfacet
  facet normal 0 -1 0
    outer loop
      vertex 20.5456 0 2.95442
      vertex 79.4544 0 2.95442
      vertex 79.0067 0 3.49995
    endloop
  endfacet
  facet normal 0 -1 0
    outer loop
      vertex 20.0001 0 2.50671
      vertex 79.4544 0 2.95442
      vertex 20.5456 0 2.95442
    endloop
  endfacet
  facet normal 0 -1 0
    outer loop
      vertex 20.0001 0 2.50671
      vertex 79.9999 0 2.50671
      vertex 79.4544 0 2.95442
    endloop
  endfacet
  facet normal 0 -1 0
    outer loop
      vertex 19.3777 0 2.17403
      vertex 79.9999 0 2.50671
      vertex 20.0001 0 2.50671
    endloop
  endfacet
  facet normal 0 -1 0
    outer loop
      vertex 19.3777 0 2.17403
      vertex 80.6223 0 2.17403
      vertex 79.9999 0 2.50671
    endloop
  endfacet
  facet normal 0 -1 0
    outer loop
      vertex 18.7023 0 1.96917
      vertex 80.6223 0 2.17403
      vertex 19.3777 0 2.17403
    endloop
  endfacet
  facet normal 0 -1 0
    outer loop
      vertex 18.7023 0 1.96917
      vertex 81.2977 0 1.96917
      vertex 80.6223 0 2.17403
    endloop
  endfacet
  facet normal 0 -1 0
    outer loop
      vertex 18 0 1.9
      vertex 81.2977 0 1.96917
      vertex 18.7023 0 1.96917
    endloop
  endfacet
  facet normal 0 -1 -0
    outer loop
      vertex 81.2977 0 1.96917
      vertex 18 0 1.9
      vertex 82 0 1.9
    endloop
  endfacet
  facet normal 0 -1 0
    outer loop
      vertex 0 0 11
      vertex 18 0 9.1
      vertex 100 0 11
    endloop
  endfacet
  facet normal 0 -1 0
    outer loop
      vertex 0 0 11
      vertex 17.2977 0 9.03083
      vertex 18 0 9.1
    endloop
  endfacet
  facet normal 0 -1 0
    outer loop
      vertex 0 0 11
      vertex 16.6223 0 8.82597
      vertex 17.2977 0 9.03083
    endloop
  endfacet
  facet normal 0 -1 0
    outer loop
      vertex 0 0 11
      vertex 15.9999 0 8.49329
      vertex 16.6223 0 8.82597
    endloop
  endfacet
  facet normal 0 -1 0
    outer loop
      vertex 0 0 11
      vertex 15.4544 0 8.04558
      vertex 15.9999 0 8.49329
    endloop
  endfacet
  facet normal 0 -1 0
    outer loop
      vertex 0 0 11
      vertex 15.0067 0 7.50005
      vertex 15.4544 0 8.04558
    endloop
  endfacet
  facet normal 0 -1 0
    outer loop
      vertex 0 0 11
      vertex 14.674 0 6.87766
      vertex 15.0067 0 7.50005
    endloop
  endfacet
  facet normal 0 -1 0
    outer loop
      vertex 0 0 11
      vertex 14.4692 0 6.20232
      vertex 14.674 0 6.87766
    endloop
  endfacet
  facet normal 0 -1 0
    outer loop
      vertex 0 0 11
      vertex 14.4 0 5.5
      vertex 14.4692 0 6.20232
    endloop
  endfacet
  facet normal 0 -1 0
    outer loop
      vertex 0 0 0
      vertex 14.4 0 5.5
      vertex 0 0 11
    endloop
  endfacet
  facet normal 0 -1 -0
    outer loop
      vertex 14.4 0 5.5
      vertex 0 0 0
      vertex 14.4692 0 4.79768
    endloop
  endfacet
  facet normal 0 -1 -0
    outer loop
      vertex 14.4692 0 4.79768
      vertex 0 0 0
      vertex 14.674 0 4.12234
    endloop
  endfacet
  facet normal 0 -1 -0
    outer loop
      vertex 14.674 0 4.12234
      vertex 0 0 0
      vertex 15.0067 0 3.49995
    endloop
  endfacet
  facet normal 0 -1 -0
    outer loop
      vertex 15.0067 0 3.49995
      vertex 0 0 0
      vertex 15.4544 0 2.95442
    endloop
  endfacet
  facet normal 0 -1 -0
    outer loop
      vertex 15.4544 0 2.95442
      vertex 0 0 0
      vertex 15.9999 0 2.50671
    endloop
  endfacet
  facet normal 0 -1 -0
    outer loop
      vertex 18 0 1.9
      vertex 0 0 0
      vertex 82 0 1.9
    endloop
  endfacet
  facet normal 0 -1 -0
    outer loop
      vertex 17.2977 0 1.96917
      vertex 0 0 0
      vertex 18 0 1.9
    endloop
  endfacet
  facet normal 0 -1 -0
    outer loop
      vertex 16.6223 0 2.17403
      vertex 0 0 0
      vertex 17.2977 0 1.96917
    endloop
  endfacet
  facet normal 0 -1 -0
    outer loop
      vertex 15.9999 0 2.50671
      vertex 0 0 0
      vertex 16.6223 0 2.17403
    endloop
  endfacet
  facet normal 0 -1 0
    outer loop
      vertex 82 0 9.1
      vertex 100 0 11
      vertex 18 0 9.1
    endloop
  endfacet
  facet normal 0 -1 0
    outer loop
      vertex 82.7023 0 9.03083
      vertex 100 0 11
      vertex 82 0 9.1
    endloop
  endfacet
  facet normal 0 -1 0
    outer loop
      vertex 83.3777 0 8.82597
      vertex 100 0 11
      vertex 82.7023 0 9.03083
    endloop
  endfacet
  facet normal 0 -1 0
    outer loop
      vertex 84.0001 0 8.49329
      vertex 100 0 11
      vertex 83.3777 0 8.82597
    endloop
  endfacet
  facet normal 0 -1 0
    outer loop
      vertex 84.5456 0 8.04558
      vertex 100 0 11
      vertex 84.0001 0 8.49329
    endloop
  endfacet
  facet normal 0 -1 0
    outer loop
      vertex 84.9933 0 7.50005
      vertex 100 0 11
      vertex 84.5456 0 8.04558
    endloop
  endfacet
  facet normal 0 -1 0
    outer loop
      vertex 85.326 0 6.87766
      vertex 100 0 11
      vertex 84.9933 0 7.50005
    endloop
  endfacet
  facet normal 0 -1 0
    outer loop
      vertex 85.5308 0 6.20232
      vertex 100 0 11
      vertex 85.326 0 6.87766
    endloop
  endfacet
  facet normal 0 -1 0
    outer loop
      vertex 85.6 0 5.5
      vertex 100 0 11
      vertex 85.5308 0 6.20232
    endloop
  endfacet
  facet normal 0 -1 0
    outer loop
      vertex 100 0 0
      vertex 85.6 0 5.5
      vertex 85.5308 0 4.79768
    endloop
  endfacet
  facet normal 0 -1 0
    outer loop
      vertex 100 0 0
      vertex 85.5308 0 4.79768
      vertex 85.326 0 4.12234
    endloop
  endfacet
  facet normal 0 -1 0
    outer loop
      vertex 100 0 0
      vertex 85.326 0 4.12234
      vertex 84.9933 0 3.49995
    endloop
  endfacet
  facet normal 0 -1 0
    outer loop
      vertex 100 0 0
      vertex 84.9933 0 3.49995
      vertex 84.5456 0 2.95442
    endloop
  endfacet
  facet normal 0 -1 0
    outer loop
      vertex 100 0 0
      vertex 84.5456 0 2.95442
      vertex 84.0001 0 2.50671
    endloop
  endfacet
  facet normal 0 -1 0
    outer loop
      vertex 100 0 0
      vertex 84.0001 0 2.50671
      vertex 83.3777 0 2.17403
    endloop
  endfacet
  facet normal 0 -1 0
    outer loop
      vertex 85.6 0 5.5
      vertex 100 0 0
      vertex 100 0 11
    endloop
  endfacet
  facet normal 0 -1 0
    outer loop
      vertex 82.7023 0 1.96917
      vertex 100 0 0
      vertex 83.3777 0 2.17403
    endloop
  endfacet
  facet normal 0 -1 0
    outer loop
      vertex 82 0 1.9
      vertex 100 0 0
      vertex 82.7023 0 1.96917
    endloop
  endfacet
  facet normal 0 -1 0
    outer loop
      vertex 100 0 0
      vertex 82 0 1.9
      vertex 0 0 0
    endloop
  endfacet
endsolid OpenSCAD_Model
