solid OpenSCAD_Model
  facet normal -1 -0 0
    outer loop
      vertex 14 17 -4
      vertex 14 5 -16
      vertex 14 5 -4
    endloop
  endfacet
  facet normal 0 1 -0
    outer loop
      vertex 52.2388 5 -25.4663
      vertex 50 5 -16
      vertex 52.9736 5 -25.0735
    endloop
  endfacet
  facet normal 0 1 0
    outer loop
      vertex 20 5 -16
      vertex 16.2291 5 -24.8317
      vertex 15.4 5 -24.75
    endloop
  endfacet
  facet normal 0 1 -0
    outer loop
      vertex 51.5948 5 -25.9948
      vertex 50 5 -16
      vertex 52.2388 5 -25.4663
    endloop
  endfacet
  facet normal 0 1 0
    outer loop
      vertex 20 5 -16
      vertex 17.0264 5 -25.0735
      vertex 16.2291 5 -24.8317
    endloop
  endfacet
  facet normal 0 1 -0
    outer loop
      vertex 51.0663 5 -26.6388
      vertex 50 5 -16
      vertex 51.5948 5 -25.9948
    endloop
  endfacet
  facet normal 0 1 0
    outer loop
      vertex 20 5 -16
      vertex 17.7612 5 -25.4663
      vertex 17.0264 5 -25.0735
    endloop
  endfacet
  facet normal 0 1 -0
    outer loop
      vertex 50.6735 5 -27.3736
      vertex 50 5 -16
      vertex 51.0663 5 -26.6388
    endloop
  endfacet
  facet normal 0 1 0
    outer loop
      vertex 20 5 -16
      vertex 18.4052 5 -25.9948
      vertex 17.7612 5 -25.4663
    endloop
  endfacet
  facet normal 0 1 0
    outer loop
      vertex 50 5 -16
      vertex 50.6735 5 -27.3736
      vertex 20 5 -16
    endloop
  endfacet
  facet normal 0 1 0
    outer loop
      vertex 20 5 -16
      vertex 18.9337 5 -26.6388
      vertex 18.4052 5 -25.9948
    endloop
  endfacet
  facet normal 0 1 0
    outer loop
      vertex 19.3265 5 -27.3736
      vertex 20 5 -16
      vertex 50.6735 5 -27.3736
    endloop
  endfacet
  facet normal 0 1 0
    outer loop
      vertex 20 5 -16
      vertex 19.3265 5 -27.3736
      vertex 18.9337 5 -26.6388
    endloop
  endfacet
  facet normal 0 1 -0
    outer loop
      vertex 50.4317 5 -28.1709
      vertex 19.3265 5 -27.3736
      vertex 50.6735 5 -27.3736
    endloop
  endfacet
  facet normal 0 1 0
    outer loop
      vertex 50.4317 5 -28.1709
      vertex 19.5683 5 -28.1709
      vertex 19.3265 5 -27.3736
    endloop
  endfacet
  facet normal 0 1 -0
    outer loop
      vertex 50.35 5 -29
      vertex 19.5683 5 -28.1709
      vertex 50.4317 5 -28.1709
    endloop
  endfacet
  facet normal 0 1 0
    outer loop
      vertex 50.35 5 -29
      vertex 19.65 5 -29
      vertex 19.5683 5 -28.1709
    endloop
  endfacet
  facet normal 0 1 0
    outer loop
      vertex 50.4317 5 -29.8291
      vertex 19.65 5 -29
      vertex 50.35 5 -29
    endloop
  endfacet
  facet normal 0 1 0
    outer loop
      vertex 50.4317 5 -29.8291
      vertex 19.5683 5 -29.8291
      vertex 19.65 5 -29
    endloop
  endfacet
  facet normal 0 1 0
    outer loop
      vertex 50.6735 5 -30.6264
      vertex 19.5683 5 -29.8291
      vertex 50.4317 5 -29.8291
    endloop
  endfacet
  facet normal 0 1 0
    outer loop
      vertex 50.6735 5 -30.6264
      vertex 19.3265 5 -30.6264
      vertex 19.5683 5 -29.8291
    endloop
  endfacet
  facet normal 0 1 0
    outer loop
      vertex 51.0663 5 -31.3612
      vertex 19.3265 5 -30.6264
      vertex 50.6735 5 -30.6264
    endloop
  endfacet
  facet normal 0 1 0
    outer loop
      vertex 51.0663 5 -31.3612
      vertex 18.9337 5 -31.3612
      vertex 19.3265 5 -30.6264
    endloop
  endfacet
  facet normal 0 1 0
    outer loop
      vertex 51.5948 5 -32.0052
      vertex 18.9337 5 -31.3612
      vertex 51.0663 5 -31.3612
    endloop
  endfacet
  facet normal 0 1 0
    outer loop
      vertex 51.5948 5 -32.0052
      vertex 18.4052 5 -32.0052
      vertex 18.9337 5 -31.3612
    endloop
  endfacet
  facet normal 0 1 0
    outer loop
      vertex 52.2388 5 -32.5337
      vertex 18.4052 5 -32.0052
      vertex 51.5948 5 -32.0052
    endloop
  endfacet
  facet normal 0 1 0
    outer loop
      vertex 52.2388 5 -32.5337
      vertex 17.7612 5 -32.5337
      vertex 18.4052 5 -32.0052
    endloop
  endfacet
  facet normal 0 1 0
    outer loop
      vertex 70 5 -54
      vertex 52.2388 5 -32.5337
      vertex 52.9736 5 -32.9265
    endloop
  endfacet
  facet normal 0 1 0
    outer loop
      vertex 52.2388 5 -32.5337
      vertex 70 5 -54
      vertex 17.7612 5 -32.5337
    endloop
  endfacet
  facet normal 0 1 0
    outer loop
      vertex 70 5 -54
      vertex 52.9736 5 -32.9265
      vertex 53.7709 5 -33.1683
    endloop
  endfacet
  facet normal 0 1 0
    outer loop
      vertex 0 5 -54
      vertex 17.7612 5 -32.5337
      vertex 70 5 -54
    endloop
  endfacet
  facet normal 0 1 0
    outer loop
      vertex 70 5 -54
      vertex 53.7709 5 -33.1683
      vertex 54.6 5 -33.25
    endloop
  endfacet
  facet normal 0 1 0
    outer loop
      vertex 17.7612 5 -32.5337
      vertex 0 5 -54
      vertex 17.0264 5 -32.9265
    endloop
  endfacet
  facet normal 0 1 0
    outer loop
      vertex 70 5 -4
      vertex 56 5 -16
      vertex 56 5 -4
    endloop
  endfacet
  facet normal 0 1 0
    outer loop
      vertex 53.7709 5 -24.8317
      vertex 56 5 -16
      vertex 54.6 5 -24.75
    endloop
  endfacet
  facet normal 0 1 0
    outer loop
      vertex 56 5 -16
      vertex 53.7709 5 -24.8317
      vertex 50 5 -16
    endloop
  endfacet
  facet normal 0 1 -0
    outer loop
      vertex 52.9736 5 -25.0735
      vertex 50 5 -16
      vertex 53.7709 5 -24.8317
    endloop
  endfacet
  facet normal 0 1 -0
    outer loop
      vertex 58.1337 5 -26.6388
      vertex 56 5 -16
      vertex 70 5 -4
    endloop
  endfacet
  facet normal 0 1 0
    outer loop
      vertex 56 5 -16
      vertex 55.4291 5 -24.8317
      vertex 54.6 5 -24.75
    endloop
  endfacet
  facet normal 0 1 0
    outer loop
      vertex 56 5 -16
      vertex 56.2264 5 -25.0735
      vertex 55.4291 5 -24.8317
    endloop
  endfacet
  facet normal 0 1 0
    outer loop
      vertex 56 5 -16
      vertex 56.9612 5 -25.4663
      vertex 56.2264 5 -25.0735
    endloop
  endfacet
  facet normal 0 1 0
    outer loop
      vertex 56 5 -16
      vertex 57.6052 5 -25.9948
      vertex 56.9612 5 -25.4663
    endloop
  endfacet
  facet normal 0 1 0
    outer loop
      vertex 56 5 -16
      vertex 58.1337 5 -26.6388
      vertex 57.6052 5 -25.9948
    endloop
  endfacet
  facet normal 0 1 0
    outer loop
      vertex 70 5 -4
      vertex 58.5265 5 -27.3736
      vertex 58.1337 5 -26.6388
    endloop
  endfacet
  facet normal 0 1 0
    outer loop
      vertex 70 5 -4
      vertex 58.7683 5 -28.1709
      vertex 58.5265 5 -27.3736
    endloop
  endfacet
  facet normal 0 1 0
    outer loop
      vertex 70 5 -4
      vertex 58.85 5 -29
      vertex 58.7683 5 -28.1709
    endloop
  endfacet
  facet normal 0 1 -0
    outer loop
      vertex 70 5 -54
      vertex 58.85 5 -29
      vertex 70 5 -4
    endloop
  endfacet
  facet normal 0 1 0
    outer loop
      vertex 58.85 5 -29
      vertex 70 5 -54
      vertex 58.7683 5 -29.8291
    endloop
  endfacet
  facet normal 0 1 0
    outer loop
      vertex 17.0264 5 -32.9265
      vertex 0 5 -54
      vertex 16.2291 5 -33.1683
    endloop
  endfacet
  facet normal 0 1 0
    outer loop
      vertex 55.4291 5 -33.1683
      vertex 70 5 -54
      vertex 54.6 5 -33.25
    endloop
  endfacet
  facet normal 0 1 0
    outer loop
      vertex 56.2264 5 -32.9265
      vertex 70 5 -54
      vertex 55.4291 5 -33.1683
    endloop
  endfacet
  facet normal 0 1 0
    outer loop
      vertex 56.9612 5 -32.5337
      vertex 70 5 -54
      vertex 56.2264 5 -32.9265
    endloop
  endfacet
  facet normal 0 1 0
    outer loop
      vertex 57.6052 5 -32.0052
      vertex 70 5 -54
      vertex 56.9612 5 -32.5337
    endloop
  endfacet
  facet normal 0 1 0
    outer loop
      vertex 58.1337 5 -31.3612
      vertex 70 5 -54
      vertex 57.6052 5 -32.0052
    endloop
  endfacet
  facet normal 0 1 0
    outer loop
      vertex 58.5265 5 -30.6264
      vertex 70 5 -54
      vertex 58.1337 5 -31.3612
    endloop
  endfacet
  facet normal 0 1 0
    outer loop
      vertex 58.7683 5 -29.8291
      vertex 70 5 -54
      vertex 58.5265 5 -30.6264
    endloop
  endfacet
  facet normal 0 1 -0
    outer loop
      vertex 50 5 -16
      vertex 20 5 -4
      vertex 50 5 -4
    endloop
  endfacet
  facet normal 0 1 0
    outer loop
      vertex 20 5 -4
      vertex 50 5 -16
      vertex 20 5 -16
    endloop
  endfacet
  facet normal 0 1 -0
    outer loop
      vertex 14 5 -16
      vertex 0 5 -4
      vertex 14 5 -4
    endloop
  endfacet
  facet normal 0 1 0
    outer loop
      vertex 20 5 -16
      vertex 15.4 5 -24.75
      vertex 14 5 -16
    endloop
  endfacet
  facet normal 0 1 -0
    outer loop
      vertex 14.5709 5 -24.8317
      vertex 14 5 -16
      vertex 15.4 5 -24.75
    endloop
  endfacet
  facet normal 0 1 0
    outer loop
      vertex 13.7736 5 -25.0735
      vertex 14 5 -16
      vertex 14.5709 5 -24.8317
    endloop
  endfacet
  facet normal 0 1 0
    outer loop
      vertex 13.0388 5 -25.4663
      vertex 14 5 -16
      vertex 13.7736 5 -25.0735
    endloop
  endfacet
  facet normal 0 1 0
    outer loop
      vertex 12.3948 5 -25.9948
      vertex 14 5 -16
      vertex 13.0388 5 -25.4663
    endloop
  endfacet
  facet normal 0 1 0
    outer loop
      vertex 11.8663 5 -26.6388
      vertex 14 5 -16
      vertex 12.3948 5 -25.9948
    endloop
  endfacet
  facet normal 0 1 0
    outer loop
      vertex 14 5 -16
      vertex 11.8663 5 -26.6388
      vertex 0 5 -4
    endloop
  endfacet
  facet normal 0 1 -0
    outer loop
      vertex 11.4735 5 -27.3736
      vertex 0 5 -4
      vertex 11.8663 5 -26.6388
    endloop
  endfacet
  facet normal 0 1 -0
    outer loop
      vertex 11.2317 5 -28.1709
      vertex 0 5 -4
      vertex 11.4735 5 -27.3736
    endloop
  endfacet
  facet normal 0 1 -0
    outer loop
      vertex 11.15 5 -29
      vertex 0 5 -4
      vertex 11.2317 5 -28.1709
    endloop
  endfacet
  facet normal 0 1 0
    outer loop
      vertex 0 5 -54
      vertex 11.15 5 -29
      vertex 11.2317 5 -29.8291
    endloop
  endfacet
  facet normal 0 1 0
    outer loop
      vertex 0 5 -54
      vertex 11.2317 5 -29.8291
      vertex 11.4735 5 -30.6264
    endloop
  endfacet
  facet normal 0 1 0
    outer loop
      vertex 16.2291 5 -33.1683
      vertex 0 5 -54
      vertex 15.4 5 -33.25
    endloop
  endfacet
  facet normal 0 1 0
    outer loop
      vertex 15.4 5 -33.25
      vertex 0 5 -54
      vertex 14.5709 5 -33.1683
    endloop
  endfacet
  facet normal 0 1 0
    outer loop
      vertex 11.15 5 -29
      vertex 0 5 -54
      vertex 0 5 -4
    endloop
  endfacet
  facet normal 0 1 0
    outer loop
      vertex 11.8663 5 -31.3612
      vertex 0 5 -54
      vertex 11.4735 5 -30.6264
    endloop
  endfacet
  facet normal 0 1 0
    outer loop
      vertex 12.3948 5 -32.0052
      vertex 0 5 -54
      vertex 11.8663 5 -31.3612
    endloop
  endfacet
  facet normal 0 1 0
    outer loop
      vertex 13.0388 5 -32.5337
      vertex 0 5 -54
      vertex 12.3948 5 -32.0052
    endloop
  endfacet
  facet normal 0 1 0
    outer loop
      vertex 13.7736 5 -32.9265
      vertex 0 5 -54
      vertex 13.0388 5 -32.5337
    endloop
  endfacet
  facet normal 0 1 0
    outer loop
      vertex 14.5709 5 -33.1683
      vertex 0 5 -54
      vertex 13.7736 5 -32.9265
    endloop
  endfacet
  facet normal 0 0.707107 -0.707107
    outer loop
      vertex 20 5 -16
      vertex 14 17 -4
      vertex 20 17 -4
    endloop
  endfacet
  facet normal 0 0.707107 -0.707107
    outer loop
      vertex 14 17 -4
      vertex 20 5 -16
      vertex 14 5 -16
    endloop
  endfacet
  facet normal 1 -0 0
    outer loop
      vertex 20 5 -4
      vertex 20 5 -16
      vertex 20 17 -4
    endloop
  endfacet
  facet normal 0 0 -1
    outer loop
      vertex 56 5 -4
      vertex 70 17 -4
      vertex 70 5 -4
    endloop
  endfacet
  facet normal -0 0 -1
    outer loop
      vertex 70 17 -4
      vertex 56 5 -4
      vertex 56 17 -4
    endloop
  endfacet
  facet normal 0 0 -1
    outer loop
      vertex 0 5 -4
      vertex 14 17 -4
      vertex 14 5 -4
    endloop
  endfacet
  facet normal -0 0 -1
    outer loop
      vertex 14 17 -4
      vertex 0 5 -4
      vertex 0 17 -4
    endloop
  endfacet
  facet normal 0 0 -1
    outer loop
      vertex 20 5 -4
      vertex 50 17 -4
      vertex 50 5 -4
    endloop
  endfacet
  facet normal -0 0 -1
    outer loop
      vertex 50 17 -4
      vertex 20 5 -4
      vertex 20 17 -4
    endloop
  endfacet
  facet normal -1 -0 0
    outer loop
      vertex 50 17 -4
      vertex 50 5 -16
      vertex 50 5 -4
    endloop
  endfacet
  facet normal 0 0.707107 -0.707107
    outer loop
      vertex 56 5 -16
      vertex 50 17 -4
      vertex 56 17 -4
    endloop
  endfacet
  facet normal 0 0.707107 -0.707107
    outer loop
      vertex 50 17 -4
      vertex 56 5 -16
      vertex 50 5 -16
    endloop
  endfacet
  facet normal 1 -0 0
    outer loop
      vertex 56 5 -4
      vertex 56 5 -16
      vertex 56 17 -4
    endloop
  endfacet
  facet normal 1 0 0
    outer loop
      vertex 70 5 -4
      vertex 70 17 -2.5
      vertex 70 17 0
    endloop
  endfacet
  facet normal 1 0 0
    outer loop
      vertex 70 17 -2.5
      vertex 70 5 -4
      vertex 70 17 -4
    endloop
  endfacet
  facet normal 1 -0 0
    outer loop
      vertex 70 0 0
      vertex 70 5 -4
      vertex 70 17 0
    endloop
  endfacet
  facet normal 1 0 0
    outer loop
      vertex 70 0 -54
      vertex 70 5 -4
      vertex 70 0 0
    endloop
  endfacet
  facet normal 1 0 0
    outer loop
      vertex 70 5 -4
      vertex 70 0 -54
      vertex 70 5 -54
    endloop
  endfacet
  facet normal -0 0 1
    outer loop
      vertex 0 17 0
      vertex 70 0 0
      vertex 70 17 0
    endloop
  endfacet
  facet normal 0 0 1
    outer loop
      vertex 70 0 0
      vertex 0 17 0
      vertex 0 0 0
    endloop
  endfacet
  facet normal -1 0 0
    outer loop
      vertex 0 5 -54
      vertex 0 0 -54
      vertex 0 5 -4
    endloop
  endfacet
  facet normal -1 0 0
    outer loop
      vertex 0 5 -4
      vertex 0 17 -2.5
      vertex 0 17 -4
    endloop
  endfacet
  facet normal -1 -0 0
    outer loop
      vertex 0 17 -2.5
      vertex 0 5 -4
      vertex 0 17 0
    endloop
  endfacet
  facet normal -1 0 0
    outer loop
      vertex 0 5 -4
      vertex 0 0 0
      vertex 0 17 0
    endloop
  endfacet
  facet normal -1 0 0
    outer loop
      vertex 0 0 0
      vertex 0 5 -4
      vertex 0 0 -54
    endloop
  endfacet
  facet normal 0 1 -0
    outer loop
      vertex 70 17 -2.5
      vertex 0 17 0
      vertex 70 17 0
    endloop
  endfacet
  facet normal 0 1 0
    outer loop
      vertex 0 17 0
      vertex 70 17 -2.5
      vertex 0 17 -2.5
    endloop
  endfacet
  facet normal 0 1 0
    outer loop
      vertex 56 17 -4
      vertex 70 17 -2.5
      vertex 70 17 -4
    endloop
  endfacet
  facet normal 0 1 0
    outer loop
      vertex 50 17 -4
      vertex 70 17 -2.5
      vertex 56 17 -4
    endloop
  endfacet
  facet normal 0 1 0
    outer loop
      vertex 70 17 -2.5
      vertex 50 17 -4
      vertex 0 17 -2.5
    endloop
  endfacet
  facet normal 0 1 -0
    outer loop
      vertex 20 17 -4
      vertex 0 17 -2.5
      vertex 50 17 -4
    endloop
  endfacet
  facet normal 0 1 -0
    outer loop
      vertex 14 17 -4
      vertex 0 17 -2.5
      vertex 20 17 -4
    endloop
  endfacet
  facet normal 0 1 0
    outer loop
      vertex 0 17 -2.5
      vertex 14 17 -4
      vertex 0 17 -4
    endloop
  endfacet
  facet normal 0 -1 0
    outer loop
      vertex 16.5667 0 -27.2539
      vertex 0 0 0
      vertex 16.2036 0 -27.0599
    endloop
  endfacet
  facet normal 0 -1 0
    outer loop
      vertex 70 0 0
      vertex 54.1903 0 -26.9404
      vertex 54.6 0 -26.9
    endloop
  endfacet
  facet normal 0 -1 0
    outer loop
      vertex 0 0 0
      vertex 16.5667 0 -27.2539
      vertex 70 0 0
    endloop
  endfacet
  facet normal 0 -1 0
    outer loop
      vertex 70 0 0
      vertex 53.7964 0 -27.0599
      vertex 54.1903 0 -26.9404
    endloop
  endfacet
  facet normal 0 -1 0
    outer loop
      vertex 53.4333 0 -27.2539
      vertex 70 0 0
      vertex 16.5667 0 -27.2539
    endloop
  endfacet
  facet normal 0 -1 0
    outer loop
      vertex 70 0 0
      vertex 53.4333 0 -27.2539
      vertex 53.7964 0 -27.0599
    endloop
  endfacet
  facet normal 0 -1 0
    outer loop
      vertex 16.8849 0 -27.5151
      vertex 53.4333 0 -27.2539
      vertex 16.5667 0 -27.2539
    endloop
  endfacet
  facet normal 0 -1 0
    outer loop
      vertex 16.8849 0 -27.5151
      vertex 53.1151 0 -27.5151
      vertex 53.4333 0 -27.2539
    endloop
  endfacet
  facet normal 0 -1 0
    outer loop
      vertex 17.1461 0 -27.8333
      vertex 53.1151 0 -27.5151
      vertex 16.8849 0 -27.5151
    endloop
  endfacet
  facet normal 0 -1 0
    outer loop
      vertex 17.1461 0 -27.8333
      vertex 52.8539 0 -27.8333
      vertex 53.1151 0 -27.5151
    endloop
  endfacet
  facet normal 0 -1 0
    outer loop
      vertex 17.3401 0 -28.1964
      vertex 52.8539 0 -27.8333
      vertex 17.1461 0 -27.8333
    endloop
  endfacet
  facet normal 0 -1 0
    outer loop
      vertex 17.3401 0 -28.1964
      vertex 52.6599 0 -28.1964
      vertex 52.8539 0 -27.8333
    endloop
  endfacet
  facet normal 0 -1 0
    outer loop
      vertex 17.4596 0 -28.5903
      vertex 52.6599 0 -28.1964
      vertex 17.3401 0 -28.1964
    endloop
  endfacet
  facet normal 0 -1 0
    outer loop
      vertex 17.4596 0 -28.5903
      vertex 52.5404 0 -28.5903
      vertex 52.6599 0 -28.1964
    endloop
  endfacet
  facet normal 0 -1 0
    outer loop
      vertex 17.5 0 -29
      vertex 52.5404 0 -28.5903
      vertex 17.4596 0 -28.5903
    endloop
  endfacet
  facet normal 0 -1 0
    outer loop
      vertex 17.5 0 -29
      vertex 52.5 0 -29
      vertex 52.5404 0 -28.5903
    endloop
  endfacet
  facet normal 0 -1 0
    outer loop
      vertex 17.4596 0 -29.4097
      vertex 52.5 0 -29
      vertex 17.5 0 -29
    endloop
  endfacet
  facet normal 0 -1 0
    outer loop
      vertex 17.4596 0 -29.4097
      vertex 52.5404 0 -29.4097
      vertex 52.5 0 -29
    endloop
  endfacet
  facet normal 0 -1 0
    outer loop
      vertex 17.3401 0 -29.8036
      vertex 52.5404 0 -29.4097
      vertex 17.4596 0 -29.4097
    endloop
  endfacet
  facet normal 0 -1 0
    outer loop
      vertex 17.3401 0 -29.8036
      vertex 52.6599 0 -29.8036
      vertex 52.5404 0 -29.4097
    endloop
  endfacet
  facet normal 0 -1 0
    outer loop
      vertex 17.1461 0 -30.1667
      vertex 52.6599 0 -29.8036
      vertex 17.3401 0 -29.8036
    endloop
  endfacet
  facet normal 0 -1 0
    outer loop
      vertex 17.1461 0 -30.1667
      vertex 52.8539 0 -30.1667
      vertex 52.6599 0 -29.8036
    endloop
  endfacet
  facet normal 0 -1 0
    outer loop
      vertex 16.8849 0 -30.4849
      vertex 52.8539 0 -30.1667
      vertex 17.1461 0 -30.1667
    endloop
  endfacet
  facet normal 0 -1 0
    outer loop
      vertex 16.8849 0 -30.4849
      vertex 53.1151 0 -30.4849
      vertex 52.8539 0 -30.1667
    endloop
  endfacet
  facet normal 0 -1 0
    outer loop
      vertex 16.5667 0 -30.7461
      vertex 53.1151 0 -30.4849
      vertex 16.8849 0 -30.4849
    endloop
  endfacet
  facet normal 0 -1 0
    outer loop
      vertex 16.5667 0 -30.7461
      vertex 53.4333 0 -30.7461
      vertex 53.1151 0 -30.4849
    endloop
  endfacet
  facet normal 0 -1 0
    outer loop
      vertex 0 0 -54
      vertex 16.5667 0 -30.7461
      vertex 16.2036 0 -30.9401
    endloop
  endfacet
  facet normal 0 -1 -0
    outer loop
      vertex 16.5667 0 -30.7461
      vertex 0 0 -54
      vertex 53.4333 0 -30.7461
    endloop
  endfacet
  facet normal 0 -1 0
    outer loop
      vertex 0 0 -54
      vertex 16.2036 0 -30.9401
      vertex 15.8097 0 -31.0596
    endloop
  endfacet
  facet normal 0 -1 0
    outer loop
      vertex 70 0 -54
      vertex 53.4333 0 -30.7461
      vertex 0 0 -54
    endloop
  endfacet
  facet normal 0 -1 0
    outer loop
      vertex 0 0 -54
      vertex 15.8097 0 -31.0596
      vertex 15.4 0 -31.1
    endloop
  endfacet
  facet normal 0 -1 0
    outer loop
      vertex 53.4333 0 -30.7461
      vertex 70 0 -54
      vertex 53.7964 0 -30.9401
    endloop
  endfacet
  facet normal 0 -1 0
    outer loop
      vertex 15.8097 0 -26.9404
      vertex 0 0 0
      vertex 15.4 0 -26.9
    endloop
  endfacet
  facet normal 0 -1 0
    outer loop
      vertex 0 0 0
      vertex 14.9903 0 -26.9404
      vertex 15.4 0 -26.9
    endloop
  endfacet
  facet normal 0 -1 0
    outer loop
      vertex 0 0 0
      vertex 14.5964 0 -27.0599
      vertex 14.9903 0 -26.9404
    endloop
  endfacet
  facet normal 0 -1 0
    outer loop
      vertex 0 0 0
      vertex 14.2333 0 -27.2539
      vertex 14.5964 0 -27.0599
    endloop
  endfacet
  facet normal 0 -1 0
    outer loop
      vertex 0 0 0
      vertex 13.9151 0 -27.5151
      vertex 14.2333 0 -27.2539
    endloop
  endfacet
  facet normal 0 -1 0
    outer loop
      vertex 0 0 0
      vertex 13.6539 0 -27.8333
      vertex 13.9151 0 -27.5151
    endloop
  endfacet
  facet normal 0 -1 0
    outer loop
      vertex 0 0 0
      vertex 13.4599 0 -28.1964
      vertex 13.6539 0 -27.8333
    endloop
  endfacet
  facet normal 0 -1 0
    outer loop
      vertex 0 0 0
      vertex 13.3404 0 -28.5903
      vertex 13.4599 0 -28.1964
    endloop
  endfacet
  facet normal 0 -1 0
    outer loop
      vertex 0 0 0
      vertex 13.3 0 -29
      vertex 13.3404 0 -28.5903
    endloop
  endfacet
  facet normal 0 -1 0
    outer loop
      vertex 0 0 -54
      vertex 13.3 0 -29
      vertex 0 0 0
    endloop
  endfacet
  facet normal 0 -1 -0
    outer loop
      vertex 13.3 0 -29
      vertex 0 0 -54
      vertex 13.3404 0 -29.4097
    endloop
  endfacet
  facet normal 0 -1 0
    outer loop
      vertex 53.7964 0 -30.9401
      vertex 70 0 -54
      vertex 54.1903 0 -31.0596
    endloop
  endfacet
  facet normal 0 -1 -0
    outer loop
      vertex 14.9903 0 -31.0596
      vertex 0 0 -54
      vertex 15.4 0 -31.1
    endloop
  endfacet
  facet normal 0 -1 -0
    outer loop
      vertex 14.5964 0 -30.9401
      vertex 0 0 -54
      vertex 14.9903 0 -31.0596
    endloop
  endfacet
  facet normal 0 -1 -0
    outer loop
      vertex 14.2333 0 -30.7461
      vertex 0 0 -54
      vertex 14.5964 0 -30.9401
    endloop
  endfacet
  facet normal 0 -1 -0
    outer loop
      vertex 13.9151 0 -30.4849
      vertex 0 0 -54
      vertex 14.2333 0 -30.7461
    endloop
  endfacet
  facet normal 0 -1 -0
    outer loop
      vertex 13.6539 0 -30.1667
      vertex 0 0 -54
      vertex 13.9151 0 -30.4849
    endloop
  endfacet
  facet normal 0 -1 -0
    outer loop
      vertex 13.4599 0 -29.8036
      vertex 0 0 -54
      vertex 13.6539 0 -30.1667
    endloop
  endfacet
  facet normal 0 -1 -0
    outer loop
      vertex 13.3404 0 -29.4097
      vertex 0 0 -54
      vertex 13.4599 0 -29.8036
    endloop
  endfacet
  facet normal 0 -1 0
    outer loop
      vertex 16.2036 0 -27.0599
      vertex 0 0 0
      vertex 15.8097 0 -26.9404
    endloop
  endfacet
  facet normal 0 -1 0
    outer loop
      vertex 55.0097 0 -26.9404
      vertex 70 0 0
      vertex 54.6 0 -26.9
    endloop
  endfacet
  facet normal 0 -1 0
    outer loop
      vertex 55.4036 0 -27.0599
      vertex 70 0 0
      vertex 55.0097 0 -26.9404
    endloop
  endfacet
  facet normal 0 -1 0
    outer loop
      vertex 55.7667 0 -27.2539
      vertex 70 0 0
      vertex 55.4036 0 -27.0599
    endloop
  endfacet
  facet normal 0 -1 0
    outer loop
      vertex 56.0849 0 -27.5151
      vertex 70 0 0
      vertex 55.7667 0 -27.2539
    endloop
  endfacet
  facet normal 0 -1 0
    outer loop
      vertex 56.3461 0 -27.8333
      vertex 70 0 0
      vertex 56.0849 0 -27.5151
    endloop
  endfacet
  facet normal 0 -1 0
    outer loop
      vertex 56.5401 0 -28.1964
      vertex 70 0 0
      vertex 56.3461 0 -27.8333
    endloop
  endfacet
  facet normal 0 -1 0
    outer loop
      vertex 56.6596 0 -28.5903
      vertex 70 0 0
      vertex 56.5401 0 -28.1964
    endloop
  endfacet
  facet normal 0 -1 0
    outer loop
      vertex 56.7 0 -29
      vertex 70 0 0
      vertex 56.6596 0 -28.5903
    endloop
  endfacet
  facet normal 0 -1 0
    outer loop
      vertex 70 0 -54
      vertex 56.7 0 -29
      vertex 56.6596 0 -29.4097
    endloop
  endfacet
  facet normal 0 -1 0
    outer loop
      vertex 70 0 -54
      vertex 56.6596 0 -29.4097
      vertex 56.5401 0 -29.8036
    endloop
  endfacet
  facet normal 0 -1 0
    outer loop
      vertex 54.1903 0 -31.0596
      vertex 70 0 -54
      vertex 54.6 0 -31.1
    endloop
  endfacet
  facet normal 0 -1 0
    outer loop
      vertex 54.6 0 -31.1
      vertex 70 0 -54
      vertex 55.0097 0 -31.0596
    endloop
  endfacet
  facet normal 0 -1 0
    outer loop
      vertex 56.7 0 -29
      vertex 70 0 -54
      vertex 70 0 0
    endloop
  endfacet
  facet normal 0 -1 0
    outer loop
      vertex 56.3461 0 -30.1667
      vertex 70 0 -54
      vertex 56.5401 0 -29.8036
    endloop
  endfacet
  facet normal 0 -1 0
    outer loop
      vertex 56.0849 0 -30.4849
      vertex 70 0 -54
      vertex 56.3461 0 -30.1667
    endloop
  endfacet
  facet normal 0 -1 0
    outer loop
      vertex 55.7667 0 -30.7461
      vertex 70 0 -54
      vertex 56.0849 0 -30.4849
    endloop
  endfacet
  facet normal 0 -1 0
    outer loop
      vertex 55.4036 0 -30.9401
      vertex 70 0 -54
      vertex 55.7667 0 -30.7461
    endloop
  endfacet
  facet normal 0 -1 0
    outer loop
      vertex 55.0097 0 -31.0596
      vertex 70 0 -54
      vertex 55.4036 0 -30.9401
    endloop
  endfacet
  facet normal 0 0 -1
    outer loop
      vertex 0 0 -54
      vertex 70 5 -54
      vertex 70 0 -54
    endloop
  endfacet
  facet normal -0 0 -1
    outer loop
      vertex 70 5 -54
      vertex 0 0 -54
      vertex 0 5 -54
    endloop
  endfacet
  facet normal 0.471244 0 -0.882003
    outer loop
      vertex 14.2333 0 -27.2539
      vertex 14.5964 2.9 -27.0599
      vertex 14.5964 0 -27.0599
    endloop
  endfacet
  facet normal 0.471244 0 -0.882003
    outer loop
      vertex 14.5964 2.9 -27.0599
      vertex 14.2333 0 -27.2539
      vertex 14.2333 2.9 -27.2539
    endloop
  endfacet
  facet normal -0.471244 0 -0.882003
    outer loop
      vertex 16.2036 0 -27.0599
      vertex 16.5667 2.9 -27.2539
      vertex 16.5667 0 -27.2539
    endloop
  endfacet
  facet normal -0.471244 0 -0.882003
    outer loop
      vertex 16.5667 2.9 -27.2539
      vertex 16.2036 0 -27.0599
      vertex 16.2036 2.9 -27.0599
    endloop
  endfacet
  facet normal -0.956932 0 -0.290311
    outer loop
      vertex 17.4596 0 -28.5903
      vertex 17.3401 2.9 -28.1964
      vertex 17.4596 2.9 -28.5903
    endloop
  endfacet
  facet normal -0.956932 -0 -0.290311
    outer loop
      vertex 17.3401 2.9 -28.1964
      vertex 17.4596 0 -28.5903
      vertex 17.3401 0 -28.1964
    endloop
  endfacet
  facet normal -0.995173 0 -0.0981328
    outer loop
      vertex 17.5 0 -29
      vertex 17.4596 2.9 -28.5903
      vertex 17.5 2.9 -29
    endloop
  endfacet
  facet normal -0.995173 -0 -0.0981328
    outer loop
      vertex 17.4596 2.9 -28.5903
      vertex 17.5 0 -29
      vertex 17.4596 0 -28.5903
    endloop
  endfacet
  facet normal -0.882003 0 -0.471244
    outer loop
      vertex 17.3401 0 -28.1964
      vertex 17.1461 2.9 -27.8333
      vertex 17.3401 2.9 -28.1964
    endloop
  endfacet
  facet normal -0.882003 -0 -0.471244
    outer loop
      vertex 17.1461 2.9 -27.8333
      vertex 17.3401 0 -28.1964
      vertex 17.1461 0 -27.8333
    endloop
  endfacet
  facet normal -0.0981328 0 -0.995173
    outer loop
      vertex 15.4 0 -26.9
      vertex 15.8097 2.9 -26.9404
      vertex 15.8097 0 -26.9404
    endloop
  endfacet
  facet normal -0.0981328 0 -0.995173
    outer loop
      vertex 15.8097 2.9 -26.9404
      vertex 15.4 0 -26.9
      vertex 15.4 2.9 -26.9
    endloop
  endfacet
  facet normal -0.0981328 0 0.995173
    outer loop
      vertex 15.4 2.9 -31.1
      vertex 15.8097 0 -31.0596
      vertex 15.8097 2.9 -31.0596
    endloop
  endfacet
  facet normal -0.0981328 0 0.995173
    outer loop
      vertex 15.8097 0 -31.0596
      vertex 15.4 2.9 -31.1
      vertex 15.4 0 -31.1
    endloop
  endfacet
  facet normal -0.290311 0 -0.956932
    outer loop
      vertex 15.8097 0 -26.9404
      vertex 16.2036 2.9 -27.0599
      vertex 16.2036 0 -27.0599
    endloop
  endfacet
  facet normal -0.290311 0 -0.956932
    outer loop
      vertex 16.2036 2.9 -27.0599
      vertex 15.8097 0 -26.9404
      vertex 15.8097 2.9 -26.9404
    endloop
  endfacet
  facet normal -0.63448 0 -0.772939
    outer loop
      vertex 16.5667 0 -27.2539
      vertex 16.8849 2.9 -27.5151
      vertex 16.8849 0 -27.5151
    endloop
  endfacet
  facet normal -0.63448 0 -0.772939
    outer loop
      vertex 16.8849 2.9 -27.5151
      vertex 16.5667 0 -27.2539
      vertex 16.5667 2.9 -27.2539
    endloop
  endfacet
  facet normal -0.772939 0 0.63448
    outer loop
      vertex 16.8849 0 -30.4849
      vertex 17.1461 2.9 -30.1667
      vertex 16.8849 2.9 -30.4849
    endloop
  endfacet
  facet normal -0.772939 0 0.63448
    outer loop
      vertex 17.1461 2.9 -30.1667
      vertex 16.8849 0 -30.4849
      vertex 17.1461 0 -30.1667
    endloop
  endfacet
  facet normal 0.63448 0 -0.772939
    outer loop
      vertex 13.9151 0 -27.5151
      vertex 14.2333 2.9 -27.2539
      vertex 14.2333 0 -27.2539
    endloop
  endfacet
  facet normal 0.63448 0 -0.772939
    outer loop
      vertex 14.2333 2.9 -27.2539
      vertex 13.9151 0 -27.5151
      vertex 13.9151 2.9 -27.5151
    endloop
  endfacet
  facet normal -0.471244 0 0.882003
    outer loop
      vertex 16.2036 2.9 -30.9401
      vertex 16.5667 0 -30.7461
      vertex 16.5667 2.9 -30.7461
    endloop
  endfacet
  facet normal -0.471244 0 0.882003
    outer loop
      vertex 16.5667 0 -30.7461
      vertex 16.2036 2.9 -30.9401
      vertex 16.2036 0 -30.9401
    endloop
  endfacet
  facet normal 0.882003 -0 0.471244
    outer loop
      vertex 13.4599 0 -29.8036
      vertex 13.6539 2.9 -30.1667
      vertex 13.4599 2.9 -29.8036
    endloop
  endfacet
  facet normal 0.882003 0 0.471244
    outer loop
      vertex 13.6539 2.9 -30.1667
      vertex 13.4599 0 -29.8036
      vertex 13.6539 0 -30.1667
    endloop
  endfacet
  facet normal -0.995173 0 0.0981328
    outer loop
      vertex 17.4596 0 -29.4097
      vertex 17.5 2.9 -29
      vertex 17.4596 2.9 -29.4097
    endloop
  endfacet
  facet normal -0.995173 0 0.0981328
    outer loop
      vertex 17.5 2.9 -29
      vertex 17.4596 0 -29.4097
      vertex 17.5 0 -29
    endloop
  endfacet
  facet normal 0.290311 0 -0.956932
    outer loop
      vertex 14.5964 0 -27.0599
      vertex 14.9903 2.9 -26.9404
      vertex 14.9903 0 -26.9404
    endloop
  endfacet
  facet normal 0.290311 0 -0.956932
    outer loop
      vertex 14.9903 2.9 -26.9404
      vertex 14.5964 0 -27.0599
      vertex 14.5964 2.9 -27.0599
    endloop
  endfacet
  facet normal 0.0981328 0 0.995173
    outer loop
      vertex 14.9903 2.9 -31.0596
      vertex 15.4 0 -31.1
      vertex 15.4 2.9 -31.1
    endloop
  endfacet
  facet normal 0.0981328 0 0.995173
    outer loop
      vertex 15.4 0 -31.1
      vertex 14.9903 2.9 -31.0596
      vertex 14.9903 0 -31.0596
    endloop
  endfacet
  facet normal 0.882003 0 -0.471244
    outer loop
      vertex 13.6539 0 -27.8333
      vertex 13.4599 2.9 -28.1964
      vertex 13.6539 2.9 -27.8333
    endloop
  endfacet
  facet normal 0.882003 0 -0.471244
    outer loop
      vertex 13.4599 2.9 -28.1964
      vertex 13.6539 0 -27.8333
      vertex 13.4599 0 -28.1964
    endloop
  endfacet
  facet normal -0.290311 0 0.956932
    outer loop
      vertex 15.8097 2.9 -31.0596
      vertex 16.2036 0 -30.9401
      vertex 16.2036 2.9 -30.9401
    endloop
  endfacet
  facet normal -0.290311 0 0.956932
    outer loop
      vertex 16.2036 0 -30.9401
      vertex 15.8097 2.9 -31.0596
      vertex 15.8097 0 -31.0596
    endloop
  endfacet
  facet normal 0.290311 0 0.956932
    outer loop
      vertex 14.5964 2.9 -30.9401
      vertex 14.9903 0 -31.0596
      vertex 14.9903 2.9 -31.0596
    endloop
  endfacet
  facet normal 0.290311 0 0.956932
    outer loop
      vertex 14.9903 0 -31.0596
      vertex 14.5964 2.9 -30.9401
      vertex 14.5964 0 -30.9401
    endloop
  endfacet
  facet normal -0.956932 0 0.290311
    outer loop
      vertex 17.3401 0 -29.8036
      vertex 17.4596 2.9 -29.4097
      vertex 17.3401 2.9 -29.8036
    endloop
  endfacet
  facet normal -0.956932 0 0.290311
    outer loop
      vertex 17.4596 2.9 -29.4097
      vertex 17.3401 0 -29.8036
      vertex 17.4596 0 -29.4097
    endloop
  endfacet
  facet normal -0.772939 0 -0.63448
    outer loop
      vertex 17.1461 0 -27.8333
      vertex 16.8849 2.9 -27.5151
      vertex 17.1461 2.9 -27.8333
    endloop
  endfacet
  facet normal -0.772939 -0 -0.63448
    outer loop
      vertex 16.8849 2.9 -27.5151
      vertex 17.1461 0 -27.8333
      vertex 16.8849 0 -27.5151
    endloop
  endfacet
  facet normal 0.995173 0 -0.0981328
    outer loop
      vertex 13.3404 0 -28.5903
      vertex 13.3 2.9 -29
      vertex 13.3404 2.9 -28.5903
    endloop
  endfacet
  facet normal 0.995173 0 -0.0981328
    outer loop
      vertex 13.3 2.9 -29
      vertex 13.3404 0 -28.5903
      vertex 13.3 0 -29
    endloop
  endfacet
  facet normal -0.63448 0 0.772939
    outer loop
      vertex 16.5667 2.9 -30.7461
      vertex 16.8849 0 -30.4849
      vertex 16.8849 2.9 -30.4849
    endloop
  endfacet
  facet normal -0.63448 0 0.772939
    outer loop
      vertex 16.8849 0 -30.4849
      vertex 16.5667 2.9 -30.7461
      vertex 16.5667 0 -30.7461
    endloop
  endfacet
  facet normal 0.63448 0 0.772939
    outer loop
      vertex 13.9151 2.9 -30.4849
      vertex 14.2333 0 -30.7461
      vertex 14.2333 2.9 -30.7461
    endloop
  endfacet
  facet normal 0.63448 0 0.772939
    outer loop
      vertex 14.2333 0 -30.7461
      vertex 13.9151 2.9 -30.4849
      vertex 13.9151 0 -30.4849
    endloop
  endfacet
  facet normal 0.0981328 0 -0.995173
    outer loop
      vertex 14.9903 0 -26.9404
      vertex 15.4 2.9 -26.9
      vertex 15.4 0 -26.9
    endloop
  endfacet
  facet normal 0.0981328 0 -0.995173
    outer loop
      vertex 15.4 2.9 -26.9
      vertex 14.9903 0 -26.9404
      vertex 14.9903 2.9 -26.9404
    endloop
  endfacet
  facet normal -0.882003 0 0.471244
    outer loop
      vertex 17.1461 0 -30.1667
      vertex 17.3401 2.9 -29.8036
      vertex 17.1461 2.9 -30.1667
    endloop
  endfacet
  facet normal -0.882003 0 0.471244
    outer loop
      vertex 17.3401 2.9 -29.8036
      vertex 17.1461 0 -30.1667
      vertex 17.3401 0 -29.8036
    endloop
  endfacet
  facet normal 0.956932 -0 0.290311
    outer loop
      vertex 13.3404 0 -29.4097
      vertex 13.4599 2.9 -29.8036
      vertex 13.3404 2.9 -29.4097
    endloop
  endfacet
  facet normal 0.956932 0 0.290311
    outer loop
      vertex 13.4599 2.9 -29.8036
      vertex 13.3404 0 -29.4097
      vertex 13.4599 0 -29.8036
    endloop
  endfacet
  facet normal 0.995173 -0 0.0981328
    outer loop
      vertex 13.3 0 -29
      vertex 13.3404 2.9 -29.4097
      vertex 13.3 2.9 -29
    endloop
  endfacet
  facet normal 0.995173 0 0.0981328
    outer loop
      vertex 13.3404 2.9 -29.4097
      vertex 13.3 0 -29
      vertex 13.3404 0 -29.4097
    endloop
  endfacet
  facet normal 0.772939 -0 0.63448
    outer loop
      vertex 13.6539 0 -30.1667
      vertex 13.9151 2.9 -30.4849
      vertex 13.6539 2.9 -30.1667
    endloop
  endfacet
  facet normal 0.772939 0 0.63448
    outer loop
      vertex 13.9151 2.9 -30.4849
      vertex 13.6539 0 -30.1667
      vertex 13.9151 0 -30.4849
    endloop
  endfacet
  facet normal 0.772939 0 -0.63448
    outer loop
      vertex 13.9151 0 -27.5151
      vertex 13.6539 2.9 -27.8333
      vertex 13.9151 2.9 -27.5151
    endloop
  endfacet
  facet normal 0.772939 0 -0.63448
    outer loop
      vertex 13.6539 2.9 -27.8333
      vertex 13.9151 0 -27.5151
      vertex 13.6539 0 -27.8333
    endloop
  endfacet
  facet normal 0.956932 0 -0.290311
    outer loop
      vertex 13.4599 0 -28.1964
      vertex 13.3404 2.9 -28.5903
      vertex 13.4599 2.9 -28.1964
    endloop
  endfacet
  facet normal 0.956932 0 -0.290311
    outer loop
      vertex 13.3404 2.9 -28.5903
      vertex 13.4599 0 -28.1964
      vertex 13.3404 0 -28.5903
    endloop
  endfacet
  facet normal 0.471244 0 0.882003
    outer loop
      vertex 14.2333 2.9 -30.7461
      vertex 14.5964 0 -30.9401
      vertex 14.5964 2.9 -30.9401
    endloop
  endfacet
  facet normal 0.471244 0 0.882003
    outer loop
      vertex 14.5964 0 -30.9401
      vertex 14.2333 2.9 -30.7461
      vertex 14.2333 0 -30.7461
    endloop
  endfacet
  facet normal 0.471435 0 -0.881901
    outer loop
      vertex 13.0388 2.9 -25.4663
      vertex 13.7736 5 -25.0735
      vertex 13.7736 2.9 -25.0735
    endloop
  endfacet
  facet normal 0.471435 0 -0.881901
    outer loop
      vertex 13.7736 5 -25.0735
      vertex 13.0388 2.9 -25.4663
      vertex 13.0388 5 -25.4663
    endloop
  endfacet
  facet normal -0.95696 0 -0.290221
    outer loop
      vertex 19.5683 2.9 -28.1709
      vertex 19.3265 5 -27.3736
      vertex 19.5683 5 -28.1709
    endloop
  endfacet
  facet normal -0.95696 -0 -0.290221
    outer loop
      vertex 19.3265 5 -27.3736
      vertex 19.5683 2.9 -28.1709
      vertex 19.3265 2.9 -27.3736
    endloop
  endfacet
  facet normal -0.99518 0 -0.0980656
    outer loop
      vertex 19.65 2.9 -29
      vertex 19.5683 5 -28.1709
      vertex 19.65 5 -29
    endloop
  endfacet
  facet normal -0.99518 -0 -0.0980656
    outer loop
      vertex 19.5683 5 -28.1709
      vertex 19.65 2.9 -29
      vertex 19.5683 2.9 -28.1709
    endloop
  endfacet
  facet normal -0.881901 0 -0.471435
    outer loop
      vertex 19.3265 2.9 -27.3736
      vertex 18.9337 5 -26.6388
      vertex 19.3265 5 -27.3736
    endloop
  endfacet
  facet normal -0.881901 -0 -0.471435
    outer loop
      vertex 18.9337 5 -26.6388
      vertex 19.3265 2.9 -27.3736
      vertex 18.9337 2.9 -26.6388
    endloop
  endfacet
  facet normal 0.95696 -0 0.290221
    outer loop
      vertex 11.2317 2.9 -29.8291
      vertex 11.4735 5 -30.6264
      vertex 11.2317 5 -29.8291
    endloop
  endfacet
  facet normal 0.95696 0 0.290221
    outer loop
      vertex 11.4735 5 -30.6264
      vertex 11.2317 2.9 -29.8291
      vertex 11.4735 2.9 -30.6264
    endloop
  endfacet
  facet normal -0.0980656 0 -0.99518
    outer loop
      vertex 15.4 2.9 -24.75
      vertex 16.2291 5 -24.8317
      vertex 16.2291 2.9 -24.8317
    endloop
  endfacet
  facet normal -0.0980656 0 -0.99518
    outer loop
      vertex 16.2291 5 -24.8317
      vertex 15.4 2.9 -24.75
      vertex 15.4 5 -24.75
    endloop
  endfacet
  facet normal -0.471435 0 0.881901
    outer loop
      vertex 17.0264 5 -32.9265
      vertex 17.7612 2.9 -32.5337
      vertex 17.7612 5 -32.5337
    endloop
  endfacet
  facet normal -0.471435 0 0.881901
    outer loop
      vertex 17.7612 2.9 -32.5337
      vertex 17.0264 5 -32.9265
      vertex 17.0264 2.9 -32.9265
    endloop
  endfacet
  facet normal 0.881901 0 -0.471435
    outer loop
      vertex 11.8663 2.9 -26.6388
      vertex 11.4735 5 -27.3736
      vertex 11.8663 5 -26.6388
    endloop
  endfacet
  facet normal 0.881901 0 -0.471435
    outer loop
      vertex 11.4735 5 -27.3736
      vertex 11.8663 2.9 -26.6388
      vertex 11.4735 2.9 -27.3736
    endloop
  endfacet
  facet normal -0.773021 0 -0.634381
    outer loop
      vertex 18.9337 2.9 -26.6388
      vertex 18.4052 5 -25.9948
      vertex 18.9337 5 -26.6388
    endloop
  endfacet
  facet normal -0.773021 -0 -0.634381
    outer loop
      vertex 18.4052 5 -25.9948
      vertex 18.9337 2.9 -26.6388
      vertex 18.4052 2.9 -25.9948
    endloop
  endfacet
  facet normal -0.95696 0 0.290221
    outer loop
      vertex 19.3265 2.9 -30.6264
      vertex 19.5683 5 -29.8291
      vertex 19.3265 5 -30.6264
    endloop
  endfacet
  facet normal -0.95696 0 0.290221
    outer loop
      vertex 19.5683 5 -29.8291
      vertex 19.3265 2.9 -30.6264
      vertex 19.5683 2.9 -29.8291
    endloop
  endfacet
  facet normal 0.881901 -0 0.471435
    outer loop
      vertex 11.4735 2.9 -30.6264
      vertex 11.8663 5 -31.3612
      vertex 11.4735 5 -30.6264
    endloop
  endfacet
  facet normal 0.881901 0 0.471435
    outer loop
      vertex 11.8663 5 -31.3612
      vertex 11.4735 2.9 -30.6264
      vertex 11.8663 2.9 -31.3612
    endloop
  endfacet
  facet normal -0.99518 0 0.0980656
    outer loop
      vertex 19.5683 2.9 -29.8291
      vertex 19.65 5 -29
      vertex 19.5683 5 -29.8291
    endloop
  endfacet
  facet normal -0.99518 0 0.0980656
    outer loop
      vertex 19.65 5 -29
      vertex 19.5683 2.9 -29.8291
      vertex 19.65 2.9 -29
    endloop
  endfacet
  facet normal -0.471435 0 -0.881901
    outer loop
      vertex 17.0264 2.9 -25.0735
      vertex 17.7612 5 -25.4663
      vertex 17.7612 2.9 -25.4663
    endloop
  endfacet
  facet normal -0.471435 0 -0.881901
    outer loop
      vertex 17.7612 5 -25.4663
      vertex 17.0264 2.9 -25.0735
      vertex 17.0264 5 -25.0735
    endloop
  endfacet
  facet normal -0.634381 0 -0.773021
    outer loop
      vertex 17.7612 2.9 -25.4663
      vertex 18.4052 5 -25.9948
      vertex 18.4052 2.9 -25.9948
    endloop
  endfacet
  facet normal -0.634381 0 -0.773021
    outer loop
      vertex 18.4052 5 -25.9948
      vertex 17.7612 2.9 -25.4663
      vertex 17.7612 5 -25.4663
    endloop
  endfacet
  facet normal 0 1 0
    outer loop
      vertex 15.4 2.9 -26.9
      vertex 15.4 2.9 -24.75
      vertex 16.2291 2.9 -24.8317
    endloop
  endfacet
  facet normal 0 1 0
    outer loop
      vertex 15.8097 2.9 -26.9404
      vertex 16.2291 2.9 -24.8317
      vertex 17.0264 2.9 -25.0735
    endloop
  endfacet
  facet normal 0 1 0
    outer loop
      vertex 15.4 2.9 -24.75
      vertex 15.4 2.9 -26.9
      vertex 14.5709 2.9 -24.8317
    endloop
  endfacet
  facet normal 0 1 0
    outer loop
      vertex 16.2036 2.9 -27.0599
      vertex 17.0264 2.9 -25.0735
      vertex 17.7612 2.9 -25.4663
    endloop
  endfacet
  facet normal 0 1 -0
    outer loop
      vertex 14.9903 2.9 -26.9404
      vertex 14.5709 2.9 -24.8317
      vertex 15.4 2.9 -26.9
    endloop
  endfacet
  facet normal 0 1 0
    outer loop
      vertex 16.5667 2.9 -27.2539
      vertex 17.7612 2.9 -25.4663
      vertex 18.4052 2.9 -25.9948
    endloop
  endfacet
  facet normal 0 1 0
    outer loop
      vertex 14.5709 2.9 -24.8317
      vertex 14.9903 2.9 -26.9404
      vertex 13.7736 2.9 -25.0735
    endloop
  endfacet
  facet normal 0 1 0
    outer loop
      vertex 16.8849 2.9 -27.5151
      vertex 18.4052 2.9 -25.9948
      vertex 18.9337 2.9 -26.6388
    endloop
  endfacet
  facet normal 0 1 -0
    outer loop
      vertex 14.5964 2.9 -27.0599
      vertex 13.7736 2.9 -25.0735
      vertex 14.9903 2.9 -26.9404
    endloop
  endfacet
  facet normal 0 1 0
    outer loop
      vertex 13.7736 2.9 -25.0735
      vertex 14.5964 2.9 -27.0599
      vertex 13.0388 2.9 -25.4663
    endloop
  endfacet
  facet normal 0 1 0
    outer loop
      vertex 16.2291 2.9 -24.8317
      vertex 15.8097 2.9 -26.9404
      vertex 15.4 2.9 -26.9
    endloop
  endfacet
  facet normal 0 1 0
    outer loop
      vertex 17.0264 2.9 -25.0735
      vertex 16.2036 2.9 -27.0599
      vertex 15.8097 2.9 -26.9404
    endloop
  endfacet
  facet normal 0 1 0
    outer loop
      vertex 17.7612 2.9 -25.4663
      vertex 16.5667 2.9 -27.2539
      vertex 16.2036 2.9 -27.0599
    endloop
  endfacet
  facet normal 0 1 0
    outer loop
      vertex 17.1461 2.9 -27.8333
      vertex 18.9337 2.9 -26.6388
      vertex 19.3265 2.9 -27.3736
    endloop
  endfacet
  facet normal 0 1 0
    outer loop
      vertex 18.4052 2.9 -25.9948
      vertex 16.8849 2.9 -27.5151
      vertex 16.5667 2.9 -27.2539
    endloop
  endfacet
  facet normal 0 1 0
    outer loop
      vertex 18.9337 2.9 -26.6388
      vertex 17.1461 2.9 -27.8333
      vertex 16.8849 2.9 -27.5151
    endloop
  endfacet
  facet normal 0 1 0
    outer loop
      vertex 17.3401 2.9 -28.1964
      vertex 19.3265 2.9 -27.3736
      vertex 19.5683 2.9 -28.1709
    endloop
  endfacet
  facet normal 0 1 0
    outer loop
      vertex 19.3265 2.9 -27.3736
      vertex 17.3401 2.9 -28.1964
      vertex 17.1461 2.9 -27.8333
    endloop
  endfacet
  facet normal 0 1 0
    outer loop
      vertex 19.5683 2.9 -28.1709
      vertex 17.4596 2.9 -28.5903
      vertex 17.3401 2.9 -28.1964
    endloop
  endfacet
  facet normal 0 1 0
    outer loop
      vertex 19.65 2.9 -29
      vertex 17.4596 2.9 -28.5903
      vertex 19.5683 2.9 -28.1709
    endloop
  endfacet
  facet normal 0 1 0
    outer loop
      vertex 19.65 2.9 -29
      vertex 17.5 2.9 -29
      vertex 17.4596 2.9 -28.5903
    endloop
  endfacet
  facet normal 0 1 0
    outer loop
      vertex 19.65 2.9 -29
      vertex 17.4596 2.9 -29.4097
      vertex 17.5 2.9 -29
    endloop
  endfacet
  facet normal 0 1 -0
    outer loop
      vertex 19.5683 2.9 -29.8291
      vertex 17.4596 2.9 -29.4097
      vertex 19.65 2.9 -29
    endloop
  endfacet
  facet normal 0 1 0
    outer loop
      vertex 17.4596 2.9 -29.4097
      vertex 19.5683 2.9 -29.8291
      vertex 17.3401 2.9 -29.8036
    endloop
  endfacet
  facet normal 0 1 -0
    outer loop
      vertex 19.3265 2.9 -30.6264
      vertex 17.3401 2.9 -29.8036
      vertex 19.5683 2.9 -29.8291
    endloop
  endfacet
  facet normal 0 1 0
    outer loop
      vertex 17.3401 2.9 -29.8036
      vertex 19.3265 2.9 -30.6264
      vertex 17.1461 2.9 -30.1667
    endloop
  endfacet
  facet normal 0 1 -0
    outer loop
      vertex 18.9337 2.9 -31.3612
      vertex 17.1461 2.9 -30.1667
      vertex 19.3265 2.9 -30.6264
    endloop
  endfacet
  facet normal 0 1 0
    outer loop
      vertex 17.1461 2.9 -30.1667
      vertex 18.9337 2.9 -31.3612
      vertex 16.8849 2.9 -30.4849
    endloop
  endfacet
  facet normal 0 1 -0
    outer loop
      vertex 18.4052 2.9 -32.0052
      vertex 16.8849 2.9 -30.4849
      vertex 18.9337 2.9 -31.3612
    endloop
  endfacet
  facet normal 0 1 0
    outer loop
      vertex 16.8849 2.9 -30.4849
      vertex 18.4052 2.9 -32.0052
      vertex 16.5667 2.9 -30.7461
    endloop
  endfacet
  facet normal 0 1 0
    outer loop
      vertex 16.5667 2.9 -30.7461
      vertex 17.7612 2.9 -32.5337
      vertex 16.2036 2.9 -30.9401
    endloop
  endfacet
  facet normal 0 1 -0
    outer loop
      vertex 17.7612 2.9 -32.5337
      vertex 16.5667 2.9 -30.7461
      vertex 18.4052 2.9 -32.0052
    endloop
  endfacet
  facet normal 0 1 -0
    outer loop
      vertex 14.2333 2.9 -27.2539
      vertex 13.0388 2.9 -25.4663
      vertex 14.5964 2.9 -27.0599
    endloop
  endfacet
  facet normal 0 1 0
    outer loop
      vertex 13.0388 2.9 -25.4663
      vertex 14.2333 2.9 -27.2539
      vertex 12.3948 2.9 -25.9948
    endloop
  endfacet
  facet normal 0 1 -0
    outer loop
      vertex 13.9151 2.9 -27.5151
      vertex 12.3948 2.9 -25.9948
      vertex 14.2333 2.9 -27.2539
    endloop
  endfacet
  facet normal 0 1 0
    outer loop
      vertex 12.3948 2.9 -25.9948
      vertex 13.9151 2.9 -27.5151
      vertex 11.8663 2.9 -26.6388
    endloop
  endfacet
  facet normal 0 1 -0
    outer loop
      vertex 13.6539 2.9 -27.8333
      vertex 11.8663 2.9 -26.6388
      vertex 13.9151 2.9 -27.5151
    endloop
  endfacet
  facet normal 0 1 0
    outer loop
      vertex 11.8663 2.9 -26.6388
      vertex 13.6539 2.9 -27.8333
      vertex 11.4735 2.9 -27.3736
    endloop
  endfacet
  facet normal 0 1 -0
    outer loop
      vertex 13.4599 2.9 -28.1964
      vertex 11.4735 2.9 -27.3736
      vertex 13.6539 2.9 -27.8333
    endloop
  endfacet
  facet normal 0 1 0
    outer loop
      vertex 11.4735 2.9 -27.3736
      vertex 13.4599 2.9 -28.1964
      vertex 11.2317 2.9 -28.1709
    endloop
  endfacet
  facet normal 0 1 -0
    outer loop
      vertex 13.3404 2.9 -28.5903
      vertex 11.2317 2.9 -28.1709
      vertex 13.4599 2.9 -28.1964
    endloop
  endfacet
  facet normal 0 1 -0
    outer loop
      vertex 13.3 2.9 -29
      vertex 11.2317 2.9 -28.1709
      vertex 13.3404 2.9 -28.5903
    endloop
  endfacet
  facet normal 0 1 0
    outer loop
      vertex 13.3 2.9 -29
      vertex 11.15 2.9 -29
      vertex 11.2317 2.9 -28.1709
    endloop
  endfacet
  facet normal 0 1 0
    outer loop
      vertex 13.3404 2.9 -29.4097
      vertex 11.15 2.9 -29
      vertex 13.3 2.9 -29
    endloop
  endfacet
  facet normal 0 1 0
    outer loop
      vertex 11.2317 2.9 -29.8291
      vertex 13.3404 2.9 -29.4097
      vertex 13.4599 2.9 -29.8036
    endloop
  endfacet
  facet normal 0 1 0
    outer loop
      vertex 13.3404 2.9 -29.4097
      vertex 11.2317 2.9 -29.8291
      vertex 11.15 2.9 -29
    endloop
  endfacet
  facet normal 0 1 0
    outer loop
      vertex 11.4735 2.9 -30.6264
      vertex 13.4599 2.9 -29.8036
      vertex 13.6539 2.9 -30.1667
    endloop
  endfacet
  facet normal 0 1 0
    outer loop
      vertex 11.8663 2.9 -31.3612
      vertex 13.6539 2.9 -30.1667
      vertex 13.9151 2.9 -30.4849
    endloop
  endfacet
  facet normal 0 1 0
    outer loop
      vertex 13.4599 2.9 -29.8036
      vertex 11.4735 2.9 -30.6264
      vertex 11.2317 2.9 -29.8291
    endloop
  endfacet
  facet normal 0 1 0
    outer loop
      vertex 12.3948 2.9 -32.0052
      vertex 13.9151 2.9 -30.4849
      vertex 14.2333 2.9 -30.7461
    endloop
  endfacet
  facet normal 0 1 0
    outer loop
      vertex 13.0388 2.9 -32.5337
      vertex 14.2333 2.9 -30.7461
      vertex 14.5964 2.9 -30.9401
    endloop
  endfacet
  facet normal 0 1 0
    outer loop
      vertex 13.7736 2.9 -32.9265
      vertex 14.5964 2.9 -30.9401
      vertex 14.9903 2.9 -31.0596
    endloop
  endfacet
  facet normal 0 1 0
    outer loop
      vertex 13.6539 2.9 -30.1667
      vertex 11.8663 2.9 -31.3612
      vertex 11.4735 2.9 -30.6264
    endloop
  endfacet
  facet normal 0 1 0
    outer loop
      vertex 14.5709 2.9 -33.1683
      vertex 14.9903 2.9 -31.0596
      vertex 15.4 2.9 -31.1
    endloop
  endfacet
  facet normal 0 1 -0
    outer loop
      vertex 17.0264 2.9 -32.9265
      vertex 16.2036 2.9 -30.9401
      vertex 17.7612 2.9 -32.5337
    endloop
  endfacet
  facet normal 0 1 0
    outer loop
      vertex 16.2036 2.9 -30.9401
      vertex 17.0264 2.9 -32.9265
      vertex 15.8097 2.9 -31.0596
    endloop
  endfacet
  facet normal 0 1 0
    outer loop
      vertex 13.9151 2.9 -30.4849
      vertex 12.3948 2.9 -32.0052
      vertex 11.8663 2.9 -31.3612
    endloop
  endfacet
  facet normal 0 1 -0
    outer loop
      vertex 16.2291 2.9 -33.1683
      vertex 15.8097 2.9 -31.0596
      vertex 17.0264 2.9 -32.9265
    endloop
  endfacet
  facet normal 0 1 0
    outer loop
      vertex 14.2333 2.9 -30.7461
      vertex 13.0388 2.9 -32.5337
      vertex 12.3948 2.9 -32.0052
    endloop
  endfacet
  facet normal 0 1 0
    outer loop
      vertex 15.8097 2.9 -31.0596
      vertex 16.2291 2.9 -33.1683
      vertex 15.4 2.9 -31.1
    endloop
  endfacet
  facet normal 0 1 0
    outer loop
      vertex 14.5964 2.9 -30.9401
      vertex 13.7736 2.9 -32.9265
      vertex 13.0388 2.9 -32.5337
    endloop
  endfacet
  facet normal 0 1 0
    outer loop
      vertex 15.4 2.9 -33.25
      vertex 15.4 2.9 -31.1
      vertex 16.2291 2.9 -33.1683
    endloop
  endfacet
  facet normal 0 1 0
    outer loop
      vertex 14.9903 2.9 -31.0596
      vertex 14.5709 2.9 -33.1683
      vertex 13.7736 2.9 -32.9265
    endloop
  endfacet
  facet normal 0 1 0
    outer loop
      vertex 15.4 2.9 -31.1
      vertex 15.4 2.9 -33.25
      vertex 14.5709 2.9 -33.1683
    endloop
  endfacet
  facet normal -0.881901 0 0.471435
    outer loop
      vertex 18.9337 2.9 -31.3612
      vertex 19.3265 5 -30.6264
      vertex 18.9337 5 -31.3612
    endloop
  endfacet
  facet normal -0.881901 0 0.471435
    outer loop
      vertex 19.3265 5 -30.6264
      vertex 18.9337 2.9 -31.3612
      vertex 19.3265 2.9 -30.6264
    endloop
  endfacet
  facet normal -0.0980656 0 0.99518
    outer loop
      vertex 15.4 5 -33.25
      vertex 16.2291 2.9 -33.1683
      vertex 16.2291 5 -33.1683
    endloop
  endfacet
  facet normal -0.0980656 0 0.99518
    outer loop
      vertex 16.2291 2.9 -33.1683
      vertex 15.4 5 -33.25
      vertex 15.4 2.9 -33.25
    endloop
  endfacet
  facet normal 0.471435 0 0.881901
    outer loop
      vertex 13.0388 5 -32.5337
      vertex 13.7736 2.9 -32.9265
      vertex 13.7736 5 -32.9265
    endloop
  endfacet
  facet normal 0.471435 0 0.881901
    outer loop
      vertex 13.7736 2.9 -32.9265
      vertex 13.0388 5 -32.5337
      vertex 13.0388 2.9 -32.5337
    endloop
  endfacet
  facet normal -0.773021 0 0.634381
    outer loop
      vertex 18.4052 2.9 -32.0052
      vertex 18.9337 5 -31.3612
      vertex 18.4052 5 -32.0052
    endloop
  endfacet
  facet normal -0.773021 0 0.634381
    outer loop
      vertex 18.9337 5 -31.3612
      vertex 18.4052 2.9 -32.0052
      vertex 18.9337 2.9 -31.3612
    endloop
  endfacet
  facet normal -0.634381 0 0.773021
    outer loop
      vertex 17.7612 5 -32.5337
      vertex 18.4052 2.9 -32.0052
      vertex 18.4052 5 -32.0052
    endloop
  endfacet
  facet normal -0.634381 0 0.773021
    outer loop
      vertex 18.4052 2.9 -32.0052
      vertex 17.7612 5 -32.5337
      vertex 17.7612 2.9 -32.5337
    endloop
  endfacet
  facet normal 0.773021 0 -0.634381
    outer loop
      vertex 12.3948 2.9 -25.9948
      vertex 11.8663 5 -26.6388
      vertex 12.3948 5 -25.9948
    endloop
  endfacet
  facet normal 0.773021 0 -0.634381
    outer loop
      vertex 11.8663 5 -26.6388
      vertex 12.3948 2.9 -25.9948
      vertex 11.8663 2.9 -26.6388
    endloop
  endfacet
  facet normal 0.634381 0 -0.773021
    outer loop
      vertex 12.3948 2.9 -25.9948
      vertex 13.0388 5 -25.4663
      vertex 13.0388 2.9 -25.4663
    endloop
  endfacet
  facet normal 0.634381 0 -0.773021
    outer loop
      vertex 13.0388 5 -25.4663
      vertex 12.3948 2.9 -25.9948
      vertex 12.3948 5 -25.9948
    endloop
  endfacet
  facet normal 0.0980656 0 -0.99518
    outer loop
      vertex 14.5709 2.9 -24.8317
      vertex 15.4 5 -24.75
      vertex 15.4 2.9 -24.75
    endloop
  endfacet
  facet normal 0.0980656 0 -0.99518
    outer loop
      vertex 15.4 5 -24.75
      vertex 14.5709 2.9 -24.8317
      vertex 14.5709 5 -24.8317
    endloop
  endfacet
  facet normal 0.290221 0 -0.95696
    outer loop
      vertex 13.7736 2.9 -25.0735
      vertex 14.5709 5 -24.8317
      vertex 14.5709 2.9 -24.8317
    endloop
  endfacet
  facet normal 0.290221 0 -0.95696
    outer loop
      vertex 14.5709 5 -24.8317
      vertex 13.7736 2.9 -25.0735
      vertex 13.7736 5 -25.0735
    endloop
  endfacet
  facet normal -0.290221 0 -0.95696
    outer loop
      vertex 16.2291 2.9 -24.8317
      vertex 17.0264 5 -25.0735
      vertex 17.0264 2.9 -25.0735
    endloop
  endfacet
  facet normal -0.290221 0 -0.95696
    outer loop
      vertex 17.0264 5 -25.0735
      vertex 16.2291 2.9 -24.8317
      vertex 16.2291 5 -24.8317
    endloop
  endfacet
  facet normal 0.773021 -0 0.634381
    outer loop
      vertex 11.8663 2.9 -31.3612
      vertex 12.3948 5 -32.0052
      vertex 11.8663 5 -31.3612
    endloop
  endfacet
  facet normal 0.773021 0 0.634381
    outer loop
      vertex 12.3948 5 -32.0052
      vertex 11.8663 2.9 -31.3612
      vertex 12.3948 2.9 -32.0052
    endloop
  endfacet
  facet normal 0.0980656 0 0.99518
    outer loop
      vertex 14.5709 5 -33.1683
      vertex 15.4 2.9 -33.25
      vertex 15.4 5 -33.25
    endloop
  endfacet
  facet normal 0.0980656 0 0.99518
    outer loop
      vertex 15.4 2.9 -33.25
      vertex 14.5709 5 -33.1683
      vertex 14.5709 2.9 -33.1683
    endloop
  endfacet
  facet normal 0.290221 0 0.95696
    outer loop
      vertex 13.7736 5 -32.9265
      vertex 14.5709 2.9 -33.1683
      vertex 14.5709 5 -33.1683
    endloop
  endfacet
  facet normal 0.290221 0 0.95696
    outer loop
      vertex 14.5709 2.9 -33.1683
      vertex 13.7736 5 -32.9265
      vertex 13.7736 2.9 -32.9265
    endloop
  endfacet
  facet normal 0.99518 -0 0.0980656
    outer loop
      vertex 11.15 2.9 -29
      vertex 11.2317 5 -29.8291
      vertex 11.15 5 -29
    endloop
  endfacet
  facet normal 0.99518 0 0.0980656
    outer loop
      vertex 11.2317 5 -29.8291
      vertex 11.15 2.9 -29
      vertex 11.2317 2.9 -29.8291
    endloop
  endfacet
  facet normal 0.634381 0 0.773021
    outer loop
      vertex 12.3948 5 -32.0052
      vertex 13.0388 2.9 -32.5337
      vertex 13.0388 5 -32.5337
    endloop
  endfacet
  facet normal 0.634381 0 0.773021
    outer loop
      vertex 13.0388 2.9 -32.5337
      vertex 12.3948 5 -32.0052
      vertex 12.3948 2.9 -32.0052
    endloop
  endfacet
  facet normal -0.290221 0 0.95696
    outer loop
      vertex 16.2291 5 -33.1683
      vertex 17.0264 2.9 -32.9265
      vertex 17.0264 5 -32.9265
    endloop
  endfacet
  facet normal -0.290221 0 0.95696
    outer loop
      vertex 17.0264 2.9 -32.9265
      vertex 16.2291 5 -33.1683
      vertex 16.2291 2.9 -33.1683
    endloop
  endfacet
  facet normal 0.95696 0 -0.290221
    outer loop
      vertex 11.4735 2.9 -27.3736
      vertex 11.2317 5 -28.1709
      vertex 11.4735 5 -27.3736
    endloop
  endfacet
  facet normal 0.95696 0 -0.290221
    outer loop
      vertex 11.2317 5 -28.1709
      vertex 11.4735 2.9 -27.3736
      vertex 11.2317 2.9 -28.1709
    endloop
  endfacet
  facet normal 0.99518 0 -0.0980656
    outer loop
      vertex 11.2317 2.9 -28.1709
      vertex 11.15 5 -29
      vertex 11.2317 5 -28.1709
    endloop
  endfacet
  facet normal 0.99518 0 -0.0980656
    outer loop
      vertex 11.15 5 -29
      vertex 11.2317 2.9 -28.1709
      vertex 11.15 2.9 -29
    endloop
  endfacet
  facet normal 0.471244 0 -0.882003
    outer loop
      vertex 53.4333 0 -27.2539
      vertex 53.7964 2.9 -27.0599
      vertex 53.7964 0 -27.0599
    endloop
  endfacet
  facet normal 0.471244 0 -0.882003
    outer loop
      vertex 53.7964 2.9 -27.0599
      vertex 53.4333 0 -27.2539
      vertex 53.4333 2.9 -27.2539
    endloop
  endfacet
  facet normal -0.471244 0 -0.882003
    outer loop
      vertex 55.4036 0 -27.0599
      vertex 55.7667 2.9 -27.2539
      vertex 55.7667 0 -27.2539
    endloop
  endfacet
  facet normal -0.471244 0 -0.882003
    outer loop
      vertex 55.7667 2.9 -27.2539
      vertex 55.4036 0 -27.0599
      vertex 55.4036 2.9 -27.0599
    endloop
  endfacet
  facet normal -0.956932 0 -0.290311
    outer loop
      vertex 56.6596 0 -28.5903
      vertex 56.5401 2.9 -28.1964
      vertex 56.6596 2.9 -28.5903
    endloop
  endfacet
  facet normal -0.956932 -0 -0.290311
    outer loop
      vertex 56.5401 2.9 -28.1964
      vertex 56.6596 0 -28.5903
      vertex 56.5401 0 -28.1964
    endloop
  endfacet
  facet normal -0.995173 0 -0.0981328
    outer loop
      vertex 56.7 0 -29
      vertex 56.6596 2.9 -28.5903
      vertex 56.7 2.9 -29
    endloop
  endfacet
  facet normal -0.995173 -0 -0.0981328
    outer loop
      vertex 56.6596 2.9 -28.5903
      vertex 56.7 0 -29
      vertex 56.6596 0 -28.5903
    endloop
  endfacet
  facet normal -0.882003 0 -0.471244
    outer loop
      vertex 56.5401 0 -28.1964
      vertex 56.3461 2.9 -27.8333
      vertex 56.5401 2.9 -28.1964
    endloop
  endfacet
  facet normal -0.882003 -0 -0.471244
    outer loop
      vertex 56.3461 2.9 -27.8333
      vertex 56.5401 0 -28.1964
      vertex 56.3461 0 -27.8333
    endloop
  endfacet
  facet normal -0.0981328 0 -0.995173
    outer loop
      vertex 54.6 0 -26.9
      vertex 55.0097 2.9 -26.9404
      vertex 55.0097 0 -26.9404
    endloop
  endfacet
  facet normal -0.0981328 0 -0.995173
    outer loop
      vertex 55.0097 2.9 -26.9404
      vertex 54.6 0 -26.9
      vertex 54.6 2.9 -26.9
    endloop
  endfacet
  facet normal -0.0981328 0 0.995173
    outer loop
      vertex 54.6 2.9 -31.1
      vertex 55.0097 0 -31.0596
      vertex 55.0097 2.9 -31.0596
    endloop
  endfacet
  facet normal -0.0981328 0 0.995173
    outer loop
      vertex 55.0097 0 -31.0596
      vertex 54.6 2.9 -31.1
      vertex 54.6 0 -31.1
    endloop
  endfacet
  facet normal -0.290311 0 -0.956932
    outer loop
      vertex 55.0097 0 -26.9404
      vertex 55.4036 2.9 -27.0599
      vertex 55.4036 0 -27.0599
    endloop
  endfacet
  facet normal -0.290311 0 -0.956932
    outer loop
      vertex 55.4036 2.9 -27.0599
      vertex 55.0097 0 -26.9404
      vertex 55.0097 2.9 -26.9404
    endloop
  endfacet
  facet normal -0.63448 0 -0.772939
    outer loop
      vertex 55.7667 0 -27.2539
      vertex 56.0849 2.9 -27.5151
      vertex 56.0849 0 -27.5151
    endloop
  endfacet
  facet normal -0.63448 0 -0.772939
    outer loop
      vertex 56.0849 2.9 -27.5151
      vertex 55.7667 0 -27.2539
      vertex 55.7667 2.9 -27.2539
    endloop
  endfacet
  facet normal -0.772939 0 0.63448
    outer loop
      vertex 56.0849 0 -30.4849
      vertex 56.3461 2.9 -30.1667
      vertex 56.0849 2.9 -30.4849
    endloop
  endfacet
  facet normal -0.772939 0 0.63448
    outer loop
      vertex 56.3461 2.9 -30.1667
      vertex 56.0849 0 -30.4849
      vertex 56.3461 0 -30.1667
    endloop
  endfacet
  facet normal 0.63448 0 -0.772939
    outer loop
      vertex 53.1151 0 -27.5151
      vertex 53.4333 2.9 -27.2539
      vertex 53.4333 0 -27.2539
    endloop
  endfacet
  facet normal 0.63448 0 -0.772939
    outer loop
      vertex 53.4333 2.9 -27.2539
      vertex 53.1151 0 -27.5151
      vertex 53.1151 2.9 -27.5151
    endloop
  endfacet
  facet normal -0.471244 0 0.882003
    outer loop
      vertex 55.4036 2.9 -30.9401
      vertex 55.7667 0 -30.7461
      vertex 55.7667 2.9 -30.7461
    endloop
  endfacet
  facet normal -0.471244 0 0.882003
    outer loop
      vertex 55.7667 0 -30.7461
      vertex 55.4036 2.9 -30.9401
      vertex 55.4036 0 -30.9401
    endloop
  endfacet
  facet normal 0.882003 -0 0.471244
    outer loop
      vertex 52.6599 0 -29.8036
      vertex 52.8539 2.9 -30.1667
      vertex 52.6599 2.9 -29.8036
    endloop
  endfacet
  facet normal 0.882003 0 0.471244
    outer loop
      vertex 52.8539 2.9 -30.1667
      vertex 52.6599 0 -29.8036
      vertex 52.8539 0 -30.1667
    endloop
  endfacet
  facet normal -0.995173 0 0.0981328
    outer loop
      vertex 56.6596 0 -29.4097
      vertex 56.7 2.9 -29
      vertex 56.6596 2.9 -29.4097
    endloop
  endfacet
  facet normal -0.995173 0 0.0981328
    outer loop
      vertex 56.7 2.9 -29
      vertex 56.6596 0 -29.4097
      vertex 56.7 0 -29
    endloop
  endfacet
  facet normal 0.290311 0 -0.956932
    outer loop
      vertex 53.7964 0 -27.0599
      vertex 54.1903 2.9 -26.9404
      vertex 54.1903 0 -26.9404
    endloop
  endfacet
  facet normal 0.290311 0 -0.956932
    outer loop
      vertex 54.1903 2.9 -26.9404
      vertex 53.7964 0 -27.0599
      vertex 53.7964 2.9 -27.0599
    endloop
  endfacet
  facet normal 0.0981328 0 0.995173
    outer loop
      vertex 54.1903 2.9 -31.0596
      vertex 54.6 0 -31.1
      vertex 54.6 2.9 -31.1
    endloop
  endfacet
  facet normal 0.0981328 0 0.995173
    outer loop
      vertex 54.6 0 -31.1
      vertex 54.1903 2.9 -31.0596
      vertex 54.1903 0 -31.0596
    endloop
  endfacet
  facet normal 0.882003 0 -0.471244
    outer loop
      vertex 52.8539 0 -27.8333
      vertex 52.6599 2.9 -28.1964
      vertex 52.8539 2.9 -27.8333
    endloop
  endfacet
  facet normal 0.882003 0 -0.471244
    outer loop
      vertex 52.6599 2.9 -28.1964
      vertex 52.8539 0 -27.8333
      vertex 52.6599 0 -28.1964
    endloop
  endfacet
  facet normal -0.290311 0 0.956932
    outer loop
      vertex 55.0097 2.9 -31.0596
      vertex 55.4036 0 -30.9401
      vertex 55.4036 2.9 -30.9401
    endloop
  endfacet
  facet normal -0.290311 0 0.956932
    outer loop
      vertex 55.4036 0 -30.9401
      vertex 55.0097 2.9 -31.0596
      vertex 55.0097 0 -31.0596
    endloop
  endfacet
  facet normal 0.290311 0 0.956932
    outer loop
      vertex 53.7964 2.9 -30.9401
      vertex 54.1903 0 -31.0596
      vertex 54.1903 2.9 -31.0596
    endloop
  endfacet
  facet normal 0.290311 0 0.956932
    outer loop
      vertex 54.1903 0 -31.0596
      vertex 53.7964 2.9 -30.9401
      vertex 53.7964 0 -30.9401
    endloop
  endfacet
  facet normal -0.956932 0 0.290311
    outer loop
      vertex 56.5401 0 -29.8036
      vertex 56.6596 2.9 -29.4097
      vertex 56.5401 2.9 -29.8036
    endloop
  endfacet
  facet normal -0.956932 0 0.290311
    outer loop
      vertex 56.6596 2.9 -29.4097
      vertex 56.5401 0 -29.8036
      vertex 56.6596 0 -29.4097
    endloop
  endfacet
  facet normal -0.772939 0 -0.63448
    outer loop
      vertex 56.3461 0 -27.8333
      vertex 56.0849 2.9 -27.5151
      vertex 56.3461 2.9 -27.8333
    endloop
  endfacet
  facet normal -0.772939 -0 -0.63448
    outer loop
      vertex 56.0849 2.9 -27.5151
      vertex 56.3461 0 -27.8333
      vertex 56.0849 0 -27.5151
    endloop
  endfacet
  facet normal 0.995173 0 -0.0981328
    outer loop
      vertex 52.5404 0 -28.5903
      vertex 52.5 2.9 -29
      vertex 52.5404 2.9 -28.5903
    endloop
  endfacet
  facet normal 0.995173 0 -0.0981328
    outer loop
      vertex 52.5 2.9 -29
      vertex 52.5404 0 -28.5903
      vertex 52.5 0 -29
    endloop
  endfacet
  facet normal -0.63448 0 0.772939
    outer loop
      vertex 55.7667 2.9 -30.7461
      vertex 56.0849 0 -30.4849
      vertex 56.0849 2.9 -30.4849
    endloop
  endfacet
  facet normal -0.63448 0 0.772939
    outer loop
      vertex 56.0849 0 -30.4849
      vertex 55.7667 2.9 -30.7461
      vertex 55.7667 0 -30.7461
    endloop
  endfacet
  facet normal 0.63448 0 0.772939
    outer loop
      vertex 53.1151 2.9 -30.4849
      vertex 53.4333 0 -30.7461
      vertex 53.4333 2.9 -30.7461
    endloop
  endfacet
  facet normal 0.63448 0 0.772939
    outer loop
      vertex 53.4333 0 -30.7461
      vertex 53.1151 2.9 -30.4849
      vertex 53.1151 0 -30.4849
    endloop
  endfacet
  facet normal 0.0981328 0 -0.995173
    outer loop
      vertex 54.1903 0 -26.9404
      vertex 54.6 2.9 -26.9
      vertex 54.6 0 -26.9
    endloop
  endfacet
  facet normal 0.0981328 0 -0.995173
    outer loop
      vertex 54.6 2.9 -26.9
      vertex 54.1903 0 -26.9404
      vertex 54.1903 2.9 -26.9404
    endloop
  endfacet
  facet normal -0.882003 0 0.471244
    outer loop
      vertex 56.3461 0 -30.1667
      vertex 56.5401 2.9 -29.8036
      vertex 56.3461 2.9 -30.1667
    endloop
  endfacet
  facet normal -0.882003 0 0.471244
    outer loop
      vertex 56.5401 2.9 -29.8036
      vertex 56.3461 0 -30.1667
      vertex 56.5401 0 -29.8036
    endloop
  endfacet
  facet normal 0.956932 -0 0.290311
    outer loop
      vertex 52.5404 0 -29.4097
      vertex 52.6599 2.9 -29.8036
      vertex 52.5404 2.9 -29.4097
    endloop
  endfacet
  facet normal 0.956932 0 0.290311
    outer loop
      vertex 52.6599 2.9 -29.8036
      vertex 52.5404 0 -29.4097
      vertex 52.6599 0 -29.8036
    endloop
  endfacet
  facet normal 0.995173 -0 0.0981328
    outer loop
      vertex 52.5 0 -29
      vertex 52.5404 2.9 -29.4097
      vertex 52.5 2.9 -29
    endloop
  endfacet
  facet normal 0.995173 0 0.0981328
    outer loop
      vertex 52.5404 2.9 -29.4097
      vertex 52.5 0 -29
      vertex 52.5404 0 -29.4097
    endloop
  endfacet
  facet normal 0.772939 -0 0.63448
    outer loop
      vertex 52.8539 0 -30.1667
      vertex 53.1151 2.9 -30.4849
      vertex 52.8539 2.9 -30.1667
    endloop
  endfacet
  facet normal 0.772939 0 0.63448
    outer loop
      vertex 53.1151 2.9 -30.4849
      vertex 52.8539 0 -30.1667
      vertex 53.1151 0 -30.4849
    endloop
  endfacet
  facet normal 0.772939 0 -0.63448
    outer loop
      vertex 53.1151 0 -27.5151
      vertex 52.8539 2.9 -27.8333
      vertex 53.1151 2.9 -27.5151
    endloop
  endfacet
  facet normal 0.772939 0 -0.63448
    outer loop
      vertex 52.8539 2.9 -27.8333
      vertex 53.1151 0 -27.5151
      vertex 52.8539 0 -27.8333
    endloop
  endfacet
  facet normal 0.956932 0 -0.290311
    outer loop
      vertex 52.6599 0 -28.1964
      vertex 52.5404 2.9 -28.5903
      vertex 52.6599 2.9 -28.1964
    endloop
  endfacet
  facet normal 0.956932 0 -0.290311
    outer loop
      vertex 52.5404 2.9 -28.5903
      vertex 52.6599 0 -28.1964
      vertex 52.5404 0 -28.5903
    endloop
  endfacet
  facet normal 0.471244 0 0.882003
    outer loop
      vertex 53.4333 2.9 -30.7461
      vertex 53.7964 0 -30.9401
      vertex 53.7964 2.9 -30.9401
    endloop
  endfacet
  facet normal 0.471244 0 0.882003
    outer loop
      vertex 53.7964 0 -30.9401
      vertex 53.4333 2.9 -30.7461
      vertex 53.4333 0 -30.7461
    endloop
  endfacet
  facet normal 0.471435 0 -0.881901
    outer loop
      vertex 52.2388 2.9 -25.4663
      vertex 52.9736 5 -25.0735
      vertex 52.9736 2.9 -25.0735
    endloop
  endfacet
  facet normal 0.471435 0 -0.881901
    outer loop
      vertex 52.9736 5 -25.0735
      vertex 52.2388 2.9 -25.4663
      vertex 52.2388 5 -25.4663
    endloop
  endfacet
  facet normal -0.95696 0 -0.290221
    outer loop
      vertex 58.7683 2.9 -28.1709
      vertex 58.5265 5 -27.3736
      vertex 58.7683 5 -28.1709
    endloop
  endfacet
  facet normal -0.95696 -0 -0.290221
    outer loop
      vertex 58.5265 5 -27.3736
      vertex 58.7683 2.9 -28.1709
      vertex 58.5265 2.9 -27.3736
    endloop
  endfacet
  facet normal -0.99518 0 -0.0980656
    outer loop
      vertex 58.85 2.9 -29
      vertex 58.7683 5 -28.1709
      vertex 58.85 5 -29
    endloop
  endfacet
  facet normal -0.99518 -0 -0.0980656
    outer loop
      vertex 58.7683 5 -28.1709
      vertex 58.85 2.9 -29
      vertex 58.7683 2.9 -28.1709
    endloop
  endfacet
  facet normal -0.881901 0 -0.471435
    outer loop
      vertex 58.5265 2.9 -27.3736
      vertex 58.1337 5 -26.6388
      vertex 58.5265 5 -27.3736
    endloop
  endfacet
  facet normal -0.881901 -0 -0.471435
    outer loop
      vertex 58.1337 5 -26.6388
      vertex 58.5265 2.9 -27.3736
      vertex 58.1337 2.9 -26.6388
    endloop
  endfacet
  facet normal 0.95696 -0 0.290221
    outer loop
      vertex 50.4317 2.9 -29.8291
      vertex 50.6735 5 -30.6264
      vertex 50.4317 5 -29.8291
    endloop
  endfacet
  facet normal 0.95696 0 0.290221
    outer loop
      vertex 50.6735 5 -30.6264
      vertex 50.4317 2.9 -29.8291
      vertex 50.6735 2.9 -30.6264
    endloop
  endfacet
  facet normal -0.0980656 0 -0.99518
    outer loop
      vertex 54.6 2.9 -24.75
      vertex 55.4291 5 -24.8317
      vertex 55.4291 2.9 -24.8317
    endloop
  endfacet
  facet normal -0.0980656 0 -0.99518
    outer loop
      vertex 55.4291 5 -24.8317
      vertex 54.6 2.9 -24.75
      vertex 54.6 5 -24.75
    endloop
  endfacet
  facet normal -0.471435 0 0.881901
    outer loop
      vertex 56.2264 5 -32.9265
      vertex 56.9612 2.9 -32.5337
      vertex 56.9612 5 -32.5337
    endloop
  endfacet
  facet normal -0.471435 0 0.881901
    outer loop
      vertex 56.9612 2.9 -32.5337
      vertex 56.2264 5 -32.9265
      vertex 56.2264 2.9 -32.9265
    endloop
  endfacet
  facet normal 0.881901 0 -0.471435
    outer loop
      vertex 51.0663 2.9 -26.6388
      vertex 50.6735 5 -27.3736
      vertex 51.0663 5 -26.6388
    endloop
  endfacet
  facet normal 0.881901 0 -0.471435
    outer loop
      vertex 50.6735 5 -27.3736
      vertex 51.0663 2.9 -26.6388
      vertex 50.6735 2.9 -27.3736
    endloop
  endfacet
  facet normal -0.773021 0 -0.634381
    outer loop
      vertex 58.1337 2.9 -26.6388
      vertex 57.6052 5 -25.9948
      vertex 58.1337 5 -26.6388
    endloop
  endfacet
  facet normal -0.773021 -0 -0.634381
    outer loop
      vertex 57.6052 5 -25.9948
      vertex 58.1337 2.9 -26.6388
      vertex 57.6052 2.9 -25.9948
    endloop
  endfacet
  facet normal -0.95696 0 0.290221
    outer loop
      vertex 58.5265 2.9 -30.6264
      vertex 58.7683 5 -29.8291
      vertex 58.5265 5 -30.6264
    endloop
  endfacet
  facet normal -0.95696 0 0.290221
    outer loop
      vertex 58.7683 5 -29.8291
      vertex 58.5265 2.9 -30.6264
      vertex 58.7683 2.9 -29.8291
    endloop
  endfacet
  facet normal 0.881901 -0 0.471435
    outer loop
      vertex 50.6735 2.9 -30.6264
      vertex 51.0663 5 -31.3612
      vertex 50.6735 5 -30.6264
    endloop
  endfacet
  facet normal 0.881901 0 0.471435
    outer loop
      vertex 51.0663 5 -31.3612
      vertex 50.6735 2.9 -30.6264
      vertex 51.0663 2.9 -31.3612
    endloop
  endfacet
  facet normal -0.99518 0 0.0980656
    outer loop
      vertex 58.7683 2.9 -29.8291
      vertex 58.85 5 -29
      vertex 58.7683 5 -29.8291
    endloop
  endfacet
  facet normal -0.99518 0 0.0980656
    outer loop
      vertex 58.85 5 -29
      vertex 58.7683 2.9 -29.8291
      vertex 58.85 2.9 -29
    endloop
  endfacet
  facet normal -0.471435 0 -0.881901
    outer loop
      vertex 56.2264 2.9 -25.0735
      vertex 56.9612 5 -25.4663
      vertex 56.9612 2.9 -25.4663
    endloop
  endfacet
  facet normal -0.471435 0 -0.881901
    outer loop
      vertex 56.9612 5 -25.4663
      vertex 56.2264 2.9 -25.0735
      vertex 56.2264 5 -25.0735
    endloop
  endfacet
  facet normal -0.634381 0 -0.773021
    outer loop
      vertex 56.9612 2.9 -25.4663
      vertex 57.6052 5 -25.9948
      vertex 57.6052 2.9 -25.9948
    endloop
  endfacet
  facet normal -0.634381 0 -0.773021
    outer loop
      vertex 57.6052 5 -25.9948
      vertex 56.9612 2.9 -25.4663
      vertex 56.9612 5 -25.4663
    endloop
  endfacet
  facet normal 0 1 0
    outer loop
      vertex 54.6 2.9 -26.9
      vertex 54.6 2.9 -24.75
      vertex 55.4291 2.9 -24.8317
    endloop
  endfacet
  facet normal 0 1 0
    outer loop
      vertex 55.0097 2.9 -26.9404
      vertex 55.4291 2.9 -24.8317
      vertex 56.2264 2.9 -25.0735
    endloop
  endfacet
  facet normal 0 1 0
    outer loop
      vertex 54.6 2.9 -24.75
      vertex 54.6 2.9 -26.9
      vertex 53.7709 2.9 -24.8317
    endloop
  endfacet
  facet normal 0 1 0
    outer loop
      vertex 55.4036 2.9 -27.0599
      vertex 56.2264 2.9 -25.0735
      vertex 56.9612 2.9 -25.4663
    endloop
  endfacet
  facet normal 0 1 -0
    outer loop
      vertex 54.1903 2.9 -26.9404
      vertex 53.7709 2.9 -24.8317
      vertex 54.6 2.9 -26.9
    endloop
  endfacet
  facet normal 0 1 0
    outer loop
      vertex 55.7667 2.9 -27.2539
      vertex 56.9612 2.9 -25.4663
      vertex 57.6052 2.9 -25.9948
    endloop
  endfacet
  facet normal 0 1 0
    outer loop
      vertex 53.7709 2.9 -24.8317
      vertex 54.1903 2.9 -26.9404
      vertex 52.9736 2.9 -25.0735
    endloop
  endfacet
  facet normal 0 1 0
    outer loop
      vertex 56.0849 2.9 -27.5151
      vertex 57.6052 2.9 -25.9948
      vertex 58.1337 2.9 -26.6388
    endloop
  endfacet
  facet normal 0 1 -0
    outer loop
      vertex 53.7964 2.9 -27.0599
      vertex 52.9736 2.9 -25.0735
      vertex 54.1903 2.9 -26.9404
    endloop
  endfacet
  facet normal 0 1 0
    outer loop
      vertex 52.9736 2.9 -25.0735
      vertex 53.7964 2.9 -27.0599
      vertex 52.2388 2.9 -25.4663
    endloop
  endfacet
  facet normal 0 1 0
    outer loop
      vertex 55.4291 2.9 -24.8317
      vertex 55.0097 2.9 -26.9404
      vertex 54.6 2.9 -26.9
    endloop
  endfacet
  facet normal 0 1 0
    outer loop
      vertex 56.2264 2.9 -25.0735
      vertex 55.4036 2.9 -27.0599
      vertex 55.0097 2.9 -26.9404
    endloop
  endfacet
  facet normal 0 1 0
    outer loop
      vertex 56.9612 2.9 -25.4663
      vertex 55.7667 2.9 -27.2539
      vertex 55.4036 2.9 -27.0599
    endloop
  endfacet
  facet normal 0 1 0
    outer loop
      vertex 56.3461 2.9 -27.8333
      vertex 58.1337 2.9 -26.6388
      vertex 58.5265 2.9 -27.3736
    endloop
  endfacet
  facet normal 0 1 0
    outer loop
      vertex 57.6052 2.9 -25.9948
      vertex 56.0849 2.9 -27.5151
      vertex 55.7667 2.9 -27.2539
    endloop
  endfacet
  facet normal 0 1 0
    outer loop
      vertex 58.1337 2.9 -26.6388
      vertex 56.3461 2.9 -27.8333
      vertex 56.0849 2.9 -27.5151
    endloop
  endfacet
  facet normal 0 1 0
    outer loop
      vertex 56.5401 2.9 -28.1964
      vertex 58.5265 2.9 -27.3736
      vertex 58.7683 2.9 -28.1709
    endloop
  endfacet
  facet normal 0 1 0
    outer loop
      vertex 58.5265 2.9 -27.3736
      vertex 56.5401 2.9 -28.1964
      vertex 56.3461 2.9 -27.8333
    endloop
  endfacet
  facet normal 0 1 0
    outer loop
      vertex 58.7683 2.9 -28.1709
      vertex 56.6596 2.9 -28.5903
      vertex 56.5401 2.9 -28.1964
    endloop
  endfacet
  facet normal 0 1 0
    outer loop
      vertex 58.85 2.9 -29
      vertex 56.6596 2.9 -28.5903
      vertex 58.7683 2.9 -28.1709
    endloop
  endfacet
  facet normal 0 1 0
    outer loop
      vertex 58.85 2.9 -29
      vertex 56.7 2.9 -29
      vertex 56.6596 2.9 -28.5903
    endloop
  endfacet
  facet normal 0 1 0
    outer loop
      vertex 58.85 2.9 -29
      vertex 56.6596 2.9 -29.4097
      vertex 56.7 2.9 -29
    endloop
  endfacet
  facet normal 0 1 -0
    outer loop
      vertex 58.7683 2.9 -29.8291
      vertex 56.6596 2.9 -29.4097
      vertex 58.85 2.9 -29
    endloop
  endfacet
  facet normal 0 1 0
    outer loop
      vertex 56.6596 2.9 -29.4097
      vertex 58.7683 2.9 -29.8291
      vertex 56.5401 2.9 -29.8036
    endloop
  endfacet
  facet normal 0 1 -0
    outer loop
      vertex 58.5265 2.9 -30.6264
      vertex 56.5401 2.9 -29.8036
      vertex 58.7683 2.9 -29.8291
    endloop
  endfacet
  facet normal 0 1 0
    outer loop
      vertex 56.5401 2.9 -29.8036
      vertex 58.5265 2.9 -30.6264
      vertex 56.3461 2.9 -30.1667
    endloop
  endfacet
  facet normal 0 1 -0
    outer loop
      vertex 58.1337 2.9 -31.3612
      vertex 56.3461 2.9 -30.1667
      vertex 58.5265 2.9 -30.6264
    endloop
  endfacet
  facet normal 0 1 0
    outer loop
      vertex 56.3461 2.9 -30.1667
      vertex 58.1337 2.9 -31.3612
      vertex 56.0849 2.9 -30.4849
    endloop
  endfacet
  facet normal 0 1 -0
    outer loop
      vertex 57.6052 2.9 -32.0052
      vertex 56.0849 2.9 -30.4849
      vertex 58.1337 2.9 -31.3612
    endloop
  endfacet
  facet normal 0 1 0
    outer loop
      vertex 56.0849 2.9 -30.4849
      vertex 57.6052 2.9 -32.0052
      vertex 55.7667 2.9 -30.7461
    endloop
  endfacet
  facet normal 0 1 0
    outer loop
      vertex 55.7667 2.9 -30.7461
      vertex 56.9612 2.9 -32.5337
      vertex 55.4036 2.9 -30.9401
    endloop
  endfacet
  facet normal 0 1 -0
    outer loop
      vertex 56.9612 2.9 -32.5337
      vertex 55.7667 2.9 -30.7461
      vertex 57.6052 2.9 -32.0052
    endloop
  endfacet
  facet normal 0 1 -0
    outer loop
      vertex 53.4333 2.9 -27.2539
      vertex 52.2388 2.9 -25.4663
      vertex 53.7964 2.9 -27.0599
    endloop
  endfacet
  facet normal 0 1 0
    outer loop
      vertex 52.2388 2.9 -25.4663
      vertex 53.4333 2.9 -27.2539
      vertex 51.5948 2.9 -25.9948
    endloop
  endfacet
  facet normal 0 1 -0
    outer loop
      vertex 53.1151 2.9 -27.5151
      vertex 51.5948 2.9 -25.9948
      vertex 53.4333 2.9 -27.2539
    endloop
  endfacet
  facet normal 0 1 0
    outer loop
      vertex 51.5948 2.9 -25.9948
      vertex 53.1151 2.9 -27.5151
      vertex 51.0663 2.9 -26.6388
    endloop
  endfacet
  facet normal 0 1 -0
    outer loop
      vertex 52.8539 2.9 -27.8333
      vertex 51.0663 2.9 -26.6388
      vertex 53.1151 2.9 -27.5151
    endloop
  endfacet
  facet normal 0 1 0
    outer loop
      vertex 51.0663 2.9 -26.6388
      vertex 52.8539 2.9 -27.8333
      vertex 50.6735 2.9 -27.3736
    endloop
  endfacet
  facet normal 0 1 -0
    outer loop
      vertex 52.6599 2.9 -28.1964
      vertex 50.6735 2.9 -27.3736
      vertex 52.8539 2.9 -27.8333
    endloop
  endfacet
  facet normal 0 1 0
    outer loop
      vertex 50.6735 2.9 -27.3736
      vertex 52.6599 2.9 -28.1964
      vertex 50.4317 2.9 -28.1709
    endloop
  endfacet
  facet normal 0 1 -0
    outer loop
      vertex 52.5404 2.9 -28.5903
      vertex 50.4317 2.9 -28.1709
      vertex 52.6599 2.9 -28.1964
    endloop
  endfacet
  facet normal 0 1 -0
    outer loop
      vertex 52.5 2.9 -29
      vertex 50.4317 2.9 -28.1709
      vertex 52.5404 2.9 -28.5903
    endloop
  endfacet
  facet normal 0 1 0
    outer loop
      vertex 52.5 2.9 -29
      vertex 50.35 2.9 -29
      vertex 50.4317 2.9 -28.1709
    endloop
  endfacet
  facet normal 0 1 0
    outer loop
      vertex 52.5404 2.9 -29.4097
      vertex 50.35 2.9 -29
      vertex 52.5 2.9 -29
    endloop
  endfacet
  facet normal 0 1 0
    outer loop
      vertex 50.4317 2.9 -29.8291
      vertex 52.5404 2.9 -29.4097
      vertex 52.6599 2.9 -29.8036
    endloop
  endfacet
  facet normal 0 1 0
    outer loop
      vertex 52.5404 2.9 -29.4097
      vertex 50.4317 2.9 -29.8291
      vertex 50.35 2.9 -29
    endloop
  endfacet
  facet normal 0 1 0
    outer loop
      vertex 50.6735 2.9 -30.6264
      vertex 52.6599 2.9 -29.8036
      vertex 52.8539 2.9 -30.1667
    endloop
  endfacet
  facet normal 0 1 0
    outer loop
      vertex 51.0663 2.9 -31.3612
      vertex 52.8539 2.9 -30.1667
      vertex 53.1151 2.9 -30.4849
    endloop
  endfacet
  facet normal 0 1 0
    outer loop
      vertex 52.6599 2.9 -29.8036
      vertex 50.6735 2.9 -30.6264
      vertex 50.4317 2.9 -29.8291
    endloop
  endfacet
  facet normal 0 1 0
    outer loop
      vertex 51.5948 2.9 -32.0052
      vertex 53.1151 2.9 -30.4849
      vertex 53.4333 2.9 -30.7461
    endloop
  endfacet
  facet normal 0 1 0
    outer loop
      vertex 52.2388 2.9 -32.5337
      vertex 53.4333 2.9 -30.7461
      vertex 53.7964 2.9 -30.9401
    endloop
  endfacet
  facet normal 0 1 0
    outer loop
      vertex 52.9736 2.9 -32.9265
      vertex 53.7964 2.9 -30.9401
      vertex 54.1903 2.9 -31.0596
    endloop
  endfacet
  facet normal 0 1 0
    outer loop
      vertex 52.8539 2.9 -30.1667
      vertex 51.0663 2.9 -31.3612
      vertex 50.6735 2.9 -30.6264
    endloop
  endfacet
  facet normal 0 1 0
    outer loop
      vertex 53.7709 2.9 -33.1683
      vertex 54.1903 2.9 -31.0596
      vertex 54.6 2.9 -31.1
    endloop
  endfacet
  facet normal 0 1 -0
    outer loop
      vertex 56.2264 2.9 -32.9265
      vertex 55.4036 2.9 -30.9401
      vertex 56.9612 2.9 -32.5337
    endloop
  endfacet
  facet normal 0 1 0
    outer loop
      vertex 55.4036 2.9 -30.9401
      vertex 56.2264 2.9 -32.9265
      vertex 55.0097 2.9 -31.0596
    endloop
  endfacet
  facet normal 0 1 0
    outer loop
      vertex 53.1151 2.9 -30.4849
      vertex 51.5948 2.9 -32.0052
      vertex 51.0663 2.9 -31.3612
    endloop
  endfacet
  facet normal 0 1 -0
    outer loop
      vertex 55.4291 2.9 -33.1683
      vertex 55.0097 2.9 -31.0596
      vertex 56.2264 2.9 -32.9265
    endloop
  endfacet
  facet normal 0 1 0
    outer loop
      vertex 53.4333 2.9 -30.7461
      vertex 52.2388 2.9 -32.5337
      vertex 51.5948 2.9 -32.0052
    endloop
  endfacet
  facet normal 0 1 0
    outer loop
      vertex 55.0097 2.9 -31.0596
      vertex 55.4291 2.9 -33.1683
      vertex 54.6 2.9 -31.1
    endloop
  endfacet
  facet normal 0 1 0
    outer loop
      vertex 53.7964 2.9 -30.9401
      vertex 52.9736 2.9 -32.9265
      vertex 52.2388 2.9 -32.5337
    endloop
  endfacet
  facet normal 0 1 0
    outer loop
      vertex 54.6 2.9 -33.25
      vertex 54.6 2.9 -31.1
      vertex 55.4291 2.9 -33.1683
    endloop
  endfacet
  facet normal 0 1 0
    outer loop
      vertex 54.1903 2.9 -31.0596
      vertex 53.7709 2.9 -33.1683
      vertex 52.9736 2.9 -32.9265
    endloop
  endfacet
  facet normal 0 1 0
    outer loop
      vertex 54.6 2.9 -31.1
      vertex 54.6 2.9 -33.25
      vertex 53.7709 2.9 -33.1683
    endloop
  endfacet
  facet normal -0.881901 0 0.471435
    outer loop
      vertex 58.1337 2.9 -31.3612
      vertex 58.5265 5 -30.6264
      vertex 58.1337 5 -31.3612
    endloop
  endfacet
  facet normal -0.881901 0 0.471435
    outer loop
      vertex 58.5265 5 -30.6264
      vertex 58.1337 2.9 -31.3612
      vertex 58.5265 2.9 -30.6264
    endloop
  endfacet
  facet normal -0.0980656 0 0.99518
    outer loop
      vertex 54.6 5 -33.25
      vertex 55.4291 2.9 -33.1683
      vertex 55.4291 5 -33.1683
    endloop
  endfacet
  facet normal -0.0980656 0 0.99518
    outer loop
      vertex 55.4291 2.9 -33.1683
      vertex 54.6 5 -33.25
      vertex 54.6 2.9 -33.25
    endloop
  endfacet
  facet normal 0.471435 0 0.881901
    outer loop
      vertex 52.2388 5 -32.5337
      vertex 52.9736 2.9 -32.9265
      vertex 52.9736 5 -32.9265
    endloop
  endfacet
  facet normal 0.471435 0 0.881901
    outer loop
      vertex 52.9736 2.9 -32.9265
      vertex 52.2388 5 -32.5337
      vertex 52.2388 2.9 -32.5337
    endloop
  endfacet
  facet normal -0.773021 0 0.634381
    outer loop
      vertex 57.6052 2.9 -32.0052
      vertex 58.1337 5 -31.3612
      vertex 57.6052 5 -32.0052
    endloop
  endfacet
  facet normal -0.773021 0 0.634381
    outer loop
      vertex 58.1337 5 -31.3612
      vertex 57.6052 2.9 -32.0052
      vertex 58.1337 2.9 -31.3612
    endloop
  endfacet
  facet normal -0.634381 0 0.773021
    outer loop
      vertex 56.9612 5 -32.5337
      vertex 57.6052 2.9 -32.0052
      vertex 57.6052 5 -32.0052
    endloop
  endfacet
  facet normal -0.634381 0 0.773021
    outer loop
      vertex 57.6052 2.9 -32.0052
      vertex 56.9612 5 -32.5337
      vertex 56.9612 2.9 -32.5337
    endloop
  endfacet
  facet normal 0.773021 0 -0.634381
    outer loop
      vertex 51.5948 2.9 -25.9948
      vertex 51.0663 5 -26.6388
      vertex 51.5948 5 -25.9948
    endloop
  endfacet
  facet normal 0.773021 0 -0.634381
    outer loop
      vertex 51.0663 5 -26.6388
      vertex 51.5948 2.9 -25.9948
      vertex 51.0663 2.9 -26.6388
    endloop
  endfacet
  facet normal 0.634381 0 -0.773021
    outer loop
      vertex 51.5948 2.9 -25.9948
      vertex 52.2388 5 -25.4663
      vertex 52.2388 2.9 -25.4663
    endloop
  endfacet
  facet normal 0.634381 0 -0.773021
    outer loop
      vertex 52.2388 5 -25.4663
      vertex 51.5948 2.9 -25.9948
      vertex 51.5948 5 -25.9948
    endloop
  endfacet
  facet normal 0.0980656 0 -0.99518
    outer loop
      vertex 53.7709 2.9 -24.8317
      vertex 54.6 5 -24.75
      vertex 54.6 2.9 -24.75
    endloop
  endfacet
  facet normal 0.0980656 0 -0.99518
    outer loop
      vertex 54.6 5 -24.75
      vertex 53.7709 2.9 -24.8317
      vertex 53.7709 5 -24.8317
    endloop
  endfacet
  facet normal 0.290221 0 -0.95696
    outer loop
      vertex 52.9736 2.9 -25.0735
      vertex 53.7709 5 -24.8317
      vertex 53.7709 2.9 -24.8317
    endloop
  endfacet
  facet normal 0.290221 0 -0.95696
    outer loop
      vertex 53.7709 5 -24.8317
      vertex 52.9736 2.9 -25.0735
      vertex 52.9736 5 -25.0735
    endloop
  endfacet
  facet normal -0.290221 0 -0.95696
    outer loop
      vertex 55.4291 2.9 -24.8317
      vertex 56.2264 5 -25.0735
      vertex 56.2264 2.9 -25.0735
    endloop
  endfacet
  facet normal -0.290221 0 -0.95696
    outer loop
      vertex 56.2264 5 -25.0735
      vertex 55.4291 2.9 -24.8317
      vertex 55.4291 5 -24.8317
    endloop
  endfacet
  facet normal 0.773021 -0 0.634381
    outer loop
      vertex 51.0663 2.9 -31.3612
      vertex 51.5948 5 -32.0052
      vertex 51.0663 5 -31.3612
    endloop
  endfacet
  facet normal 0.773021 0 0.634381
    outer loop
      vertex 51.5948 5 -32.0052
      vertex 51.0663 2.9 -31.3612
      vertex 51.5948 2.9 -32.0052
    endloop
  endfacet
  facet normal 0.0980656 0 0.99518
    outer loop
      vertex 53.7709 5 -33.1683
      vertex 54.6 2.9 -33.25
      vertex 54.6 5 -33.25
    endloop
  endfacet
  facet normal 0.0980656 0 0.99518
    outer loop
      vertex 54.6 2.9 -33.25
      vertex 53.7709 5 -33.1683
      vertex 53.7709 2.9 -33.1683
    endloop
  endfacet
  facet normal 0.290221 0 0.95696
    outer loop
      vertex 52.9736 5 -32.9265
      vertex 53.7709 2.9 -33.1683
      vertex 53.7709 5 -33.1683
    endloop
  endfacet
  facet normal 0.290221 0 0.95696
    outer loop
      vertex 53.7709 2.9 -33.1683
      vertex 52.9736 5 -32.9265
      vertex 52.9736 2.9 -32.9265
    endloop
  endfacet
  facet normal 0.99518 -0 0.0980656
    outer loop
      vertex 50.35 2.9 -29
      vertex 50.4317 5 -29.8291
      vertex 50.35 5 -29
    endloop
  endfacet
  facet normal 0.99518 0 0.0980656
    outer loop
      vertex 50.4317 5 -29.8291
      vertex 50.35 2.9 -29
      vertex 50.4317 2.9 -29.8291
    endloop
  endfacet
  facet normal 0.634381 0 0.773021
    outer loop
      vertex 51.5948 5 -32.0052
      vertex 52.2388 2.9 -32.5337
      vertex 52.2388 5 -32.5337
    endloop
  endfacet
  facet normal 0.634381 0 0.773021
    outer loop
      vertex 52.2388 2.9 -32.5337
      vertex 51.5948 5 -32.0052
      vertex 51.5948 2.9 -32.0052
    endloop
  endfacet
  facet normal -0.290221 0 0.95696
    outer loop
      vertex 55.4291 5 -33.1683
      vertex 56.2264 2.9 -32.9265
      vertex 56.2264 5 -32.9265
    endloop
  endfacet
  facet normal -0.290221 0 0.95696
    outer loop
      vertex 56.2264 2.9 -32.9265
      vertex 55.4291 5 -33.1683
      vertex 55.4291 2.9 -33.1683
    endloop
  endfacet
  facet normal 0.95696 0 -0.290221
    outer loop
      vertex 50.6735 2.9 -27.3736
      vertex 50.4317 5 -28.1709
      vertex 50.6735 5 -27.3736
    endloop
  endfacet
  facet normal 0.95696 0 -0.290221
    outer loop
      vertex 50.4317 5 -28.1709
      vertex 50.6735 2.9 -27.3736
      vertex 50.4317 2.9 -28.1709
    endloop
  endfacet
  facet normal 0.99518 0 -0.0980656
    outer loop
      vertex 50.4317 2.9 -28.1709
      vertex 50.35 5 -29
      vertex 50.4317 5 -28.1709
    endloop
  endfacet
  facet normal 0.99518 0 -0.0980656
    outer loop
      vertex 50.35 5 -29
      vertex 50.4317 2.9 -28.1709
      vertex 50.35 2.9 -29
    endloop
  endfacet
endsolid OpenSCAD_Model
